<?xml version="1.0" encoding="UTF-8"?>
<svg width="674px" height="740px" viewBox="0 0 674 740" version="1.1" xmlns="http://www.w3.org/2000/svg" xmlns:xlink="http://www.w3.org/1999/xlink">
    <!-- Generator: Sketch 50.2 (55047) - http://www.bohemiancoding.com/sketch -->
    <title>Untitled 2</title>
    <desc>Created with Sketch.</desc>
    <defs></defs>
    <g id="Page-1" stroke="none" stroke-width="1" fill="none" fill-rule="evenodd">
        <g id="settings" transform="translate(9.000000, 9.000000)" stroke="#000000" stroke-width="30">
            <path d="M345.5,230.5 L386,172" id="Line" stroke-linecap="square"></path>
            <path d="M148,104 C163.807781,104 177.968092,96.9463443 187.50519,85.8147765 C195.294628,76.7230537 200,64.9110261 200,52 C200,23.281193 176.718807,0 148,0 C119.281193,0 96,23.281193 96,52 C96,80.718807 119.281193,104 148,104 Z" id="Oval"></path>
            <circle id="Oval" cx="424" cy="120" r="52"></circle>
            <circle id="Oval" cx="604" cy="243" r="52"></circle>
            <circle id="Oval" cx="52" cy="292" r="52"></circle>
            <path d="M417.5,293.5 L550,254" id="Line" stroke-linecap="square"></path>
            <path d="M181.5,230.5 L267,104" id="Line" stroke-linecap="square" transform="translate(224.000000, 167.500000) scale(-1, 1) translate(-224.000000, -167.500000) "></path>
            <path d="M118,290.5 L198,290.5" id="Line" stroke-linecap="square" transform="translate(158.000000, 290.500000) scale(-1, 1) translate(-158.000000, -290.500000) "></path>
        </g>
        <g id="head" transform="translate(94.000000, 228.000000)" fill="#000000" fill-rule="nonzero">
            <path d="M313.6,288 C284.9,288 271.1,304 224,304 C176.9,304 163.2,288 134.4,288 C60.2,288 0,348.2 0,422.4 L0,464 C0,490.5 21.5,512 48,512 L400,512 C426.5,512 448,490.5 448,464 L448,422.4 C448,348.2 387.8,288 313.6,288 Z M416,464 C416,472.8 408.8,480 400,480 L48,480 C39.2,480 32,472.8 32,464 L32,422.4 C32,365.9 77.9,320 134.4,320 C154,320 173.5,336 224,336 C274.4,336 294,320 313.6,320 C370.1,320 416,365.9 416,422.4 L416,464 Z M224,256 C294.7,256 352,198.7 352,128 C352,57.3 294.7,0 224,0 C153.3,0 96,57.3 96,128 C96,198.7 153.3,256 224,256 Z M224,32 C276.9,32 320,75.1 320,128 C320,180.9 276.9,224 224,224 C171.1,224 128,180.9 128,128 C128,75.1 171.1,32 224,32 Z" id="Shape"></path>
        </g>
    </g>
</svg>