<?xml version="1.0" encoding="utf-8"?>
<!-- Generator: Adobe Illustrator 22.0.0, SVG Export Plug-In . SVG Version: 6.00 Build 0)  -->
<svg version="1.1" id="Calque_1" xmlns="http://www.w3.org/2000/svg" xmlns:xlink="http://www.w3.org/1999/xlink" x="0px" y="0px"
	 viewBox="0 0 1440 52" style="enable-background:new 0 0 1440 52;" xml:space="preserve">
<style type="text/css">
	.st0{fill:#26A69A;}
	.st1{fill:none;stroke:#F7F7F7;stroke-linecap:square;}
	.st2{fill:none;stroke:#F7F7F7;}
	.st3{fill:#FFFFFF;}
	.st4{font-family:'Roboto-Regular';}
	.st5{font-size:36px;}
</style>
<title>go Up</title>
<desc>Created with Sketch.</desc>
<g id="Desktop">
	<g id="Desktop-HD_x2F_-Home" transform="translate(0.000000, -2240.000000)">
		
			<g id="go-Up" transform="translate(720.000000, 2266.000000) scale(1, -1) translate(-720.000000, -2266.000000) translate(0.000000, 2240.000000)">
			<g id="organism_x2F_Trianglelogo-desktop">
				<rect id="BG" x="-127" y="40" class="st0" width="1440" height="-52"/>
				<path id="Line" class="st1" d="M1110,0c0,0,0,2.8,0,8.6"/>
				<path id="Line_1_" class="st1" d="M1110,43.5v8"/>
				<polygon id="Triangle" class="st2" points="1110,36 1140,9 1080,9 				"/>
				<path id="Path-2" class="st2" d="M1129.9,18c3.2,0,6.6,0,10.1,0l-30,26l-30-26h9.9"/>
				<path id="Line-Copy-2" class="st1" d="M330,0c0,0,0,2.8,0,8.6"/>
				<path id="Line-Copy" class="st1" d="M330,43.5v8"/>
				<polygon id="Triangle-Copy" class="st2" points="330,36 360,9 300,9 				"/>
				<path id="Path-2-Copy" class="st2" d="M349.9,18c3.2,0,6.6,0,10.1,0l-30,26l-30-26h9.9"/>
			</g>
			<text transform="matrix(1 0 0 -1 612 14)" class="st3 st4 st5">Haut de page</text>
		</g>
	</g>
</g>
</svg>
