<svg xmlns="http://www.w3.org/2000/svg" width="115.66" height="115.208" viewBox="0 0 115.66 115.208">
  <g id="Group_11" data-name="Group 11" transform="translate(-740.84 -829)">
    <g id="Ellipse_28" data-name="Ellipse 28" transform="translate(741.831 829)" fill="none" stroke="#5c5c5c" stroke-width="40">
      <circle cx="57.334" cy="57.334" r="57.334" stroke="none"/>
      <circle cx="57.334" cy="57.334" r="37.334" fill="none"/>
    </g>
    <g id="Subtraction_5" data-name="Subtraction 5" transform="matrix(1, -0.017, 0.017, 1, 740.84, 830.267)" fill="none">
      <path d="M50.913,113.958A57.34,57.34,0,0,1,50.913,0V113.958Z" stroke="none"/>
      <path d="M 50.91324615478516 113.9578857421875 C 36.98952484130859 112.4063873291016 24.13413429260254 105.7914962768555 14.7156343460083 95.33205413818359 C 12.42696762084961 92.79027557373047 10.35480117797852 90.03005218505859 8.557079315185547 87.12733459472656 C 6.739856719970703 84.19349670410156 5.182301044464111 81.08094024658203 3.927301168441772 77.87610626220703 C 1.321412324905396 71.22093963623047 2.341037361475173e-05 64.19016265869141 2.341037361475173e-05 56.97888565063477 C 2.341037361475173e-05 49.76755523681641 1.321412324905396 42.73683166503906 3.927301168441772 36.0815544128418 C 5.18218994140625 32.87660980224609 6.739856719970703 29.76405334472656 8.557079315185547 26.83033180236816 C 10.35463428497314 23.92783164978027 12.42669010162354 21.16761016845703 14.7156343460083 18.6257209777832 C 24.13413429260254 8.166165351867676 36.98935699462891 1.551387310028076 50.91324615478516 -1.573350687067432e-06 L 50.91324615478516 113.9578857421875 Z" stroke="none" fill="#00c7ec"/>
    </g>
    <g id="Subtraction_6" data-name="Subtraction 6" transform="translate(856.374 829) rotate(90)" fill="none">
      <path d="M51.143,0a57.549,57.549,0,0,0-47.2,36.082A57.061,57.061,0,0,0,8.6,87.127a57.661,57.661,0,0,0,42.547,26.83V0Z" stroke="none"/>
      <path d="M 51.14265441894531 7.62939453125e-06 L 51.14265441894531 113.957893371582 C 37.15604400634766 112.4063949584961 24.24276542663574 105.7916717529297 14.78182220458984 95.33211517333984 C 12.48260116577148 92.790283203125 10.40115356445312 90.02995300292969 8.595542907714844 87.12750244140625 C 6.770153045654297 84.19378662109375 5.205432891845703 81.08128356933594 3.944931030273438 77.87622833251953 C 1.327266693115234 71.22106170654297 -1.1444091796875e-05 64.19023132324219 -1.1444091796875e-05 56.97895050048828 C -1.1444091796875e-05 49.76766967773438 1.327266693115234 42.73695373535156 3.944931030273438 36.08172607421875 C 5.205543518066406 32.87683868408203 6.770153045654297 29.76433563232422 8.595542907714844 26.83050537109375 C 10.4013786315918 23.92784118652344 12.48282241821289 21.16750335693359 14.78182220458984 18.62589263916016 C 24.24276542663574 8.166336059570312 37.15615463256836 1.551506042480469 51.14265441894531 7.62939453125e-06 Z" stroke="none" fill="#00c7ec"/>
    </g>
    <circle id="Ellipse_31" data-name="Ellipse 31" cx="38.987" cy="38.987" r="38.987" transform="translate(760.178 847.347)" fill="#262626"/>
  </g>
</svg>
