<?xml version="1.0" encoding="UTF-8"?>
<svg width="271px" height="317px" viewBox="0 0 271 317" version="1.1" xmlns="http://www.w3.org/2000/svg" xmlns:xlink="http://www.w3.org/1999/xlink">
    <!-- Generator: Sketch 50.2 (55047) - http://www.bohemiancoding.com/sketch -->
    <title>Ma tête</title>
    <desc>Created with Sketch.</desc>
    <defs></defs>
    <g id="Desktop" stroke="none" stroke-width="1" fill="none" fill-rule="evenodd">
        <g id="Desktop-HD/-Home" transform="translate(-98.000000, -593.000000)">
            <g id="Ma-tête" transform="translate(98.000000, 593.000000)">
                <g id="Group" fill-rule="nonzero">
                    <path d="M270.753075,308.058974 L270.753075,315.65572 L123.740205,316.906213 L124.573576,310.966371 L124.573576,297.742406 L124.573576,287.207002 L123.616743,283.174162 C122.937699,280.32929 121.67221,277.64073 119.882005,275.35858 L118.215262,273.201479 L121.579613,262.447239 L125.962528,250.317456 L127.660137,244.940335 C127.752733,244.627712 127.907062,244.377613 128.092255,244.096252 C129.172551,242.626923 130.468907,241.345168 131.91959,240.282249 C133.370273,239.219329 134.975285,238.375247 136.703759,237.812525 C137.382802,237.593688 138.061845,237.281065 138.679157,236.905917 L140.160706,236.030572 L140.901481,235.99931 C142.876879,235.905523 144.852278,236.436982 146.519021,237.531164 L152.35262,241.345168 C154.605809,242.814497 156.642938,244.565187 158.464009,246.565976 L164.482802,253.131065 L171.396697,260.383925 L176.890774,252.380769 C178.032802,250.723866 178.989636,248.941913 179.792141,247.097436 L182.724374,240.188462 C183.465148,238.406509 184.360251,236.687081 185.34795,235.030178 L187.817198,230.934813 C188.403645,229.96568 188.835763,228.902761 189.144419,227.839842 C189.453075,226.745661 189.607403,225.620217 189.607403,224.494773 C189.607403,220.805819 188.619704,217.210651 186.798633,214.053156 L186.61344,213.740533 L192.169248,213.990631 C194.391572,214.084418 196.613895,214.303254 198.836219,214.615878 L200.564692,214.865976 C201.799317,215.05355 203.033941,215.272387 204.237699,215.522485 L210.349089,216.835503 L215.380182,218.242308 L235.041572,224.275937 C237.047836,224.901183 238.992369,225.745266 240.782574,226.808185 C243.745672,228.558876 246.369248,230.747239 248.622437,233.31075 C250.875626,235.87426 252.696697,238.781657 254.054784,241.970414 L255.567198,245.503057 L262.018109,265.01075 L267.69738,291.427416 L270.753075,308.058974 Z M144.049772,245.378008 C144.049772,243.814892 142.290433,242.533136 140.098975,242.533136 C137.907517,242.533136 136.148178,243.814892 136.148178,245.378008 C136.148178,246.941124 137.907517,248.22288 140.098975,248.22288 C142.259567,248.22288 144.049772,246.941124 144.049772,245.378008 Z" id="Shape" fill="#777475"></path>
                    <path d="M222.91139,112.106706 L236.24533,107.72998 C233.374829,110.856213 231.12164,114.607692 229.701822,118.640533 L236.060137,116.577219 C236.121868,118.296647 235.072437,120.047337 233.498292,120.735108 C235.103303,121.204043 236.24533,122.923471 236.091002,124.611637 C233.837813,128.14428 232.66492,132.395957 232.819248,136.616371 C232.880979,134.334221 233.590888,132.052071 234.856378,130.145069 C236.337927,135.365878 233.714351,141.462032 228.930182,143.931755 C227.201708,149.558974 227.386902,155.81144 229.485763,161.313609 L235.226765,150.43432 C233.282232,161.438659 229.640091,172.161637 224.45467,182.040533 C224.084282,179.164398 225.99795,176.538363 226.522665,173.724753 C227.078246,170.879882 224.578132,167.065878 222.108884,168.535207 C220.071754,169.723176 220.781663,172.755621 221.244647,175.100296 C222.201481,180.164793 220.256948,185.729487 216.337016,189.043294 C212.417084,192.357101 206.676082,193.326233 201.922779,191.450493 C198.836219,196.046055 195.070615,200.203945 190.811162,203.674063 C188.527107,205.549803 185.255353,205.393491 183.094761,203.36144 C181.705809,202.048422 180.471185,200.579093 179.45262,198.953452 C178.835308,198.015582 178.526651,196.890138 178.557517,195.764694 C178.557517,195.076923 178.557517,194.420414 178.588383,193.732643 C178.742711,178.164004 178.804442,162.595365 178.835308,147.026726 C178.835308,146.870414 178.835308,146.714103 178.835308,146.557791 C178.835308,138.304536 178.804442,129.863708 176.119134,122.079389 C175.625285,120.703846 175.100569,119.359566 174.514123,117.984024 C173.310364,112.794477 171.273235,107.823767 168.526196,103.259467 C164.698861,102.88432 160.933257,101.477515 157.815831,99.1953649 C156.426879,98.1949704 155.099658,97.007002 153.432916,96.5693294 C151.272323,96.0066075 149.019134,96.819428 146.889408,97.4446746 C137.135877,100.320809 126.209453,98.9765286 117.412756,93.8495069 C115.715148,96.0066075 112.350797,95.6314596 109.912415,94.3809665 C107.504897,93.1617357 105.282574,91.2547337 102.597267,90.8795858 C100.097153,90.5357002 97.5970387,91.5986193 95.0969248,91.2234714 C92.6276765,90.8483235 90.3127563,87.6595661 92.1338269,85.8776134 C89.2015945,83.6267258 85.0038724,84.9084813 81.7012528,86.5653846 C71.8551253,91.5048323 62.7189066,100.008185 61.2682232,111.043787 C60.5583144,116.577219 61.8546697,122.141913 62.2867882,127.73787 C62.9041002,135.647239 61.7312073,143.650394 62.2867882,151.559763 C63.7374715,171.598915 87.5657175,203.830375 87.7509112,204.080473 C84.1396355,205.674852 80.6518223,201.798323 78.3986333,198.515779 C72.503303,190.012426 65.3116173,182.478205 57.1322323,176.22574 C55.7741458,175.162821 54.2925968,174.131164 52.5949886,173.81854 C51.1443052,173.537179 49.6010251,173.787278 48.1812073,173.41213 C46.1132118,172.849408 45.1563781,170.535996 43.3661731,169.348028 C26.6370159,158.249901 18.1489749,147.714497 38.4585421,137.27288 C42.0389522,135.428402 26.8839408,133.771499 24.0134396,130.895365 C15.8031891,139.242406 11.3894077,145.557396 15.0006834,156.74931 C12.1610478,153.060355 9.44487472,149.183826 8.14851936,144.682051 C6.85216401,140.211538 7.19168565,134.99073 10.0930524,131.3643 C12.7474943,128.019231 17.0069476,126.518639 20.4638952,124.048915 C23.9208428,121.579191 26.7296128,116.85858 24.6307517,113.138363 C17.8711845,117.077416 11.1116173,120.985207 4.35205011,124.92426 C3.24088838,125.580769 1.7284738,126.206016 0.802505695,125.080572 C0.277790433,124.455325 0.185193622,123.548718 0.524715262,122.798422 C3.21002278,116.639744 8.70410023,111.794083 15.0932802,109.918343 C10.9264237,106.667061 5.00022779,105.854241 0.123462415,107.948817 L2.74703872,102.665483 C6.20398633,106.416963 12.6857631,105.44783 16.4205011,102.008974 C20.1861048,98.5701183 21.883713,93.4430966 23.4578588,88.5661736 C16.1118451,80.8443787 12.6240319,69.4961538 14.3525057,58.9294872 C14.4759681,67.4015779 23.4269932,74.4981262 31.5755125,72.5911243 C28.5506834,70.6841223 29.0136674,65.7446746 31.5446469,63.212426 C34.0756264,60.6801775 37.8103645,59.9298817 41.2981777,59.3046351 C34.5694761,53.6148915 23.2726651,54.7715976 17.8094533,61.7118343 C23.7356492,48.5503945 38.3659453,40.0157791 52.564123,41.4225838 C50.465262,35.7328402 54.354328,28.6362919 60.2187927,27.4170611 C62.0089977,27.0419132 64.015262,27.1044379 65.4968109,26.0102564 C68.4290433,23.8531558 67.1944191,19.195069 65.5585421,15.9125247 C63.9226651,12.6299803 62.2867882,8.25325444 64.8794989,5.65848126 C67.0709567,10.410355 69.8797267,15.7249507 74.9416856,16.9441815 C76.0528474,17.2255424 77.2566059,17.2880671 78.2134396,17.8820513 C79.972779,18.9449704 80.4048975,21.289645 81.5777904,22.9778107 C83.4297267,25.6663708 87.4731207,26.4791913 90.2201595,24.6972387 C90.9917995,23.4780079 90.8992027,21.7585799 89.9732346,20.6331361 C88.1212984,16.6628205 87.4113895,12.1610454 87.9361048,7.78431953 C88.1212984,6.34625247 88.6768793,5.00197239 89.6954442,4.00157791 C92.8746014,0.875345168 97.6896355,3.56390533 101.918223,3.72021696 C102.319476,3.72021696 102.566401,9.3474359 102.905923,9.12859961 C104.140547,8.31577909 101.949089,1.96952663 102.442938,2.59477318 C109.264237,11.1293886 118.36959,13.0676529 128.925626,10.5666667 C132.536902,9.72258383 127.536674,18.2571992 131.024487,19.570217 C134.512301,20.8832347 138.463098,19.0387574 141.055809,16.3189349 C143.617654,13.5991124 145.1918,10.0977318 147.228929,6.94023669 C149.266059,3.78274162 152.074829,0.812820513 155.71697,0.0937869822 C156.457745,7.00276134 151.797039,12.7550296 149.235194,19.195069 C146.889408,25.1349112 158.217084,31.1372781 170.655923,37.9837278 C172.137472,38.7965483 173.588155,38.95286 175.038838,38.671499 C177.662415,42.016568 180.255125,45.3928994 182.878702,48.7379684 C183.465148,49.4882643 184.113326,50.3010848 185.008428,50.6137081 C185.780068,50.895069 186.644305,50.7700197 187.446811,50.5824458 C195.31754,48.5816568 201.490661,39.1091716 209.299658,41.3600592 C208.682346,45.3928994 204.484624,47.737574 200.595558,48.8004931 C198.589294,49.363215 189.42221,52.2393491 187.755467,55.1154832 C186.181321,57.8040434 192.138383,60.4613412 190.718565,61.8056213 C189.237016,63.212426 207.046469,55.8970414 216.8,56.9599606 C218.528474,57.1475345 224.794191,56.5848126 224.794191,56.9286982 C224.794191,57.3038462 217.880296,59.3984221 216.645672,59.8986193 C208.0959,63.3687377 188.280182,65.9009862 190.255581,67.5578895 C190.903759,68.0893491 191.613667,68.5270217 192.385308,68.839645 C194.638497,69.7149901 197.447267,69.8713018 198.836219,71.8720907 C199.607859,72.9662722 199.762187,74.4043393 200.533827,75.4985207 C202.231435,77.9057199 205.780979,77.4993097 208.682346,77.9995069 C211.583713,78.4997041 214.392483,82.3762327 211.984966,84.0643984 C209.700911,82.4387574 206.614351,82.0636095 204.02164,83.0952663 L208.311959,86.2840237 C205.904442,86.8467456 206.706948,90.9733728 209.021868,91.8487179 C211.336788,92.7240631 213.867768,91.7236686 216.30615,91.4110454 C218.744533,91.0984221 221.892825,92.0362919 222.201481,94.5060158 C222.294077,95.3500986 222.047153,96.1629191 221.954556,97.007002 C221.676765,99.7268245 223.281777,102.227811 224.23861,104.760059 C225.288041,107.32357 225.288041,110.824951 222.91139,112.106706 Z" id="Shape" fill="#77582F"></path>
                    <path d="M189.545672,224.369724 C189.545672,225.52643 189.391344,226.651874 189.082688,227.714793 C188.774032,228.808974 188.341913,229.840631 187.755467,230.809763 L185.286219,234.905128 C184.298519,236.562032 183.403417,238.28146 182.662642,240.063412 L179.73041,246.972387 C178.95877,248.816864 177.971071,250.598817 176.829043,252.25572 L171.334966,260.258876 L164.421071,253.006016 L158.402278,246.440927 C156.581207,244.440138 154.513212,242.689448 152.290888,241.220118 L146.457289,237.406114 C144.790547,236.311933 142.815148,235.780473 140.839749,235.87426 L140.098975,235.905523 L144.821412,233.029389 L147.537585,231.372485 C150.469818,229.621795 153.093394,227.370907 155.315718,224.776134 L167.168109,210.958185 L174.328929,203.392702 C176.088269,201.642012 176.705581,200.54783 177.292027,198.140631 L177.538952,197.140237 L179.082232,201.829586 C181.644077,205.424753 183.372551,209.645168 186.551708,213.490434 L186.736902,213.803057 C188.557973,217.085602 189.545672,220.712032 189.545672,224.369724 Z" id="Shape" fill="#4F484B"></path>
                    <path d="M188.835763,29.792998 C190.872893,28.5112426 193.00262,27.5733728 195.194077,27.5108481 C193.064351,28.1986193 190.934624,28.9489152 188.835763,29.792998 Z" id="Shape" fill="#77582F"></path>
                    <path d="M134.23451,137.179093 C134.203645,137.210355 134.172779,137.241617 134.141913,137.27288 L132.752961,138.585897 C132.752961,138.585897 131.6418,139.648817 131.42574,139.867653 C131.42574,139.867653 131.394875,139.898915 131.394875,139.898915 C131.302278,139.992702 132.382574,140.461637 132.506036,140.555424 C132.598633,140.617949 133.740661,140.961834 134.481435,141.180671 C134.882688,141.30572 135.283941,141.399507 135.685194,141.462032 L138.370501,141.930966 C138.648292,141.993491 138.895216,141.993491 139.173007,141.993491 L142.290433,141.993491 L143.617654,141.993491 C143.679385,141.993491 143.741116,141.993491 143.771982,141.993491 C143.802847,141.993491 143.864579,141.993491 143.895444,141.993491 C144.111503,141.993491 144.296697,141.993491 144.481891,141.962229 C144.481891,141.962229 144.512756,141.962229 144.512756,141.962229 C145.438724,141.899704 146.333827,141.71213 147.228929,141.399507 L147.383257,141.336982 L149.358656,140.617949 C149.790774,140.461637 150.222893,140.242801 150.655011,140.023964 L151.488383,139.55503 C152.074829,139.242406 152.599544,138.804734 153.031663,138.304536 C153.803303,137.397929 154.389749,136.33501 154.698405,135.178304 L154.482346,134.959467 C154.081093,134.553057 153.648975,134.240434 153.155125,133.959073 L151.797039,133.208777 C150.901936,132.739842 149.945103,132.427219 148.926538,132.270907 L147.691913,132.114596 C146.642483,131.958284 145.562187,131.989546 144.543622,132.17712 L143.247267,132.427219 C143.031207,132.458481 142.846014,132.521006 142.629954,132.552268 C142.290433,132.646055 141.981777,132.739842 141.642255,132.864892 L140.160706,133.427613 C139.728588,133.583925 139.327335,133.802761 138.926082,134.05286 L136.76549,135.522189 L134.882688,136.616371 C134.666629,136.835207 134.450569,136.991519 134.23451,137.179093 Z M109.079043,176.006903 C109.17164,175.913116 109.202506,175.819329 109.202506,175.69428 L109.202506,175.225345 C109.202506,174.943984 108.307403,173.474655 108.153075,173.380868 C108.153075,173.380868 107.13451,172.818146 106.733257,172.818146 C105.159112,173.130769 104.81959,173.349606 104.81959,173.349606 C104.634396,173.474655 103.862756,173.974852 103.924487,174.75641 C103.986219,175.256607 104.387472,175.69428 104.943052,175.881854 C105.09738,175.944379 105.31344,176.006903 105.560364,176.069428 C105.745558,176.10069 105.899886,176.131953 106.054214,176.131953 C106.270273,176.163215 106.609795,176.194477 107.011048,176.288264 C107.13451,176.288264 108.214806,176.194477 108.801253,176.163215 C108.924715,176.10069 109.017312,176.069428 109.079043,176.006903 Z M120.036333,174.068639 L120.591913,174.506312 C121.116629,174.912722 121.703075,175.194083 122.351253,175.319132 C122.351253,175.319132 122.690774,175.381657 123.092027,175.444181 C123.431549,175.506706 123.771071,175.537968 124.110592,175.569231 C124.419248,175.631755 125.03656,175.663018 125.777335,175.412919 C126.394647,175.194083 126.765034,174.818935 126.981093,174.631361 C127.320615,174.287475 127.166287,173.318343 127.166287,173.318343 C127.011959,172.818146 126.610706,172.411736 126.147722,172.224162 C126.147722,172.224162 125.098292,171.911538 124.635308,171.911538 C124.203189,171.911538 123.555011,171.942801 122.845103,172.161637 C121.857403,172.47426 121.147494,173.00572 120.777107,173.349606 L120.036333,174.068639 Z M93.7388383,193.326233 L93.5536446,193.326233 C93.6153759,193.451282 93.7079727,193.607594 93.8623007,193.795168 L94.3561503,195.545858 C94.8808656,197.577909 96.6093394,198.953452 97.9365604,200.610355 L102.226879,204.049211 C102.566401,204.455621 103.770159,205.174655 105.220843,205.893688 C106.424601,206.518935 107.288838,206.737771 108.616059,206.956607 C109.758087,207.144181 111.671754,207.456805 113.616287,207.675641 C113.739749,207.706903 116.888041,208.019527 120.314123,207.39428 C124.048861,206.706509 128.524374,205.51854 128.524374,205.51854 C132.660364,203.955424 143.370729,192.951085 143.525057,192.388363 C143.525057,192.388363 143.463326,192.419625 143.43246,192.450888 L143.278132,192.263314 L141.179271,192.763511 C140.469362,192.951085 139.759453,193.107396 139.049544,193.201183 L138.555695,193.263708 C136.302506,193.576331 133.987585,193.482544 131.796128,192.794773 C129.944191,192.232051 127.042825,192.200789 125.129157,192.325838 C125.129157,192.325838 123.925399,192.607199 120.40672,192.951085 C119.789408,193.013609 118.122665,192.826036 116.517654,192.88856 C115.807745,192.919822 113.708884,193.263708 112.937244,193.263708 C111.949544,193.29497 109.603759,192.638462 108.708656,192.826036 C107.535763,192.794773 102.628132,193.576331 102.628132,193.576331 C101.794761,193.670118 100.930524,193.701381 100.097153,193.670118 L93.7388383,193.326233 Z M176.057403,122.079389 C178.742711,129.863708 178.773576,138.304536 178.773576,146.557791 C178.773576,146.714103 178.773576,146.870414 178.773576,147.026726 L177.971071,147.026726 C175.501822,157.374556 168.834852,170.504734 152.414351,182.759566 C152.414351,182.759566 166.735991,190.387574 156.272551,209.613905 C155.593508,210.833136 149.605581,218.773767 146.951139,221.618639 C144.327563,224.432249 141.858314,226.089152 140.901481,226.683136 C137.784055,228.652663 127.505809,231.341223 124.419248,231.591321 C121.517882,231.810158 118.64738,231.278698 115.807745,230.653452 C111.455695,229.653057 107.072779,228.340039 103.492369,225.682742 C100.498405,223.463116 98.1834852,220.430671 95.8994305,217.46075 C93.8623007,214.772189 91.7634396,212.052367 90.6522779,210.676824 L87.6583144,204.111736 C87.4731207,203.861637 63.6757403,171.66144 62.1941913,151.591026 C61.6077449,143.650394 62.7806378,135.678501 62.1941913,127.769132 C61.7620729,122.204438 60.4657175,116.639744 61.1756264,111.075049 C62.5954442,100.039448 71.7316629,91.5360947 81.608656,86.5966469 C84.9112756,84.9397436 89.1089977,83.6579882 92.0412301,85.9088757 C90.2201595,87.6595661 92.5350797,90.8795858 95.004328,91.2547337 C97.5044419,91.6298817 100.004556,90.5669625 102.50467,90.9108481 C105.189977,91.2547337 107.381435,93.1617357 109.819818,94.4122288 C112.2582,95.6314596 115.622551,96.0378698 117.320159,93.8807692 C126.116856,99.0390533 137.04328,100.352071 146.796811,97.4759369 C148.957403,96.8506903 151.179727,96.0066075 153.340319,96.6005917 C155.007062,97.0382643 156.334282,98.2262327 157.723235,99.2266272 C160.871526,101.508777 164.606264,102.915582 168.433599,103.29073 C171.180638,107.823767 173.217768,112.82574 174.421526,118.015286 C175.007973,119.359566 175.563554,120.703846 176.057403,122.079389 Z M158.186219,118.234122 C158.186219,118.171598 158.186219,118.140335 158.155353,118.077811 L157.630638,117.171203 C157.383713,116.764793 157.013326,116.420907 156.581207,116.264596 L153.8959,115.170414 L151.210592,114.482643 C150.438952,114.295069 149.636446,114.295069 148.895672,114.513905 L145.068337,115.576824 C144.883144,115.639349 144.69795,115.701874 144.512756,115.795661 L139.57426,118.171598 L132.845558,121.579191 L129.141686,123.736292 C129.018223,123.798817 128.863895,123.892604 128.740433,124.017653 L126.147722,126.112229 C125.993394,126.237278 125.839066,126.39359 125.715604,126.549901 L124.851367,127.769132 C124.635308,128.081755 124.604442,128.456903 124.697039,128.800789 C124.943964,129.551085 125.653872,130.051282 126.394647,130.051282 C126.487244,130.051282 126.610706,130.051282 126.703303,130.02002 C127.197153,129.926233 127.691002,129.738659 128.123121,129.48856 C129.38861,128.707002 132.104784,127.112623 132.351708,127.050099 C132.660364,126.956312 140.3459,123.736292 140.3459,123.736292 L146.982005,120.985207 L150.963667,119.578402 C151.488383,119.390828 152.074829,119.297041 152.63041,119.297041 L155.840433,119.297041 L156.303417,119.359566 C157.136788,119.640927 157.599772,119.234517 158.093622,118.484221 C158.186219,118.359172 158.186219,118.296647 158.186219,118.234122 Z M100.529271,130.176331 C100.683599,129.551085 100.405809,128.925838 99.8810934,128.644477 C99.6958998,128.581953 99.4489749,128.456903 99.1711845,128.331854 C96.8871298,127.300197 95.3129841,126.174753 94.8808656,125.893393 C92.8128702,124.392801 92.1955581,123.392406 89.9115034,122.392012 C89.9115034,122.392012 79.7567198,119.609665 79.6332574,119.609665 C78.6146925,119.359566 77.3800683,119.171992 76.0219818,119.078205 C75.8985194,119.078205 75.7441913,119.078205 75.5898633,119.078205 C72.9971526,119.046943 70.4970387,119.859763 68.3364465,121.29783 L67.2561503,122.016864 C66.9166287,122.36075 66.5771071,122.704635 66.2067198,123.079783 L66.1758542,123.142308 C65.6202733,123.986391 65.3424829,124.955523 65.3424829,125.955917 C65.3424829,126.174753 65.4042141,126.39359 65.4968109,126.581164 L65.5585421,126.674951 C65.8980638,127.33146 66.7623007,127.612821 67.3796128,127.20641 C67.441344,127.175148 67.4722096,127.143886 67.5030752,127.112623 C68.1203872,126.581164 68.7994305,126.112229 69.5093394,125.705819 C70.2192483,125.299408 70.9600228,124.955523 71.7316629,124.705424 C71.8859909,124.642899 72.0711845,124.611637 72.2563781,124.611637 C72.2872437,124.611637 72.3489749,124.611637 72.4107062,124.611637 L79.8493166,125.299408 C80.5900911,125.361933 81.3308656,125.518245 82.0099089,125.705819 L91.26959,128.456903 C91.3004556,128.456903 91.3313212,128.488166 91.3930524,128.488166 L97.7513667,131.051677 C97.9056948,131.114201 98.0600228,131.145464 98.2452164,131.145464 L99.2946469,131.145464 C99.8193622,131.114201 100.374943,130.770316 100.529271,130.176331 Z M95.5907745,142.806312 L97.9056948,141.993491 L96.4550114,140.617949 L95.4981777,139.586292 C95.1895216,139.242406 94.8191344,138.929783 94.4178815,138.679684 L93.3067198,137.929389 C93.059795,137.773077 92.7820046,137.616765 92.5350797,137.491716 C91.7017084,137.085306 90.7757403,136.866469 89.8497722,136.866469 C89.2941913,136.835207 88.7694761,136.803945 88.2138952,136.772682 C88.0287016,136.772682 87.8743736,136.74142 87.7200456,136.74142 C87.5348519,136.74142 87.3496583,136.74142 87.1644647,136.74142 C87.0718679,136.74142 86.9792711,136.74142 86.9792711,136.74142 C86.9484055,136.74142 85.2816629,136.835207 84.6952164,136.866469 C84.0779043,136.897732 83.3062642,137.085306 82.6889522,137.241617 L81.454328,137.585503 C81.0839408,137.67929 80.7135535,137.835602 80.3740319,137.991913 L79.9419134,138.21075 C79.509795,138.429586 79.1394077,138.679684 78.7690205,138.992308 L78.6764237,139.086095 C78.3060364,139.398718 78.0591116,139.836391 77.9356492,140.336588 L77.873918,140.649211 C77.7813212,141.024359 77.873918,141.399507 78.1208428,141.680868 L78.6764237,142.306114 C79.0159453,142.681262 79.3863326,142.993886 79.818451,143.275247 L80.7752847,143.900493 C81.0530752,144.088067 81.3308656,144.213116 81.6395216,144.306903 L83.1828018,144.775838 C83.7692483,144.963412 84.3865604,145.057199 84.9730068,145.057199 L86.1458998,145.057199 L87.7817768,145.057199 L88.0595672,145.057199 C88.7386105,145.057199 89.4485194,144.963412 90.096697,144.744576 L92.6585421,143.963018 C92.7202733,143.931755 92.8128702,143.900493 92.8746014,143.900493 L95.5907745,142.806312 Z" id="Shape" fill="#EFC36A"></path>
                    <path d="M177.971071,147.057988 L178.773576,147.057988 C178.773576,162.626627 178.680979,178.195266 178.526651,193.763905 L178.372323,193.763905 C178.372323,193.670118 177.662415,195.045661 177.538952,195.17071 L168.21754,205.456016 C167.692825,206.112525 167.106378,206.706509 166.519932,207.300493 L157.723235,215.960158 C157.105923,216.554142 156.519476,217.210651 155.93303,217.86716 L149.729043,225.745266 C148.309226,227.40217 146.272096,229.090335 144.389294,230.121992 L136.796355,234.467456 C134.790091,235.592899 132.104784,235.968047 129.851595,236.311933 L125.53041,236.999704 C123.771071,237.281065 121.980866,237.406114 120.190661,237.406114 L117.567084,237.406114 C114.110137,237.406114 110.684055,236.499507 107.659226,234.780079 L107.072779,234.436193 C104.572665,232.998126 102.319476,231.153649 100.46754,228.934024 L98.2143508,226.276726 C96.0846241,223.744477 94.4487472,220.837081 93.3993166,217.710848 L92.1029613,213.83432 L91.0535308,211.520907 C91.0535308,211.520907 91.0535308,211.520907 91.0535308,211.520907 C91.0535308,211.489645 91.0226651,211.458383 91.0226651,211.42712 C91.0226651,211.42712 91.0226651,211.42712 91.0226651,211.42712 L90.6831435,210.645562 C91.7943052,212.021105 93.8623007,214.740927 95.9302961,217.429487 C98.1834852,220.430671 100.498405,223.431854 103.523235,225.651479 C107.13451,228.308777 111.517426,229.621795 115.83861,230.622189 C118.678246,231.278698 121.548747,231.810158 124.450114,231.560059 C127.505809,231.309961 137.784055,228.6214 140.932346,226.651874 C141.88918,226.05789 144.358428,224.432249 146.982005,221.587377 C149.605581,218.742505 155.624374,210.801874 156.303417,209.582643 C166.766856,190.356312 152.445216,182.728304 152.445216,182.728304 C168.865718,170.535996 175.501822,157.405819 177.971071,147.057988 Z" id="Shape" fill="#23171B"></path>
                    <path d="M112.165604,267.324162 L109.94328,264.635602 C108.461731,262.853649 107.443166,260.759073 106.918451,258.508185 L106.332005,255.850888 L104.943052,248.160355 L96.8871298,243.033333 L94.8191344,240.000888 C94.8191344,240.000888 93.214123,235.092702 93.214123,234.404931 C93.214123,233.71716 92.1646925,224.369724 92.1646925,224.369724 L91.115262,211.55217 L92.1646925,213.865582 L93.4610478,217.74211 C94.5104784,220.868343 96.1463554,223.77574 98.276082,226.307988 L100.529271,228.965286 C102.412073,231.184911 104.634396,233.029389 107.13451,234.467456 L107.720957,234.811341 C110.745786,236.530769 114.141002,237.437377 117.628815,237.437377 L120.252392,237.437377 C122.042597,237.437377 123.832802,237.312327 125.592141,237.030966 L129.913326,236.343195 C132.166515,235.99931 134.851822,235.592899 136.858087,234.498718 L144.451025,230.153254 C146.333827,229.090335 148.370957,227.40217 149.790774,225.776529 L155.994761,217.898422 C156.550342,217.241913 157.167654,216.616667 157.784966,215.99142 L166.581663,207.331755 C167.168109,206.737771 167.754556,206.112525 168.279271,205.487278 L177.600683,195.201972 C177.724146,195.076923 178.434055,193.701381 178.434055,193.795168 C178.434055,193.795168 178.434055,193.795168 178.434055,193.795168 L177.600683,197.265286 L177.353759,198.26568 C176.767312,200.704142 176.15,201.798323 174.390661,203.517751 L167.229841,211.083235 L155.377449,224.901183 C153.155125,227.495957 150.500683,229.746844 147.599317,231.497535 L144.883144,233.154438 L140.160706,236.030572 L138.679157,236.905917 C138.061845,237.281065 137.382802,237.593688 136.703759,237.812525 C134.975285,238.375247 133.370273,239.219329 131.91959,240.282249 C130.468907,241.345168 129.172551,242.626923 128.092255,244.096252 C127.907062,244.346351 127.752733,244.627712 127.660137,244.940335 L125.962528,250.317456 L121.579613,262.447239 L118.215262,273.201479 L112.597722,267.824359 L112.165604,267.324162 Z" id="Shape" fill="#D8B461"></path>
                    <path d="M158.155353,118.109073 C158.186219,118.140335 158.186219,118.20286 158.186219,118.265385 C158.186219,118.327909 158.186219,118.359172 158.155353,118.421696 C157.692369,119.171992 157.229385,119.578402 156.365148,119.297041 L155.902164,119.234517 L152.692141,119.234517 C152.13656,119.234517 151.550114,119.328304 151.025399,119.515878 L147.043736,120.922682 L140.407631,123.673767 C140.407631,123.673767 132.722096,126.925049 132.41344,126.987574 C132.166515,127.050099 129.481207,128.644477 128.184852,129.426036 C127.752733,129.676134 127.258884,129.863708 126.765034,129.957495 C126.672437,129.988757 126.548975,129.988757 126.456378,129.988757 C125.715604,129.988757 125.005695,129.48856 124.75877,128.738264 C124.635308,128.394379 124.697039,128.019231 124.913098,127.706607 L125.777335,126.487377 C125.900797,126.331065 126.02426,126.174753 126.209453,126.049704 L128.802164,123.955128 C128.925626,123.861341 129.049089,123.767554 129.203417,123.673767 L132.907289,121.516667 L139.635991,118.109073 L144.574487,115.733136 C144.759681,115.639349 144.944875,115.576824 145.130068,115.5143 L148.957403,114.451381 C149.729043,114.232544 150.500683,114.232544 151.272323,114.420118 L153.957631,115.10789 L156.642938,116.202071 C157.075057,116.389645 157.445444,116.702268 157.692369,117.108679 L158.155353,118.109073 Z" id="Shape" fill="#4F3508"></path>
                    <path d="M154.420615,134.959467 L154.636674,135.178304 C154.328018,136.33501 153.741572,137.397929 152.969932,138.304536 C152.537813,138.804734 152.013098,139.242406 151.426651,139.55503 L150.59328,140.023964 C150.192027,140.242801 149.729043,140.461637 149.296925,140.617949 L147.321526,141.336982 L147.167198,141.399507 C146.302961,141.71213 145.376993,141.868442 144.451025,141.962229 C146.889408,141.680868 148.77221,139.680079 148.77221,137.27288 C148.77221,134.678107 146.549886,132.552268 143.833713,132.552268 C143.401595,132.552268 143.000342,132.614793 142.599089,132.70858 L142.568223,132.583531 C142.784282,132.521006 142.969476,132.489744 143.185535,132.458481 L144.481891,132.208383 C145.531321,132.020809 146.580752,131.989546 147.630182,132.145858 L148.864806,132.30217 C149.852506,132.427219 150.840205,132.739842 151.735308,133.240039 L153.093394,133.990335 C153.587244,134.240434 154.050228,134.553057 154.420615,134.959467 Z" id="Shape" fill="#EAE8C7"></path>
                    <path d="M143.895444,132.552268 C146.611617,132.552268 148.833941,134.678107 148.833941,137.27288 C148.833941,139.680079 146.951139,141.649606 144.512756,141.962229 C144.512756,141.962229 144.512756,141.962229 144.481891,141.962229 C144.234966,141.993491 143.988041,141.993491 143.741116,141.993491 C141.086674,141.930966 138.956948,139.836391 138.956948,137.27288 C138.956948,135.084517 140.531093,133.240039 142.66082,132.70858 C143.031207,132.614793 143.463326,132.552268 143.895444,132.552268 Z M144.389294,137.648028 C144.574487,137.366667 144.574487,137.210355 144.543622,136.897732 C144.512756,136.585108 144.389294,136.33501 144.080638,136.241223 C143.92631,136.178698 143.710251,136.178698 143.525057,136.241223 C143.092938,136.397535 142.907745,136.835207 142.907745,136.897732 C142.876879,136.960256 142.784282,137.335404 143.000342,137.648028 C143.216401,137.929389 143.586788,137.960651 143.833713,137.960651 C144.018907,137.960651 144.111503,137.929389 144.142369,137.898126 C144.234966,137.804339 144.327563,137.741815 144.389294,137.648028 Z" id="Shape" fill="#35290B"></path>
                    <path d="M143.741116,141.993491 C143.679385,141.993491 143.648519,141.993491 143.586788,141.993491 L142.259567,141.993491 L139.142141,141.993491 C138.864351,141.993491 138.617426,141.962229 138.339636,141.930966 L135.654328,141.462032 C135.253075,141.399507 134.851822,141.30572 134.450569,141.180671 C133.740661,140.961834 132.567768,140.586686 132.475171,140.555424 C132.320843,140.492899 131.271412,139.992702 131.364009,139.898915 C131.364009,139.898915 131.394875,139.867653 131.394875,139.867653 C132.444305,139.02357 133.308542,138.0857 134.23451,137.210355 C134.450569,137.022781 134.697494,136.835207 134.944419,136.710158 L136.827221,135.615976 L138.987813,134.146647 C139.3582,133.896548 139.790319,133.677712 140.222437,133.5214 L141.703986,132.958679 C142.012642,132.833629 142.352164,132.739842 142.691686,132.646055 L142.722551,132.771105 C140.592825,133.302564 139.018679,135.147041 139.018679,137.335404 C138.956948,139.836391 141.086674,141.899704 143.741116,141.993491 Z" id="Shape" fill="#EAE8C7"></path>
                    <path d="M143.401595,192.450888 C143.463326,192.419625 143.494191,192.388363 143.494191,192.388363 C143.308998,192.982347 132.598633,203.955424 128.493508,205.51854 C128.493508,205.51854 124.048861,206.706509 120.283257,207.39428 C116.82631,208.019527 113.678018,207.706903 113.585421,207.675641 C111.640888,207.456805 109.727221,207.144181 108.585194,206.956607 C107.257973,206.737771 106.424601,206.487673 105.189977,205.893688 C103.739294,205.174655 102.535535,204.455621 102.196014,204.049211 L97.9056948,200.610355 C96.5784738,198.984714 94.8808656,197.577909 94.3252847,195.545858 L93.8314351,193.795168 C95.2821185,195.639645 100.96139,200.360256 106.455467,201.423176 L113.184169,201.829586 C115.344761,202.142209 119.048633,201.4857 119.851139,201.423176 C124.419248,200.829191 122.382118,201.173077 125.592141,200.422781 C128.092255,199.860059 134.450569,198.26568 134.450569,198.26568 C135.129613,197.98432 136.888952,196.983925 137.506264,196.546252 L141.333599,194.045266 L142.846014,192.794773 C142.876879,192.826036 143.216401,192.575937 143.401595,192.450888 Z" id="Shape" fill="#D8717B"></path>
                    <path d="M143.247267,192.263314 L143.401595,192.450888 C143.216401,192.575937 142.876879,192.794773 142.846014,192.794773 L141.333599,194.045266 L137.506264,196.546252 C136.888952,196.983925 135.129613,197.953057 134.450569,198.26568 C134.450569,198.26568 128.092255,199.860059 125.592141,200.422781 C122.382118,201.141815 124.419248,200.797929 119.851139,201.423176 C119.048633,201.4857 115.344761,202.142209 113.184169,201.829586 L106.455467,201.423176 C100.96139,200.360256 95.2821185,195.639645 93.8314351,193.795168 L93.7388383,193.482544 L94.9425968,194.420414 C96.4550114,195.70217 98.2452164,196.577515 100.158884,196.983925 C102.813326,197.515385 105.992483,198.015582 105.992483,198.015582 C107.196241,198.109369 117.227563,197.796746 117.783144,197.796746 C117.783144,197.796746 128.740433,197.04645 129.542938,196.9214 C129.542938,196.9214 135.561731,195.70217 136.858087,195.108185 L143.247267,192.263314 Z" id="Shape" fill="#51222B"></path>
                    <path d="M143.247267,192.263314 L136.888952,195.139448 C135.592597,195.733432 129.573804,196.952663 129.573804,196.952663 C128.740433,197.077712 117.814009,197.828008 117.814009,197.828008 C117.289294,197.828008 107.257973,198.140631 106.023349,198.046844 C106.023349,198.046844 102.844191,197.546647 100.189749,197.015187 C98.276082,196.640039 96.4550114,195.764694 94.9734624,194.451677 L93.7697039,193.513807 L93.7079727,193.357495 L100.004556,193.763905 C100.868793,193.795168 101.702164,193.763905 102.535535,193.670118 C102.535535,193.670118 107.443166,192.88856 108.616059,192.919822 C109.511162,192.763511 111.856948,193.388757 112.844647,193.357495 C113.616287,193.357495 115.715148,193.013609 116.425057,192.982347 C118.030068,192.919822 119.696811,193.107396 120.314123,193.044872 C123.832802,192.669724 125.03656,192.419625 125.03656,192.419625 C126.950228,192.263314 129.88246,192.325838 131.703531,192.88856 C133.894989,193.545069 136.209909,193.670118 138.463098,193.357495 L138.956948,193.29497 C139.666856,193.201183 140.407631,193.044872 141.086674,192.857298 L143.247267,192.263314 Z" id="Shape" fill="#D8717B"></path>
                    <path d="M140.098975,242.533136 C142.290433,242.533136 144.049772,243.814892 144.049772,245.378008 C144.049772,246.941124 142.290433,248.22288 140.098975,248.22288 C137.907517,248.22288 136.148178,246.941124 136.148178,245.378008 C136.148178,243.783629 137.907517,242.533136 140.098975,242.533136 Z" id="Shape" fill="#998D93"></path>
                    <path d="M127.166287,173.287081 C127.166287,173.287081 127.320615,174.224951 126.981093,174.600099 C126.765034,174.818935 126.363781,175.162821 125.777335,175.381657 C125.03656,175.663018 124.419248,175.600493 124.110592,175.537968 C123.771071,175.506706 123.431549,175.475444 123.092027,175.412919 C122.690774,175.350394 122.351253,175.28787 122.351253,175.28787 C121.703075,175.162821 121.116629,174.88146 120.591913,174.475049 L120.036333,174.037377 L120.746241,173.287081 C121.116629,172.943195 121.826538,172.411736 122.814237,172.099112 C123.524146,171.880276 124.141458,171.849014 124.604442,171.849014 C125.067426,171.849014 126.116856,172.161637 126.116856,172.161637 C126.610706,172.380473 126.981093,172.786884 127.166287,173.287081 Z" id="Shape" fill="#51222B"></path>
                    <path d="M124.573576,297.711144 L124.573576,310.935108 L123.740205,316.874951 L8.76583144,316.874951 L10.0930524,305.526726 L13.55,289.614201 L19.4144647,273.138955 L19.6305239,272.701282 C21.0194761,269.825148 22.8714123,267.230375 25.0937358,264.948225 L25.3406606,264.698126 C26.4209567,263.603945 27.5629841,262.634813 28.8284738,261.759467 L36.6374715,256.319822 C37.4399772,255.757101 38.3042141,255.256903 39.1993166,254.819231 L52.2863326,248.441716 L65.1572893,243.377219 L79.201139,237.531164 L77.873918,241.90789 C77.7504556,242.283037 77.5961276,242.689448 77.4109339,243.033333 L72.4107062,252.036884 L77.1022779,248.848126 C77.5035308,248.566765 77.873918,248.254142 78.2443052,247.941519 L80.6826879,245.628107 C80.8987472,245.440533 81.0530752,245.221696 81.145672,244.940335 L82.6580866,241.126331 C82.8432802,240.657396 83.1828018,240.219724 83.6149203,239.938363 L86.207631,238.250197 L87.7817768,239.063018 C90.9917995,242.220513 94.1092255,245.53432 96.5476082,249.348323 C98.276082,252.068146 99.6650342,255.006805 101.578702,257.63284 C104.418337,261.540631 108.307403,264.47929 112.227335,267.261637 L112.597722,267.730572 L118.215262,273.107692 L119.882005,275.264793 C121.67221,277.578205 122.937699,280.235503 123.616743,283.080375 L124.573576,287.113215 L124.573576,297.711144 Z M120.036333,283.01785 C120.036333,280.704438 118.832574,278.828698 117.320159,278.828698 C115.807745,278.828698 114.603986,280.704438 114.603986,283.01785 C114.603986,285.331262 115.807745,287.207002 117.320159,287.207002 C118.832574,287.17574 120.036333,285.3 120.036333,283.01785 Z" id="Shape" fill="#777475"></path>
                    <ellipse id="Oval" fill="#998D93" cx="117.351025" cy="283.01785" rx="2.71617312" ry="4.18915187"></ellipse>
                    <path d="M109.94328,264.635602 L112.165604,267.324162 C108.245672,264.510552 104.387472,261.571893 101.51697,257.695365 C99.603303,255.100592 98.2143508,252.130671 96.485877,249.410848 C94.0474943,245.596844 90.9609339,242.283037 87.7200456,239.125542 L104.912187,248.191617 L106.301139,255.88215 L106.887585,258.539448 C107.443166,260.759073 108.492597,262.884911 109.94328,264.635602 Z" id="Shape" fill="#4F484B"></path>
                    <path d="M109.202506,175.194083 L109.202506,175.663018 C109.202506,175.788067 109.140774,175.913116 109.079043,175.975641 C109.017312,176.038166 108.924715,176.10069 108.832118,176.10069 C108.245672,176.163215 107.165376,176.257002 107.041913,176.22574 C106.640661,176.163215 106.332005,176.10069 106.08508,176.069428 C105.930752,176.038166 105.776424,176.038166 105.59123,176.006903 C105.31344,175.944379 105.09738,175.881854 104.973918,175.819329 C104.418337,175.600493 104.017084,175.162821 103.955353,174.693886 C103.893622,173.94359 104.665262,173.41213 104.850456,173.287081 C104.850456,173.287081 105.189977,173.068245 106.764123,172.755621 C107.165376,172.755621 108.183941,173.318343 108.183941,173.318343 C108.307403,173.443393 109.202506,174.912722 109.202506,175.194083 Z" id="Shape" fill="#51222B"></path>
                    <path d="M87.7509112,239.125542 L86.1767654,238.312722 L86.1767654,230.684714 C86.1767654,226.620611 86.8558087,222.587771 88.2138952,218.742505 L90.5596811,212.021105 C90.6214123,211.833531 90.9300683,211.302071 91.0843964,211.458383 C91.0843964,211.458383 91.0843964,211.458383 91.0843964,211.458383 L91.115262,211.55217 C91.115262,211.55217 91.115262,211.55217 91.115262,211.55217 L92.1646925,224.369724 C92.1646925,224.369724 93.214123,233.71716 93.214123,234.404931 C93.214123,235.092702 94.8191344,240.000888 94.8191344,240.000888 L96.8871298,243.033333 L104.943052,248.160355 L87.7509112,239.125542 Z" id="Shape" fill="#4F484B"></path>
                    <path d="M99.8502278,128.67574 C100.374943,128.957101 100.683599,129.582347 100.498405,130.207594 C100.344077,130.770316 99.7884966,131.145464 99.2020501,131.145464 L98.1526196,131.145464 C97.9982916,131.145464 97.8130979,131.114201 97.6587699,131.051677 L91.3004556,128.488166 C91.26959,128.488166 91.2387244,128.456903 91.1769932,128.456903 L81.9173121,125.705819 C81.2074032,125.486982 80.4666287,125.361933 79.7567198,125.299408 L72.3181093,124.611637 C72.2563781,124.611637 72.2255125,124.611637 72.1637813,124.611637 C71.9785877,124.611637 71.8242597,124.642899 71.6390661,124.705424 C70.867426,124.955523 70.1266515,125.299408 69.4167426,125.705819 C68.7068337,126.112229 68.0277904,126.581164 67.4104784,127.112623 C67.3796128,127.143886 67.3178815,127.175148 67.2870159,127.20641 C66.6697039,127.612821 65.805467,127.362722 65.4659453,126.674951 L65.4042141,126.581164 C65.3116173,126.39359 65.2498861,126.174753 65.2498861,125.955917 C65.2498861,124.955523 65.5276765,123.986391 66.0832574,123.142308 L66.114123,123.079783 C66.4845103,122.735897 66.8240319,122.392012 67.1635535,122.016864 L68.2438497,121.29783 C70.4044419,119.859763 72.9045558,119.078205 75.4972665,119.078205 C75.6515945,119.078205 75.8059226,119.078205 75.929385,119.078205 C77.3183371,119.171992 78.5220957,119.359566 79.5406606,119.609665 C79.6332574,119.609665 89.8189066,122.392012 89.8189066,122.392012 C92.1029613,123.361144 92.7202733,124.392801 94.7882688,125.893393 C95.2203872,126.206016 96.794533,127.33146 99.0785877,128.331854 C99.4181093,128.488166 99.6958998,128.581953 99.8502278,128.67574 Z" id="Shape" fill="#4F3508"></path>
                    <path d="M97.9365604,141.993491 L95.6216401,142.806312 L92.8437358,143.900493 C92.7820046,143.931755 92.7202733,143.963018 92.6276765,143.963018 L90.0658314,144.744576 C89.4176538,144.963412 88.7077449,145.057199 88.0287016,145.057199 L87.7509112,145.057199 L87.7509112,144.994675 C90.1892938,144.994675 92.1646925,143.18146 92.1646925,140.961834 C92.1646925,138.742209 90.1892938,136.928994 87.7509112,136.928994 L87.7509112,136.74142 C87.9361048,136.74142 88.0904328,136.74142 88.2447608,136.772682 C88.8003417,136.803945 89.3250569,136.835207 89.8806378,136.866469 C90.8066059,136.866469 91.732574,137.085306 92.5659453,137.491716 C92.8437358,137.616765 93.0906606,137.773077 93.3375854,137.929389 L94.4487472,138.679684 C94.85,138.929783 95.1895216,139.242406 95.5290433,139.586292 L96.485877,140.617949 L97.9365604,141.993491 Z" id="Shape" fill="#EAE8C7"></path>
                    <path d="M94.0987596,193.587784 L94.3323803,194.110886 C93.9430125,193.797025 93.7093918,193.535474 93.5536446,193.326233 L94.0987596,193.587784 Z" id="Shape" fill="#EFC36A"></path>
                    <polygon id="Shape" fill="#D8717B" points="94.020886 193.326233 94.0987596 193.718559 93.5536446 193.326233"></polygon>
                    <path d="M87.7200456,136.928994 C90.1584282,136.928994 92.1338269,138.742209 92.1338269,140.961834 C92.1338269,143.18146 90.1584282,144.994675 87.7200456,144.994675 C85.2816629,144.994675 83.3062642,143.18146 83.3062642,140.961834 C83.3062642,138.742209 85.2816629,136.928994 87.7200456,136.928994 Z M88.3373576,141.149408 C88.5225513,140.930572 88.5534169,140.586686 88.3990888,140.305325 C88.2138952,139.96144 87.843508,139.867653 87.7200456,139.836391 C87.1953303,139.742604 86.7940774,140.023964 86.7014806,140.086489 C86.670615,140.149014 86.6397494,140.211538 86.6397494,140.336588 C86.6397494,140.430375 86.670615,140.524162 86.7014806,140.711736 C86.7632118,140.993097 86.7632118,141.086884 87.1335991,141.211933 C87.68918,141.368245 88.0904328,141.430769 88.3373576,141.149408 Z" id="Shape" fill="#35290B"></path>
                    <path d="M90.5596811,211.989842 L88.2138952,218.711243 C86.8866743,222.556509 86.1767654,226.589349 86.1767654,230.653452 L86.1767654,238.28146 L83.5840547,239.969625 C83.1519362,240.250986 82.8124146,240.657396 82.627221,241.157594 L81.1148064,244.971598 C81.0222096,245.221696 80.8678815,245.440533 80.6518223,245.659369 L78.2134396,247.972781 C77.873918,248.316667 77.4726651,248.62929 77.0714123,248.879389 L72.3798405,252.068146 L77.3800683,243.064596 C77.565262,242.72071 77.7504556,242.345562 77.8430524,241.939152 L79.1702733,237.562426 L81.145672,231.091124 L82.5346241,226.901972 C84.1087699,222.118836 86.4236902,217.617061 89.3867882,213.552959 L90.5596811,211.989842 Z" id="Shape" fill="#4F484B"></path>
                    <path d="M87.7200456,136.772682 L87.7200456,136.960256 C85.2816629,136.960256 83.3062642,138.773471 83.3062642,140.993097 C83.3062642,143.212722 85.2816629,145.025937 87.7200456,145.025937 L87.7200456,145.088462 L86.0841686,145.088462 L84.9112756,145.088462 C84.2939636,145.088462 83.7075171,144.994675 83.1210706,144.807101 L81.5777904,144.338166 C81.2691344,144.244379 80.991344,144.119329 80.7135535,143.931755 L79.7567198,143.306509 C79.3246014,143.025148 78.9542141,142.712525 78.6146925,142.337377 L78.0591116,141.71213 C77.8121868,141.430769 77.71959,141.055621 77.8121868,140.680473 L77.873918,140.36785 C77.9973804,139.898915 78.2443052,139.461243 78.6146925,139.117357 L78.7072893,139.02357 C79.0776765,138.710947 79.4480638,138.429586 79.8801822,138.242012 L80.3123007,138.023176 C80.6518223,137.835602 81.0222096,137.710552 81.3925968,137.616765 L82.627221,137.27288 C83.2136674,137.116568 83.9853075,136.928994 84.6334852,136.897732 C85.2199317,136.866469 86.8866743,136.772682 86.9175399,136.772682 C86.9175399,136.772682 87.0101367,136.772682 87.1027335,136.772682 C87.3496583,136.772682 87.5348519,136.772682 87.7200456,136.772682 Z" id="Shape" fill="#EAE8C7"></path>
                </g>
                <g id="Group" stroke="#000000" stroke-width="0.1">
                    <path d="M188.835763,29.792998 C184.051595,32.7941815 179.606948,37.8274162 175.100569,38.671499 C173.649886,38.95286 172.199203,38.765286 170.717654,37.9837278 C158.278815,31.1372781 146.951139,25.1349112 149.296925,19.195069 C151.85877,12.7550296 156.519476,7.00276134 155.778702,0.0937869822 C152.13656,0.812820513 149.32779,3.78274162 147.290661,6.94023669 C145.253531,10.0977318 143.679385,13.5991124 141.11754,16.3189349 C138.555695,19.0387574 134.574032,20.8832347 131.086219,19.570217 C127.598405,18.2571992 132.598633,9.72258383 128.987358,10.5666667 C118.400456,13.0676529 109.325968,11.1293886 102.50467,2.59477318 C102.01082,1.96952663 104.202278,8.34704142 102.967654,9.12859961 C102.628132,9.3474359 102.381207,3.72021696 101.979954,3.72021696 C97.7513667,3.56390533 92.9363326,0.84408284 89.7571754,4.00157791 C88.7386105,5.00197239 88.1830296,6.37751479 87.997836,7.78431953 C87.4422551,12.1610454 88.1830296,16.6628205 90.0349658,20.6331361 C90.9609339,21.7585799 91.0535308,23.4780079 90.2818907,24.6972387 C87.5348519,26.447929 83.4914579,25.6663708 81.6395216,22.9778107 C80.4666287,21.289645 80.0345103,18.9449704 78.2751708,17.8820513 C77.2874715,17.2880671 76.1145786,17.2255424 75.0034169,16.9441815 C69.9723235,15.7249507 67.1326879,10.410355 64.9412301,5.65848126 C62.3485194,8.25325444 63.9843964,12.6299803 65.6202733,15.9125247 C67.2561503,19.195069 68.4907745,23.8531558 65.5585421,26.0102564 C64.0769932,27.1044379 62.1015945,27.0419132 60.2805239,27.4170611 C54.4160592,28.6362919 50.5269932,35.7328402 52.6258542,41.4225838 C38.4276765,39.9845168 23.7665148,48.5503945 17.8711845,61.7118343 C23.3343964,54.7715976 34.6312073,53.6148915 41.3599089,59.3046351 C37.8720957,59.9298817 34.1373576,60.6801775 31.6063781,63.212426 C29.0753986,65.7446746 28.6432802,70.6841223 31.6372437,72.5911243 C23.4887244,74.4981262 14.5376993,67.4015779 14.4142369,58.9294872 C12.6548975,69.5274162 16.1427107,80.8443787 23.51959,88.5661736 C21.9454442,93.4430966 20.2169704,98.538856 16.4822323,102.008974 C12.7166287,105.44783 6.23485194,106.416963 2.80876993,102.665483 L0.185193622,107.948817 C5.061959,105.885503 10.9881549,106.667061 15.1550114,109.918343 C8.76583144,111.794083 3.27175399,116.639744 0.586446469,122.798422 C0.246924829,123.548718 0.33952164,124.455325 0.864236902,125.080572 C1.79020501,126.206016 3.30261959,125.580769 4.41378132,124.92426 C11.1733485,120.985207 17.9329157,117.077416 24.6924829,113.138363 C26.791344,116.85858 23.982574,121.579191 20.5256264,124.048915 C17.0686788,126.518639 12.8092255,128.019231 10.1547836,131.3643 C7.28428246,134.99073 6.91389522,140.211538 8.21025057,144.682051 C9.50660592,149.152564 12.222779,153.060355 15.0624146,156.74931 C11.451139,145.557396 15.8957859,139.242406 24.0751708,130.895365 C26.945672,133.740237 42.0698178,135.428402 38.5202733,137.27288 C18.2107062,147.714497 26.6987472,158.249901 43.4279043,169.348028 C45.2181093,170.535996 46.1749431,172.849408 48.2429385,173.41213 C49.6627563,173.81854 51.2060364,173.537179 52.6567198,173.81854 C54.354328,174.162426 55.8050114,175.194083 57.1939636,176.22574 C65.3733485,182.478205 72.5958998,190.012426 78.4603645,198.515779 C80.7135535,201.798323 84.2013667,205.674852 87.8126424,204.080473" id="Shape"></path>
                    <path d="M188.835763,29.792998 C190.934624,28.9176529 193.064351,28.167357 195.194077,27.5108481 C193.00262,27.6046351 190.872893,28.5112426 188.835763,29.792998 Z" id="Shape"></path>
                    <path d="M87.7200456,204.111736 C87.5348519,203.861637 63.7374715,171.66144 62.2559226,151.591026 C61.6694761,143.650394 62.842369,135.678501 62.2559226,127.769132 C61.8238041,122.204438 60.5274487,116.639744 61.2373576,111.075049 C62.6571754,100.039448 71.7933941,91.5360947 81.6703872,86.5966469 C84.9730068,84.9397436 89.1707289,83.6579882 92.1029613,85.9088757 C90.2818907,87.6595661 92.5968109,90.8795858 95.0660592,91.2547337 C97.5661731,91.6298817 100.066287,90.5669625 102.566401,90.9108481 C105.251708,91.2547337 107.443166,93.1617357 109.881549,94.4122288 C112.319932,95.6314596 115.684282,96.0378698 117.381891,93.8807692 C126.178588,99.0390533 137.105011,100.352071 146.858542,97.4759369 C149.019134,96.8506903 151.241458,96.0066075 153.40205,96.6005917 C155.068793,97.0382643 156.396014,98.2262327 157.784966,99.2266272 C160.933257,101.508777 164.667995,102.915582 168.49533,103.29073 C171.242369,107.823767 173.279499,112.82574 174.483257,118.015286 C175.038838,119.359566 175.594419,120.703846 176.088269,122.110651 C178.773576,129.89497 178.804442,138.335799 178.804442,146.589053 C178.804442,146.745365 178.804442,146.901677 178.804442,147.057988 C178.804442,162.626627 178.711845,178.195266 178.557517,193.763905 C178.557517,194.451677 178.557517,195.108185 178.526651,195.795957 C178.526651,196.9214 178.835308,198.015582 179.421754,198.984714 C180.440319,200.610355 181.674943,202.079684 183.063895,203.392702 C185.193622,205.424753 188.496241,205.549803 190.780296,203.705325 C195.070615,200.235207 198.836219,196.10858 201.891913,191.481755 C206.645216,193.326233 212.386219,192.388363 216.30615,189.074556 C220.226082,185.76075 222.170615,180.227318 221.213781,175.131558 C220.781663,172.786884 220.071754,169.754438 222.078018,168.566469 C224.547267,167.128402 227.04738,170.942406 226.4918,173.756016 C225.936219,176.600888 224.022551,179.226923 224.423804,182.071795 C229.609226,172.192899 233.251367,161.469921 235.1959,150.465582 L229.454897,161.344872 C227.356036,155.842702 227.170843,149.590237 228.899317,143.963018 C233.683485,141.493294 236.307062,135.39714 234.825513,130.176331 C233.560023,132.083333 232.850114,134.334221 232.788383,136.647633 C232.634055,132.427219 233.776082,128.175542 236.060137,124.642899 C236.24533,122.954734 235.072437,121.235306 233.467426,120.766371 C235.041572,120.0786 236.121868,118.327909 236.029271,116.608481 L229.670957,118.671795 C231.090774,114.638955 233.343964,110.918738 236.214465,107.761243 L222.880524,112.137968 C225.257175,110.856213 225.257175,107.354832 224.300342,104.791321 C223.343508,102.227811 221.738497,99.7580868 222.016287,97.0382643 C222.108884,96.1941815 222.355809,95.3813609 222.263212,94.5372781 C221.954556,92.0675542 218.806264,91.0984221 216.367882,91.4423077 C213.929499,91.7861933 211.398519,92.7553254 209.083599,91.8799803 C206.768679,91.0046351 205.966173,86.8780079 208.37369,86.315286 L204.083371,83.1265286 C206.676082,82.0948718 209.762642,82.4700197 212.046697,84.0956607 C214.454214,82.4387574 211.614579,78.5622288 208.744077,78.0307692 C205.873576,77.530572 202.324032,77.9369822 200.595558,75.529783 C199.823918,74.4356016 199.66959,72.9975345 198.89795,71.9033531 C197.508998,69.9025641 194.700228,69.7775148 192.447039,68.8709073 C191.644533,68.558284 190.934624,68.1206114 190.317312,67.5891519 C188.341913,65.9322485 208.157631,63.4 216.707403,59.9298817 C217.942027,59.4296844 224.855923,57.3351085 224.855923,56.9599606 C224.855923,56.616075 218.621071,57.1787968 216.861731,56.9912229 C207.1082,55.9283037 189.298747,63.2436884 190.780296,61.8368836 C192.230979,60.4926036 186.273918,57.866568 187.817198,55.1467456 C189.483941,52.3018738 198.651025,49.3944773 200.657289,48.8317554 C204.546355,47.7688363 208.744077,45.4241617 209.36139,41.3913215 C201.552392,39.1091716 195.379271,48.6129191 187.508542,50.6137081 C186.706036,50.8325444 185.8418,50.9263314 185.070159,50.6449704 C184.175057,50.3323471 183.526879,49.5195266 182.940433,48.7692308 C180.316856,45.4241617 177.69328,42.0478304 175.100569,38.7027613 C174.853645,38.3901381 174.637585,38.1087771 174.390661,37.7961538 C178.866173,34.6073964 183.712073,31.9188363 188.804897,29.8242604" id="Shape"></path>
                    <path d="M66.1758542,123.048521 L66.1449886,123.111045 C65.5894077,123.955128 65.3116173,124.92426 65.3116173,125.924655 C65.3116173,126.143491 65.3733485,126.362327 65.4659453,126.549901 L65.5276765,126.643688 C65.8671982,127.300197 66.7314351,127.581558 67.3487472,127.175148 C67.4104784,127.143886 67.441344,127.112623 67.4722096,127.081361 C68.0895216,126.549901 68.7685649,126.080966 69.4784738,125.674556 C70.1883827,125.268146 70.9291572,124.92426 71.7007973,124.674162 C71.8551253,124.611637 72.0403189,124.580375 72.2255125,124.580375 C72.2563781,124.580375 72.3181093,124.580375 72.3798405,124.580375 L79.818451,125.268146 C80.5592255,125.330671 81.3,125.486982 81.9790433,125.674556 L91.2387244,128.425641 C91.26959,128.425641 91.3004556,128.456903 91.3621868,128.456903 L97.7205011,131.020414 C97.8748292,131.082939 98.0291572,131.114201 98.2143508,131.114201 L99.2637813,131.114201 C99.8502278,131.114201 100.405809,130.739053 100.560137,130.176331 C100.714465,129.551085 100.436674,128.925838 99.911959,128.644477 C99.7267654,128.581953 99.4798405,128.456903 99.2020501,128.331854 C96.9179954,127.300197 95.3438497,126.174753 94.9117312,125.893393 C92.8437358,124.392801 92.2264237,123.392406 89.942369,122.392012 C89.942369,122.392012 79.7875854,119.609665 79.664123,119.609665 C78.6455581,119.359566 77.4109339,119.171992 76.0528474,119.078205 C75.929385,119.078205 75.7750569,119.078205 75.6207289,119.078205 C73.0280182,119.046943 70.5279043,119.859763 68.3673121,121.29783 L67.2870159,122.016864 C66.8548975,122.36075 66.5153759,122.704635 66.1758542,123.048521 Z" id="Shape"></path>
                    <path d="M125.746469,126.518639 L124.882232,127.73787 C124.666173,128.050493 124.635308,128.425641 124.727904,128.769527 C124.974829,129.519822 125.684738,130.02002 126.425513,130.02002 C126.518109,130.02002 126.641572,130.02002 126.734169,129.988757 C127.228018,129.89497 127.721868,129.707396 128.153986,129.457298 C129.419476,128.67574 132.135649,127.081361 132.382574,127.018836 C132.69123,126.925049 140.376765,123.70503 140.376765,123.70503 L147.01287,120.953945 L150.994533,119.54714 C151.519248,119.359566 152.105695,119.265779 152.661276,119.265779 L155.871298,119.265779 L156.334282,119.328304 C157.167654,119.609665 157.630638,119.203254 158.124487,118.452959 C158.155353,118.390434 158.155353,118.359172 158.155353,118.296647 C158.155353,118.234122 158.155353,118.20286 158.124487,118.140335 L157.599772,117.233728 C157.352847,116.827318 156.98246,116.483432 156.550342,116.32712 L153.865034,115.232939 L151.179727,114.545168 C150.408087,114.357594 149.605581,114.357594 148.864806,114.57643 L145.037472,115.639349 C144.852278,115.701874 144.667084,115.764398 144.481891,115.858185 L139.543394,118.234122 L132.814692,121.641716 L129.11082,123.798817 C128.987358,123.861341 128.83303,123.955128 128.709567,124.080178 L126.116856,126.174753 C125.993394,126.206016 125.869932,126.362327 125.746469,126.518639 Z" id="Shape"></path>
                    <path d="M87.7200456,145.057199 L86.0841686,145.057199 L84.9112756,145.057199 C84.2939636,145.057199 83.7075171,144.963412 83.1210706,144.775838 L81.5777904,144.306903 C81.2691344,144.213116 80.991344,144.088067 80.7135535,143.900493 L79.7567198,143.275247 C79.3246014,142.993886 78.9542141,142.681262 78.6146925,142.306114 L78.0591116,141.680868 C77.8121868,141.399507 77.71959,141.024359 77.8121868,140.649211 L77.873918,140.336588 C77.9973804,139.867653 78.2443052,139.42998 78.6146925,139.086095 L78.7072893,138.992308 C79.0776765,138.679684 79.4480638,138.398323 79.8801822,138.21075 L80.3123007,137.991913 C80.6518223,137.804339 81.0222096,137.67929 81.3925968,137.585503 L82.627221,137.241617 C83.2136674,137.085306 83.9853075,136.897732 84.6334852,136.866469 C85.2199317,136.835207 86.8866743,136.74142 86.9175399,136.74142 C86.9175399,136.74142 87.0101367,136.74142 87.1027335,136.74142 C87.2879271,136.74142 87.4731207,136.74142 87.6583144,136.74142 C87.843508,136.74142 87.997836,136.74142 88.152164,136.772682 C88.7077449,136.803945 89.2324601,136.835207 89.788041,136.866469 C90.7140091,136.866469 91.6399772,137.085306 92.4733485,137.491716 C92.751139,137.616765 92.9980638,137.773077 93.2449886,137.929389 L94.3561503,138.679684 C94.7574032,138.929783 95.0969248,139.242406 95.4364465,139.586292 L96.3932802,140.617949 L97.8439636,141.993491 L95.5290433,142.806312 L92.751139,143.900493 C92.6894077,143.931755 92.6276765,143.963018 92.5350797,143.963018 L89.9732346,144.744576 C89.3250569,144.963412 88.6151481,145.057199 87.9361048,145.057199 L87.7200456,145.057199 Z" id="Shape"></path>
                    <ellipse id="Oval" cx="87.7200456" cy="140.961834" rx="4.44464692" ry="4.03284024"></ellipse>
                    <path d="M144.481891,141.962229 C144.234966,141.993491 143.988041,141.993491 143.741116,141.993491 C143.679385,141.993491 143.648519,141.993491 143.586788,141.993491 L142.259567,141.993491 L139.142141,141.993491 C138.864351,141.993491 138.617426,141.962229 138.339636,141.930966 L135.654328,141.462032 C135.253075,141.399507 134.851822,141.30572 134.450569,141.180671 C133.740661,140.961834 132.567768,140.586686 132.475171,140.555424 C132.320843,140.492899 131.271412,139.992702 131.364009,139.898915" id="Shape"></path>
                    <path d="M131.394875,139.836391 C131.610934,139.617554 132.722096,138.554635 132.722096,138.554635 L134.111048,137.241617 C134.141913,137.210355 134.172779,137.179093 134.203645,137.14783 C134.419704,136.960256 134.666629,136.772682 134.913554,136.647633 L136.796355,135.553452 L138.956948,134.084122 C139.327335,133.834024 139.759453,133.615187 140.191572,133.458876 L141.673121,132.896154 C141.981777,132.771105 142.321298,132.677318 142.66082,132.583531 C142.876879,132.521006 143.062073,132.489744 143.278132,132.458481 L144.574487,132.208383 C145.623918,132.020809 146.673349,131.989546 147.722779,132.145858 L148.957403,132.30217 C149.945103,132.427219 150.932802,132.739842 151.827904,133.240039 L153.185991,133.990335 C153.679841,134.240434 154.111959,134.58432 154.513212,134.99073 L154.729271,135.209566 C154.420615,136.366272 153.834169,137.429191 153.062528,138.335799 C152.63041,138.835996 152.105695,139.273669 151.519248,139.586292 L150.685877,140.055227 C150.284624,140.274063 149.82164,140.492899 149.389522,140.649211 L147.414123,141.368245 L147.259795,141.430769 C146.395558,141.743393 145.46959,141.899704 144.543622,141.993491" id="Shape"></path>
                    <path d="M142.66082,132.70858 C143.062073,132.614793 143.463326,132.552268 143.895444,132.552268 C146.611617,132.552268 148.833941,134.678107 148.833941,137.27288 C148.833941,139.680079 146.951139,141.649606 144.512756,141.962229 C144.512756,141.962229 144.512756,141.962229 144.481891,141.962229 C144.296697,141.993491 144.080638,141.993491 143.895444,141.993491 C143.833713,141.993491 143.802847,141.993491 143.771982,141.993491 C141.11754,141.930966 138.987813,139.836391 138.987813,137.27288 C138.956948,135.084517 140.531093,133.240039 142.66082,132.70858 Z" id="Shape"></path>
                    <path d="M177.538952,197.265286 L179.082232,201.954635 C181.644077,205.549803 183.372551,209.770217 186.551708,213.615483 L186.736902,213.928107 C188.588838,217.085602 189.545672,220.712032 189.545672,224.369724 C189.545672,225.52643 189.391344,226.651874 189.082688,227.714793 C188.774032,228.808974 188.341913,229.840631 187.755467,230.809763 L185.286219,234.905128 C184.298519,236.562032 183.403417,238.28146 182.662642,240.063412 L179.73041,246.972387 C178.95877,248.816864 177.971071,250.598817 176.829043,252.25572 L171.334966,260.258876 L164.421071,253.006016 L158.402278,246.440927 C156.581207,244.440138 154.513212,242.689448 152.290888,241.220118 L146.457289,237.406114 C144.790547,236.311933 142.815148,235.780473 140.839749,235.87426 L140.098975,235.905523" id="Shape"></path>
                    <path d="M103.677563,177.44497 L103.368907,177.44497 C102.381207,177.44497 101.455239,177.03856 100.807062,176.288264 L100.621868,176.10069 C100.189749,175.631755 99.9736902,175.006509 99.9736902,174.381262 L99.9736902,171.536391 C99.9736902,170.848619 100.560137,168.191321 100.560137,168.191321 C100.96139,166.628205 103.739294,162.001381 103.801025,161.845069 C103.801025,161.845069 105.159112,158.750099 105.31344,158.031065 C105.31344,158.031065 105.992483,154.498422 105.992483,153.904438 L105.992483,149.3714 C105.992483,149.3714 105.930752,144.713314 105.807289,144.056805 C105.807289,144.056805 104.881321,139.773866 104.480068,138.961045 L102.967654,135.834813" id="Shape"></path>
                    <path d="M106.733257,172.786884 C107.13451,172.786884 108.153075,173.349606 108.153075,173.349606 C108.307403,173.443393 109.202506,174.912722 109.202506,175.194083 L109.202506,175.663018 C109.202506,175.788067 109.140774,175.913116 109.079043,175.975641 C109.017312,176.038166 108.924715,176.10069 108.832118,176.10069 C108.245672,176.163215 107.165376,176.257002 107.041913,176.22574 C106.640661,176.163215 106.332005,176.10069 106.08508,176.069428 C105.930752,176.038166 105.776424,176.038166 105.59123,176.006903 C105.31344,175.944379 105.09738,175.881854 104.973918,175.819329 C104.418337,175.600493 104.017084,175.162821 103.955353,174.693886 C103.893622,173.94359 104.665262,173.41213 104.850456,173.287081 C104.81959,173.318343 105.159112,173.099507 106.733257,172.786884 Z" id="Shape"></path>
                    <path d="M120.036333,174.068639 L120.746241,173.318343 C121.116629,172.974458 121.826538,172.442998 122.814237,172.130375 C123.524146,171.911538 124.141458,171.880276 124.604442,171.880276 C125.067426,171.880276 126.116856,172.192899 126.116856,172.192899 C126.610706,172.380473 126.981093,172.786884 127.135421,173.287081 C127.135421,173.287081 127.289749,174.224951 126.950228,174.600099 C126.734169,174.818935 126.332916,175.162821 125.746469,175.381657 C125.005695,175.663018 124.388383,175.600493 124.079727,175.537968 C123.740205,175.506706 123.400683,175.475444 123.061162,175.412919 C122.659909,175.350394 122.320387,175.28787 122.320387,175.28787 C121.67221,175.162821 121.085763,174.88146 120.561048,174.475049 L120.036333,174.068639 Z" id="Shape"></path>
                    <path d="M127.042825,177.007298 L127.536674,177.007298 C128.215718,177.007298 128.894761,176.788462 129.419476,176.382051 L130.129385,175.819329 C130.345444,175.663018 130.530638,175.444181 130.684966,175.194083 L131.302278,174.193688 C131.672665,173.599704 131.857859,172.911933 131.857859,172.192899 L131.857859,170.629783 C131.857859,170.442209 131.857859,170.254635 131.826993,170.098323 L131.610934,168.691519 C131.518337,168.097535 129.635535,164.908777 129.635535,164.908777 C129.203417,164.502367 128.771298,164.064694 128.33918,163.627022 C127.721868,163.001775 127.166287,162.407791 126.641572,161.813807 C126.147722,161.157298 125.684738,160.469527 125.190888,159.781755 C124.882232,159.281558 124.604442,158.750099 124.419248,158.187377 C123.771071,156.249112 123.153759,154.06075 122.598178,151.65355 C122.073462,149.3714 121.733941,147.245562 121.487016,145.307298 C121.425285,145.057199 121.394419,144.775838 121.332688,144.494477 C121.301822,144.213116 121.270957,143.931755 121.240091,143.681657 L121.024032,141.680868 C120.900569,140.492899 120.900569,139.336193 121.054897,138.148225 C121.147494,137.366667 121.240091,136.585108 121.332688,135.80355" id="Shape"></path>
                    <path d="M93.5536446,193.326233 L93.7388383,193.326233 L100.035421,193.732643 C100.899658,193.763905 101.73303,193.732643 102.566401,193.638856 C102.566401,193.638856 107.474032,192.857298 108.646925,192.88856 C109.542027,192.732249 111.887813,193.357495 112.875513,193.326233 C113.647153,193.326233 115.746014,192.982347 116.455923,192.951085 C118.060934,192.88856 119.727677,193.076134 120.344989,193.013609 C123.863667,192.638462 125.067426,192.388363 125.067426,192.388363 C126.981093,192.232051 129.913326,192.294576 131.734396,192.857298 C133.925854,193.513807 136.240774,193.638856 138.493964,193.326233 L138.987813,193.263708 C139.697722,193.169921 140.438497,193.013609 141.11754,192.826036 L143.216401,192.325838 L136.858087,195.201972 C135.561731,195.795957 129.542938,197.015187 129.542938,197.015187 C128.709567,197.140237 117.783144,197.890533 117.783144,197.890533 C117.258428,197.890533 107.227107,198.203156 105.992483,198.109369 C105.992483,198.109369 102.813326,197.609172 100.158884,197.077712 C98.2452164,196.702564 96.4241458,195.827219 94.9425968,194.514201 L93.7388383,193.576331 L93.5536446,193.326233" id="Shape"></path>
                    <path d="M93.7079727,193.263708 L93.7388383,193.357495 L93.8005695,193.513807 L93.8931663,193.82643 L94.3870159,195.57712 C94.9117312,197.609172 96.640205,198.984714 97.967426,200.641617 L102.257745,204.080473 C102.597267,204.486884 103.801025,205.205917 105.251708,205.924951 C106.455467,206.550197 107.319704,206.769034 108.646925,206.98787 C109.788952,207.175444 111.70262,207.488067 113.647153,207.706903 C113.770615,207.738166 116.918907,208.050789 120.344989,207.425542 C124.079727,206.737771 128.555239,205.549803 128.555239,205.549803 C132.69123,203.986686 143.401595,192.982347 143.555923,192.419625 C143.555923,192.419625 143.494191,192.450888 143.463326,192.48215 C143.278132,192.607199 142.93861,192.826036 142.907745,192.826036 L141.39533,194.076529 L137.567995,196.577515 C136.950683,197.015187 135.191344,197.98432 134.512301,198.296943 C134.512301,198.296943 128.153986,199.891321 125.653872,200.454043 C122.44385,201.173077 124.480979,200.829191 119.91287,201.454438 C119.110364,201.516963 115.406492,202.173471 113.2459,201.860848 L106.517198,201.454438 C101.023121,200.391519 95.3438497,195.670907 93.8931663,193.82643 C93.7388383,193.638856 93.6462415,193.482544 93.5845103,193.357495" id="Shape"></path>
                    <path d="M109.079043,176.006903 L109.202506,176.10069 C109.449431,176.257002 109.788952,176.382051 110.066743,176.413314 C110.529727,176.475838 110.961845,176.694675 111.301367,177.03856 C111.671754,177.413708 112.073007,177.757594 112.535991,178.038955 L113.122437,178.414103 C113.461959,178.632939 113.894077,178.757988 114.29533,178.726726 L114.357062,178.726726 C114.912642,178.695464 115.468223,178.50789 115.962073,178.226529 L116.425057,177.945168 C116.610251,177.820118 116.795444,177.663807 116.949772,177.507495 L117.783144,176.538363 C118.030068,176.257002 118.215262,175.913116 118.36959,175.537968 L118.64738,175.006509 C118.64738,175.006509 118.64738,175.006509 118.64738,175.006509 C118.832574,174.631361 119.172096,174.381262 119.573349,174.256213 L120.036333,174.099901" id="Shape"></path>
                    <polyline id="Shape" points="91.0535308 211.458383 90.7140091 210.676824 87.7200456 204.111736"></polyline>
                    <path d="M91.7145064,212.449008 L91.0535308,211.458383" id="Shape"></path>
                    <path d="M91.115262,211.55217 L92.1646925,224.369724 C92.1646925,224.369724 93.214123,233.71716 93.214123,234.404931 C93.214123,235.092702 94.8191344,240.000888 94.8191344,240.000888 L96.8871298,243.033333 L104.943052,248.160355 L106.332005,255.850888 L106.918451,258.508185 C107.443166,260.759073 108.461731,262.853649 109.94328,264.635602 L112.165604,267.324162 L112.535991,267.793097 L118.153531,273.170217 L121.517882,262.415976 L125.900797,250.286193 L127.598405,244.909073 C127.691002,244.59645 127.84533,244.346351 128.030524,244.06499 C129.11082,242.595661 130.407175,241.313905 131.857859,240.250986 C133.308542,239.188067 134.913554,238.343984 136.642027,237.781262 C137.321071,237.562426 138.000114,237.249803 138.617426,236.874655 L140.098975,235.99931 L144.821412,233.123176 L147.537585,231.466272 C150.469818,229.715582 153.093394,227.464694 155.315718,224.869921 L167.168109,211.051972 L174.328929,203.486489 C176.088269,201.735799 176.705581,200.641617 177.292027,198.234418 L177.538952,197.234024 L178.372323,193.763905 C178.372323,193.763905 178.372323,193.763905 178.372323,193.763905 C178.372323,193.670118 177.662415,195.045661 177.538952,195.17071 L168.21754,205.456016 C167.692825,206.112525 167.106378,206.706509 166.519932,207.300493 L157.723235,215.960158 C157.105923,216.554142 156.519476,217.210651 155.93303,217.86716 L149.729043,225.745266 C148.309226,227.40217 146.272096,229.090335 144.389294,230.121992 L136.796355,234.467456 C134.790091,235.592899 132.104784,235.968047 129.851595,236.311933 L125.53041,236.999704 C123.771071,237.281065 121.980866,237.406114 120.190661,237.406114 L117.567084,237.406114 C114.110137,237.406114 110.684055,236.499507 107.659226,234.780079 L107.072779,234.436193 C104.572665,232.998126 102.319476,231.153649 100.46754,228.934024 L98.2143508,226.276726 C96.0846241,223.744477 94.4487472,220.837081 93.3993166,217.710848 L92.1029613,213.83432 L91.115262,211.55217" id="Shape"></path>
                    <path d="M91.0535308,211.458383 C91.1314043,211.536848 91.1314043,211.536848 91.1314043,211.693779" id="Shape"></path>
                    <path d="M104.943052,248.160355 L87.7509112,239.09428 L86.1767654,238.28146 L86.1767654,230.653452 C86.1767654,226.589349 86.8558087,222.556509 88.2138952,218.711243 L90.5596811,211.989842 C90.6214123,211.802268 90.9300683,211.270809 91.0843964,211.42712" id="Shape"></path>
                    <path d="M86.1767654,238.312722 L83.5840547,240.000888 C83.1519362,240.282249 82.8124146,240.688659 82.627221,241.188856 L81.1148064,245.00286 C81.0222096,245.252959 80.8678815,245.471795 80.6518223,245.690631 L78.2134396,248.004043 C77.873918,248.347929 77.4726651,248.660552 77.0714123,248.910651 L72.3798405,252.099408 L77.3800683,243.095858 C77.565262,242.751972 77.7504556,242.376824 77.8430524,241.970414 L79.1702733,237.593688 L81.145672,231.122387 L82.5346241,226.933235 C84.1087699,222.150099 86.4236902,217.648323 89.3867882,213.584221 L90.5288155,212.021105" id="Shape"></path>
                    <path d="M79.201139,237.562426 L65.1572893,243.408481 L52.2863326,248.472978 L39.1993166,254.850493 C38.3042141,255.288166 37.4399772,255.788363 36.6374715,256.351085 L28.8284738,261.79073 C27.5938497,262.666075 26.4209567,263.635207 25.3406606,264.729389 L25.0937358,264.979487 C22.8714123,267.230375 21.0194761,269.85641 19.6305239,272.732544 L19.4144647,273.170217 L13.55,289.645464 L10.0930524,305.557988 L8.76583144,316.906213 L123.740205,316.906213 L124.573576,310.966371 L124.573576,297.742406 L124.573576,287.207002 L123.616743,283.174162 C122.937699,280.32929 121.67221,277.64073 119.882005,275.35858 L118.215262,273.201479" id="Shape"></path>
                    <path d="M186.551708,213.615483 L192.107517,213.865582 C194.329841,213.959369 196.552164,214.178205 198.774487,214.490828 L200.502961,214.740927 C201.737585,214.928501 202.97221,215.147337 204.175968,215.397436 L210.287358,216.710454 L215.318451,218.117258 L234.979841,224.150888 C236.986105,224.776134 238.930638,225.620217 240.720843,226.683136 C243.683941,228.433826 246.307517,230.622189 248.560706,233.1857 C250.813895,235.749211 252.634966,238.656607 253.993052,241.845365 L255.505467,245.378008 L261.956378,264.8857 L267.635649,291.302367 L270.72221,308.027712 L270.72221,315.624458 L123.709339,316.874951" id="Shape"></path>
                    <path d="M144.049772,245.378008 C144.049772,243.814892 142.290433,242.533136 140.098975,242.533136 C137.907517,242.533136 136.148178,243.814892 136.148178,245.378008 C136.148178,246.941124 137.907517,248.22288 140.098975,248.22288 C142.259567,248.22288 144.049772,246.941124 144.049772,245.378008 Z" id="Shape"></path>
                    <ellipse id="Oval" cx="117.351025" cy="283.01785" rx="2.71617312" ry="4.18915187"></ellipse>
                    <path d="M151.982232,197.421598 C150.901936,201.516963 149.420387,205.487278 147.537585,209.27002" id="Shape"></path>
                    <path d="M140.160706,144.279046 C143.308998,144.311392 146.704214,144.925959 149.420387,143.243984" id="Shape"></path>
                    <path d="M132.475171,140.524162 C131.734396,140.399112 130.438041,140.836785 130.592369,140.086489 C130.746697,139.336193 131.240547,138.742209 131.734396,138.148225 C134.481435,135.021992 137.351936,131.927022 140.963212,129.863708 C144.543622,127.800394 148.988269,126.862525 152.877335,128.269329" id="Shape"></path>
                    <path d="M73.0588838,140.89931 C77.1640091,137.304142 82.7198178,135.428402 88.1212984,135.834813 C92.2572893,136.147436 96.4550114,137.648028 98.0291572,141.524556 C97.7513667,139.742604 96.6710706,138.21075 95.4055809,136.928994 C91.3313212,132.739842 85.1273349,130.801578 79.4171982,131.927022 C78.6455581,132.083333 77.8430524,132.30217 77.2566059,132.864892" id="Shape"></path>
                    <path d="M131.364009,139.867653 C131.364009,139.867653 131.394875,139.867653 131.364009,139.867653 C132.444305,138.992308 133.277677,138.054438 134.203645,137.179093 C134.635763,136.772682 135.067882,136.366272 135.561731,135.959862 C136.76549,134.99073 137.969248,134.021598 139.296469,133.208777 C145.593052,129.426036 154.328018,130.363905 159.698633,135.39714" id="Shape"></path>
                    <path d="M84.7569476,147.558185 C87.6274487,147.183037 90.4670843,146.401479 93.1523918,145.244773" id="Shape"></path>
                    <path d="M177.971071,147.057988 C175.501822,157.405819 168.834852,170.535996 152.414351,182.790828 C152.414351,182.790828 166.735991,190.418836 156.272551,209.645168 C155.593508,210.864398 149.605581,218.80503 146.951139,221.649901 C144.327563,224.463511 141.858314,226.120414 140.901481,226.714398 C137.784055,228.683925 127.505809,231.372485 124.419248,231.622584 C121.517882,231.84142 118.64738,231.309961 115.807745,230.684714 C111.455695,229.68432 107.072779,228.371302 103.492369,225.714004 C100.498405,223.494379 98.1834852,220.461933 95.8994305,217.492012 C93.8623007,214.803452 91.7634396,212.083629 90.6522779,210.708087 C90.4362187,210.426726 90.2510251,210.20789 90.096697,210.051578" id="Shape"></path>
                    <path d="M86.7014806,140.123502 C86.7632118,140.059691 87.1953303,139.740631 87.7200456,139.868255 C87.843508,139.900161 88.2138952,139.963973 88.3990888,140.346844 C88.5225513,140.602092 88.5225513,140.984963 88.3373576,141.208305 C88.0904328,141.495458 87.68918,141.431646 87.1644647,141.272116 C86.7940774,141.144493 86.7940774,141.048775 86.7323462,140.761621 C86.7014806,140.602092 86.670615,140.506374 86.670615,140.37875 C86.670615,140.283032 86.7014806,140.187314 86.7014806,140.123502 Z" id="Shape"></path>
                    <path d="M142.907745,136.866469 C142.907745,136.803945 143.092938,136.366272 143.525057,136.209961 C143.679385,136.147436 143.895444,136.147436 144.080638,136.209961 C144.389294,136.303748 144.512756,136.553846 144.543622,136.866469 C144.574487,137.179093 144.605353,137.366667 144.389294,137.616765 C144.327563,137.710552 144.265831,137.773077 144.142369,137.835602 C144.111503,137.866864 144.018907,137.898126 143.833713,137.898126 C143.586788,137.898126 143.247267,137.898126 143.000342,137.585503 C142.784282,137.304142 142.876879,136.928994 142.907745,136.866469 Z" id="Shape"></path>
                    <path d="M86.6397494,238.031361 C87.0101367,238.406509 87.3805239,238.750394 87.7509112,239.125542 C90.9609339,242.283037 94.0783599,245.596844 96.5167426,249.410848 C98.2452164,252.130671 99.6341686,255.069329 101.547836,257.695365 C104.387472,261.603156 108.276538,264.541815 112.196469,267.324162 C112.628588,267.636785 113.060706,267.949408 113.52369,268.262032" id="Shape"></path>
                    <path d="M130.561503,276.358974 C137.413667,269.98146 144.728815,264.104142 152.414351,258.820809" id="Shape"></path>
                    <path d="M144.080638,262.19714 C148.77221,257.63284 154.636674,254.319034 160.933257,252.599606" id="Shape"></path>
                    <path d="M199.793052,220.274359 C203.095672,221.49359 204.422893,225.463905 205.132802,228.934024 C206.120501,233.842209 206.706948,239.125542 204.638952,243.65858" id="Shape"></path>
                    <path d="M213.034396,223.807002 C212.44795,233.248225 210.225626,242.595661 206.521754,251.255325" id="Shape"></path>
                    <path d="M202.540091,263.510158 C202.540091,263.795486 202.540091,264.009483 202.540091,264.294811" id="Shape"></path>
                    <path d="M203.774715,256.132249 C201.891913,266.073669 203.959909,276.265187 206.027904,286.175345" id="Shape"></path>
                    <path d="M207.447722,267.69931 C207.897225,270.731755 208.378834,273.732939 208.828337,276.765385" id="Shape"></path>
                    <path d="M214.454214,241.37643 C221.213781,246.128304 227.386902,251.692998 232.850114,257.914201" id="Shape"></path>
                    <path d="M217.787699,223.275542 C221.429841,226.151677 224.825057,229.402959 227.942483,232.904339" id="Shape"></path>
                    <path d="M18.4267654,295.585306 C18.4267654,295.941108 18.4267654,296.296911 18.4267654,296.652713" id="Shape"></path>
                </g>
            </g>
        </g>
    </g>
</svg>