<?xml version="1.0" encoding="utf-8"?>
<!-- Generator: Adobe Illustrator 22.0.0, SVG Export Plug-In . SVG Version: 6.00 Build 0)  -->
<svg version="1.1" id="Calque_1" xmlns="http://www.w3.org/2000/svg" xmlns:xlink="http://www.w3.org/1999/xlink" x="0px" y="0px"
	 viewBox="0 0 271 317" style="enable-background:new 0 0 271 317;" xml:space="preserve">
<style type="text/css">
	.st0{fill:#777475;}
	.st1{fill:#77582F;}
	.st2{fill:#4F484B;}
	.st3{fill:#EFC36A;}
	.st4{fill:#23171B;}
	.st5{fill:#D8B461;}
	.st6{fill:#4F3508;}
	.st7{fill:#D8717B;}
	.st8{fill:#51222B;}
	.st9{fill:#998D93;}
	.st10{fill:none;stroke:#000000;stroke-width:0.1;}
	.st11{fill:#EAE8C7;}
	.st12{fill:#35290B;}
</style>
<title>Matete</title>
<desc>Created with Sketch.</desc>
<g id="Page-1">
	<g id="Matete">
		<g id="Group">
			<path id="Shape" class="st0" d="M270.4,308.1v8.8h-147l0.8-5.9v-13.2v-10.5l-1-4c-0.7-2.8-1.9-5.5-3.7-7.8l-1.7-2.2l3.4-10.8
				l4.4-12.1l1.7-5.4c0.1-0.3,0.2-0.6,0.4-0.8c1.1-1.5,2.4-2.8,3.8-3.8c1.5-1.1,3.1-1.9,4.8-2.5c0.7-0.2,1.4-0.5,2-0.9l1.5-0.9
				c0,0,5.4,0.4,6.3,1.4c0.1,0.1,6,3.8,6,3.8c2.3,1.5,4.1,3.4,6,5.4l6,6.6l6.9,7.3l5.5-8c1.1-1.7,2.1-3.4,2.9-5.3l2.9-6.9
				c0.7-1.8,1.6-3.5,2.6-5.2l2.5-4.1c0.6-1,1-2,1.3-3.1c0.3-1.1,0.5-2.2,0.5-3.3c0-3.7-1-7.3-2.8-10.4l-0.2-0.3l5.6,0.3
				c2.2,0.1,4.4,0.3,6.7,0.6l1.7,0.3c1.2,0.2,2.5,0.4,3.7,0.7l6.1,1.3l5,1.4l19.7,6c2,0.6,4,1.5,5.7,2.5c3,1.8,5.6,3.9,7.8,6.5
				c2.3,2.6,4.1,5.5,5.4,8.7l1.5,3.5l6.5,19.5l5.7,26.4L270.4,308.1z M143.7,245.4c0-1.6-1.8-2.8-4-2.8c-2.2,0-4,1.3-4,2.8
				c0,1.6,1.8,2.8,4,2.8C141.9,248.2,143.7,246.9,143.7,245.4z"/>
			<path id="Shape_1_" class="st1" d="M222.6,112.1l13.3-4.4c-2.9,3.1-5.1,6.9-6.5,10.9l6.4-2.1c0.1,1.7-1,3.5-2.6,4.2
				c1.6,0.5,2.7,2.2,2.6,3.9c-2.3,3.5-3.4,7.8-3.3,12c0.1-2.3,0.8-4.6,2-6.5c1.5,5.2-1.1,11.3-5.9,13.8c-1.7,5.6-1.5,11.9,0.6,17.4
				l5.7-10.9c-1.9,11-5.6,21.7-10.8,31.6c-0.4-2.9,1.5-5.5,2.1-8.3c0.6-2.8-1.9-6.7-4.4-5.2c-2,1.2-1.3,4.2-0.9,6.6
				c1,5.1-1,10.6-4.9,13.9c-3.9,3.3-9.7,4.3-14.4,2.4c-3.1,4.6-6.9,8.8-11.1,12.2c-2.3,1.9-5.6,1.7-7.7-0.3
				c-1.4-1.3-2.6-2.8-3.6-4.4c-0.6-0.9-0.9-2.1-0.9-3.2c0-0.7,0-1.3,0-2c0.2-15.6,0.2-31.1,0.2-46.7c0-0.2,0-0.3,0-0.5
				c0-8.3,0-16.7-2.7-24.5c-0.5-1.4-1-2.7-1.6-4.1c-1.2-5.2-3.2-10.2-6-14.7c-3.8-0.4-7.6-1.8-10.7-4.1c-1.4-1-2.7-2.2-4.4-2.6
				c-2.2-0.6-4.4,0.3-6.5,0.9c-9.8,2.9-20.7,1.5-29.5-3.6c-1.7,2.2-5.1,1.8-7.5,0.5c-2.4-1.2-4.6-3.1-7.3-3.5
				c-2.5-0.3-5,0.7-7.5,0.3c-2.5-0.4-4.8-3.6-3-5.3c-2.9-2.3-7.1-1-10.4,0.7c-9.8,4.9-19,13.4-20.4,24.5c-0.7,5.5,0.6,11.1,1,16.7
				c0.6,7.9-0.6,15.9,0,23.8c1.5,20,25.3,52.3,25.5,52.5c-3.6,1.6-7.1-2.3-9.4-5.6c-5.9-8.5-13.1-16-21.3-22.3
				c-1.4-1.1-2.8-2.1-4.5-2.4c-1.5-0.3-3,0-4.4-0.4c-2.1-0.6-3-2.9-4.8-4.1c-16.7-11.1-25.2-21.6-4.9-32.1
				c3.6-1.8-11.6-3.5-14.4-6.4c-8.2,8.3-12.6,14.7-9,25.9c-2.8-3.7-5.6-7.6-6.9-12.1c-1.3-4.5-1-9.7,1.9-13.3
				c2.7-3.3,6.9-4.8,10.4-7.3c3.5-2.5,6.3-7.2,4.2-10.9c-6.8,3.9-13.5,7.8-20.3,11.8c-1.1,0.7-2.6,1.3-3.5,0.2
				c-0.5-0.6-0.6-1.5-0.3-2.3c2.7-6.2,8.2-11,14.6-12.9c-4.2-3.3-10.1-4.1-15-2l2.6-5.3c3.5,3.8,9.9,2.8,13.7-0.7
				c3.8-3.4,5.5-8.6,7-13.4c-7.3-7.7-10.8-19.1-9.1-29.6c0.1,8.5,9.1,15.6,17.2,13.7c-3-1.9-2.6-6.8,0-9.4s6.3-3.3,9.8-3.9
				c-6.7-5.7-18-4.5-23.5,2.4C23.4,48.5,38,40,52.2,41.4c-2.1-5.7,1.8-12.8,7.7-14c1.8-0.4,3.8-0.3,5.3-1.4
				c2.9-2.2,1.7-6.8,0.1-10.1c-1.6-3.3-3.3-7.7-0.7-10.3c2.2,4.8,5,10.1,10.1,11.3c1.1,0.3,2.3,0.3,3.3,0.9c1.8,1.1,2.2,3.4,3.4,5.1
				c1.9,2.7,5.9,3.5,8.6,1.7c0.8-1.2,0.7-2.9-0.2-4.1c-1.9-4-2.6-8.5-2-12.8C87.8,6.3,88.3,5,89.3,4c3.2-3.1,8-0.4,12.2-0.3
				c0.4,0,0.6,5.6,1,5.4c1.2-0.8-1-7.2-0.5-6.5c6.8,8.5,15.9,10.5,26.5,8c3.6-0.8-1.4,7.7,2.1,9c3.5,1.3,7.4-0.5,10-3.3
				c2.6-2.7,4.1-6.2,6.2-9.4s4.8-6.1,8.5-6.8c0.7,6.9-3.9,12.7-6.5,19.1c-2.3,5.9,9,11.9,21.4,18.8c1.5,0.8,2.9,1,4.4,0.7
				c0.2,0.2,5.7-2.5,5.8-2.2c2.4,3.1-0.5,9.2,2,12.3c0.6,0.8,1.2,1.6,2.1,1.9c0.8,0.3,1.6,0.2,2.4,0c7.9-2,14-11.5,21.9-9.2
				c-0.6,4-4.8,6.4-8.7,7.4c-2,0.6-11.2,3.4-12.8,6.3c-1.6,2.7,4.4,5.3,3,6.7c-1.5,1.4,16.3-5.9,26.1-4.8c1.7,0.2,8-0.4,8,0
				c0,0.4-6.9,2.5-8.1,3c-8.5,3.5-28.4,6-26.4,7.7c0.6,0.5,1.4,1,2.1,1.3c2.3,0.9,5.1,1,6.5,3c0.8,1.1,0.9,2.5,1.7,3.6
				c1.7,2.4,5.2,2,8.1,2.5c2.9,0.5,5.7,4.4,3.3,6.1c-2.3-1.6-5.4-2-8-1l4.3,3.2c-2.4,0.6-1.6,4.7,0.7,5.6c2.3,0.9,4.8-0.1,7.3-0.4
				c2.4-0.3,5.6,0.6,5.9,3.1c0.1,0.8-0.2,1.7-0.2,2.5c-0.3,2.7,1.3,5.2,2.3,7.8C224.9,107.3,224.9,110.8,222.6,112.1z"/>
			<path id="Shape_2_" class="st2" d="M189.2,224.5c0,1.2-0.2,2.3-0.5,3.3c-0.3,1.1-0.7,2.1-1.3,3.1L185,235c-1,1.7-1.9,3.4-2.6,5.2
				l-2.9,6.9c-0.8,1.8-1.8,3.6-2.9,5.3l-5.5,8l-6.9-7.3l-6-6.6c-1.8-2-3.9-3.8-6.1-5.2l-5.8-3.8c-1.9-1-4-1.1-5.9-1.2l-0.4-0.3
				l4.7-2.9l2.7-1.7c2.9-1.8,5.6-4,7.8-6.6l11.9-13.8l7.2-7.6c1.8-1.8,2.4-2.8,3-5.3l0.2-1l1.5,4.7c2.6,3.6,4.3,7.8,7.5,11.7
				l0.2,0.3C188.2,217.2,189.2,220.8,189.2,224.5z"/>
			<path id="Shape_4_" class="st3" d="M133.9,137.2C133.8,137.2,133.8,137.2,133.9,137.2l-1.5,1.4c0,0-1.1,1.1-1.3,1.3l0,0
				c-0.1,0.1,1,0.6,1.1,0.7c0.1,0.1,1.2,0.4,2,0.6c0.4,0.1,0.8,0.2,1.2,0.3l2.7,0.5c0.3,0.1,0.5,0.1,0.8,0.1h3.1h1.3
				c0.1,0,0.1,0,0.2,0c0,0,0.1,0,0.1,0c0.2,0,0.4,0,0.6,0h0c0.9-0.1,1.8-0.3,2.7-0.6l0.2-0.1l2-0.7c0.4-0.2,0.9-0.4,1.3-0.6l0.8-0.5
				c0.6-0.3,1.1-0.8,1.5-1.3c0.8-0.9,1.4-2,1.7-3.1l-0.2-0.2c-0.4-0.4-0.8-0.7-1.3-1l-1.4-0.8c-0.9-0.5-1.9-0.8-2.9-0.9l-1.2-0.2
				c-1-0.2-2.1-0.1-3.1,0.1l-1.3,0.3c-0.2,0-0.4,0.1-0.6,0.1c-0.3,0.1-0.6,0.2-1,0.3l-1.5,0.6c-0.4,0.2-0.8,0.4-1.2,0.6l-2.2,1.5
				l-1.9,1.1C134.3,136.8,134.1,137,133.9,137.2z M108.7,176c0.1-0.1,0.1-0.2,0.1-0.3v-0.5c0-0.3-0.9-1.8-1-1.8c0,0-1-0.6-1.4-0.6
				c-1.6,0.3-1.9,0.5-1.9,0.5c-0.2,0.1-1,0.6-0.9,1.4c0.1,0.5,0.5,0.9,1,1.1c0.2,0.1,0.4,0.1,0.6,0.2c0.2,0,0.3,0.1,0.5,0.1
				c0.2,0,0.6,0.1,1,0.2c0.1,0,1.2-0.1,1.8-0.1C108.6,176.1,108.6,176.1,108.7,176z M119.7,174.1l0.6,0.4c0.5,0.4,1.1,0.7,1.8,0.8
				c0,0,0.3,0.1,0.7,0.1c0.3,0.1,0.7,0.1,1,0.1c0.3,0.1,0.9,0.1,1.7-0.2c0.6-0.2,1-0.6,1.2-0.8c0.3-0.3,0.2-1.3,0.2-1.3
				c-0.2-0.5-0.6-0.9-1-1.1c0,0-1-0.3-1.5-0.3c-0.4,0-1.1,0-1.8,0.3c-1,0.3-1.7,0.8-2.1,1.2L119.7,174.1z M93.4,193.3h-0.2
				c0.1,0.1,0.2,0.3,0.3,0.5l0.5,1.8c0.5,2,2.3,3.4,3.6,5.1l4.3,3.4c0.3,0.4,1.5,1.1,3,1.8c1.2,0.6,2.1,0.8,3.4,1.1
				c1.1,0.2,3.1,0.5,5,0.7c0.1,0,3.3,0.3,6.7-0.3c3.7-0.7,8.2-1.9,8.2-1.9c4.1-1.6,14.8-12.6,15-13.1c0,0-0.1,0-0.1,0.1l-0.2-0.2
				l-2.1,0.5c-0.7,0.2-1.4,0.3-2.1,0.4l-0.5,0.1c-2.3,0.3-4.6,0.2-6.8-0.5c-1.9-0.6-4.8-0.6-6.7-0.5c0,0-1.2,0.3-4.7,0.6
				c-0.6,0.1-2.3-0.1-3.9-0.1c-0.7,0-2.8,0.4-3.6,0.4c-1,0-3.3-0.6-4.2-0.4c-1.2,0-6.1,0.8-6.1,0.8c-0.8,0.1-1.7,0.1-2.5,0.1
				L93.4,193.3z M175.7,122.1c2.7,7.8,2.7,16.2,2.7,24.5c0,0.2,0,0.3,0,0.5l-0.3,0.7c-2.5,10.3-9.6,22.8-26,35
				c0,0,14.3,7.6,3.9,26.9c-0.7,1.2-6.7,9.2-9.3,12c-2.6,2.8-5.1,4.5-6,5.1c-3.1,2-13.4,4.7-16.5,4.9c-2.9,0.2-5.8-0.3-8.6-0.9
				c-4.4-1-8.7-2.3-12.3-5c-3-2.2-5.3-5.3-7.6-8.2c-2-2.7-4.1-5.4-5.2-6.8l-3-6.6c-0.2-0.3-24-32.5-25.5-52.5
				c-0.6-7.9,0.6-15.9,0-23.8c-0.4-5.6-1.7-11.1-1-16.7c1.4-11,10.6-19.5,20.4-24.5c3.3-1.7,7.5-2.9,10.4-0.7c-1.8,1.8,0.5,5,3,5.3
				c2.5,0.4,5-0.7,7.5-0.3c2.7,0.3,4.9,2.3,7.3,3.5c2.4,1.2,5.8,1.6,7.5-0.5c8.8,5.2,19.7,6.5,29.5,3.6c2.2-0.6,4.4-1.5,6.5-0.9
				c1.7,0.4,3,1.6,4.4,2.6c3.1,2.3,6.9,3.7,10.7,4.1c2.7,4.5,4.8,9.5,6,14.7C174.6,119.4,175.2,120.7,175.7,122.1z M157.8,118.2
				c0-0.1,0-0.1,0-0.2l-0.5-0.9c-0.2-0.4-0.6-0.8-1-0.9l-2.7-1.1l-2.7-0.7c-0.8-0.2-1.6-0.2-2.3,0l-3.8,1.1
				c-0.2,0.1-0.4,0.1-0.6,0.2l-4.9,2.4l-6.7,3.4l-3.7,2.2c-0.1,0.1-0.3,0.2-0.4,0.3l-2.6,2.1c-0.2,0.1-0.3,0.3-0.4,0.4l-0.9,1.2
				c-0.2,0.3-0.2,0.7-0.2,1c0.2,0.8,1,1.3,1.7,1.3c0.1,0,0.2,0,0.3,0c0.5-0.1,1-0.3,1.4-0.5c1.3-0.8,4-2.4,4.2-2.4
				c0.3-0.1,8-3.3,8-3.3l6.6-2.8l4-1.4c0.5-0.2,1.1-0.3,1.7-0.3h3.2l0.5,0.1c0.8,0.3,1.3-0.1,1.8-0.9
				C157.8,118.4,157.8,118.3,157.8,118.2z M100.2,130.2c0.2-0.6-0.1-1.3-0.6-1.5c-0.2-0.1-0.4-0.2-0.7-0.3c-2.3-1-3.9-2.2-4.3-2.4
				c-2.1-1.5-2.7-2.5-5-3.5c0,0-10.2-2.8-10.3-2.8c-1-0.3-2.3-0.4-3.6-0.5c-0.1,0-0.3,0-0.4,0c-2.6,0-5.1,0.8-7.3,2.2l-1.1,0.7
				c-0.3,0.3-0.7,0.7-1,1.1l0,0.1C65.2,124,65,125,65,126c0,0.2,0.1,0.4,0.2,0.6l0.1,0.1c0.3,0.7,1.2,0.9,1.8,0.5
				c0.1,0,0.1-0.1,0.1-0.1c0.6-0.5,1.3-1,2-1.4s1.5-0.8,2.2-1c0.2-0.1,0.3-0.1,0.5-0.1c0,0,0.1,0,0.2,0l7.4,0.7
				c0.7,0.1,1.5,0.2,2.2,0.4l9.3,2.8c0,0,0.1,0,0.1,0l6.4,2.6c0.2,0.1,0.3,0.1,0.5,0.1h1C99.4,131.1,100,130.8,100.2,130.2z
				 M95.2,142.8l2.3-0.8l-1.5-1.4l-1-1c-0.3-0.3-0.7-0.7-1.1-0.9l-1.1-0.8c-0.2-0.2-0.5-0.3-0.8-0.4c-0.8-0.4-1.8-0.6-2.7-0.6
				c-0.6,0-1.1-0.1-1.6-0.1c-0.2,0-0.3,0-0.5,0c-0.2,0-0.4,0-0.6,0c-0.1,0-0.2,0-0.2,0c0,0-1.7,0.1-2.3,0.1c-0.6,0-1.4,0.2-2,0.4
				l-1.2,0.3c-0.4,0.1-0.7,0.3-1.1,0.4l-0.4,0.2c-0.4,0.2-0.8,0.5-1.2,0.8l-0.1,0.1c-0.4,0.3-0.6,0.8-0.7,1.3l-0.1,0.3
				c-0.1,0.4,0,0.8,0.2,1l0.6,0.6c0.3,0.4,0.7,0.7,1.1,1l1,0.6c0.3,0.2,0.6,0.3,0.9,0.4l1.5,0.5c0.6,0.2,1.2,0.3,1.8,0.3h1.2h1.6
				h0.3c0.7,0,1.4-0.1,2-0.3l2.6-0.8c0.1,0,0.2-0.1,0.2-0.1L95.2,142.8z"/>
			<path id="Shape_5_" class="st4" d="M178.1,147.7l0.3-0.7c0,15.6-0.1,31.1-0.2,46.7H178c0-0.1-0.7,1.3-0.8,1.4l-9.3,10.3
				c-0.5,0.7-1.1,1.3-1.7,1.8l-8.8,8.7c-0.6,0.6-1.2,1.3-1.8,1.9l-6.2,7.9c-1.4,1.7-3.5,3.3-5.3,4.4l-7.6,4.3
				c-2,1.1-4.7,1.5-6.9,1.8l-4.3,0.7c-1.8,0.3-3.5,0.4-5.3,0.4h-2.6c-3.5,0-6.9-0.9-9.9-2.6l-0.6-0.3c-2.5-1.4-4.8-3.3-6.6-5.5
				l-2.3-2.7c-2.1-2.5-3.8-5.4-4.8-8.6l-1.3-3.9l-1-2.3l0,0c0,0,0-0.1,0-0.1l0,0l-0.3-0.8c1.1,1.4,3.2,4.1,5.2,6.8
				c2.3,3,4.6,6,7.6,8.2c3.6,2.7,8,4,12.3,5c2.8,0.7,5.7,1.2,8.6,0.9c3.1-0.3,13.3-2.9,16.5-4.9c1-0.6,3.4-2.2,6-5.1
				c2.6-2.8,8.6-10.8,9.3-12c10.5-19.2-3.9-26.9-3.9-26.9C168.5,170.5,175.6,158.1,178.1,147.7z"/>
			<path id="Shape_6_" class="st5" d="M111.8,267.3l-2.2-2.7c-1.5-1.8-2.5-3.9-3-6.1l-0.6-2.7l-1.4-7.7l-8.1-5.1l-2.1-3
				c0,0-1.6-4.9-1.6-5.6c0-0.7-1-10-1-10l-1-12.8l1,2.3l1.3,3.9c1,3.1,2.7,6,4.8,8.6l2.3,2.7c1.9,2.2,4.1,4.1,6.6,5.5l0.6,0.3
				c3,1.7,6.4,2.6,9.9,2.6h2.6c1.8,0,3.6-0.1,5.3-0.4l4.3-0.7c2.3-0.3,4.9-0.8,6.9-1.8l7.6-4.3c1.9-1.1,3.9-2.8,5.3-4.4l6.2-7.9
				c0.6-0.7,1.2-1.3,1.8-1.9l8.8-8.7c0.6-0.6,1.2-1.2,1.7-1.8l9.3-10.3c0.1-0.1,0.8-1.5,0.8-1.4l0,0l-0.8,3.5l-0.2,1
				c-0.6,2.4-1.2,3.5-3,5.3l-7.2,7.6L155,224.9c-2.2,2.6-4.9,4.8-7.8,6.6l-2.7,1.7l-4.7,2.9l-1.5,0.9c-0.6,0.4-1.3,0.7-2,0.9
				c-1.7,0.6-3.3,1.4-4.8,2.5c-1.5,1.1-2.7,2.3-3.8,3.8c-0.2,0.3-0.3,0.5-0.4,0.8l-1.7,5.4l-4.4,12.1l-3.4,10.8l-5.6-5.4
				L111.8,267.3z"/>
			<path id="Shape_7_" class="st6" d="M157.8,118.1c0,0,0,0.1,0,0.2c0,0.1,0,0.1,0,0.2c-0.5,0.8-0.9,1.2-1.8,0.9l-0.5-0.1h-3.2
				c-0.6,0-1.1,0.1-1.7,0.3l-4,1.4l-6.6,2.8c0,0-7.7,3.3-8,3.3c-0.2,0.1-2.9,1.7-4.2,2.4c-0.4,0.3-0.9,0.4-1.4,0.5
				c-0.1,0-0.2,0-0.3,0c-0.7,0-1.5-0.5-1.7-1.3c-0.1-0.3-0.1-0.7,0.2-1l0.9-1.2c0.1-0.2,0.2-0.3,0.4-0.4l2.6-2.1
				c0.1-0.1,0.2-0.2,0.4-0.3l3.7-2.2l6.7-3.4l4.9-2.4c0.2-0.1,0.4-0.2,0.6-0.2l3.8-1.1c0.8-0.2,1.5-0.2,2.3,0l2.7,0.7l2.7,1.1
				c0.4,0.2,0.8,0.5,1,0.9L157.8,118.1z"/>
			<path id="Shape_8_" class="st7" d="M143,192.5C143.1,192.4,143.1,192.4,143,192.5c-0.1,0.5-10.8,11.5-14.9,13.1
				c0,0-4.4,1.2-8.2,1.9c-3.5,0.6-6.6,0.3-6.7,0.3c-1.9-0.2-3.9-0.5-5-0.7c-1.3-0.2-2.2-0.5-3.4-1.1c-1.5-0.7-2.7-1.4-3-1.8
				l-4.3-3.4c-1.3-1.6-3-3-3.6-5.1l-0.5-1.8c1.5,1.8,7.1,6.6,12.6,7.6l6.7,0.4c2.2,0.3,5.9-0.3,6.7-0.4c4.6-0.6,2.5-0.3,5.7-1
				c2.5-0.6,8.9-2.2,8.9-2.2c0.7-0.3,2.4-1.3,3.1-1.7l3.8-2.5l1.5-1.3C142.5,192.8,142.8,192.6,143,192.5z"/>
			<path id="Shape_9_" class="st8" d="M142.9,192.3l0.2,0.2c-0.2,0.1-0.5,0.3-0.6,0.3L141,194l-3.8,2.5c-0.6,0.4-2.4,1.4-3.1,1.7
				c0,0-6.4,1.6-8.9,2.2c-3.2,0.7-1.2,0.4-5.7,1c-0.8,0.1-4.5,0.7-6.7,0.4l-6.7-0.4c-5.5-1.1-11.2-5.8-12.6-7.6l-0.1-0.3l1.2,0.9
				c1.5,1.3,3.3,2.2,5.2,2.6c2.7,0.5,5.8,1,5.8,1c1.2,0.1,11.2-0.2,11.8-0.2c0,0,11-0.8,11.8-0.9c0,0,6-1.2,7.3-1.8L142.9,192.3z"/>
			<path id="Shape_10_" class="st7" d="M142.9,192.3l-6.4,2.9c-1.3,0.6-7.3,1.8-7.3,1.8c-0.8,0.1-11.8,0.9-11.8,0.9
				c-0.5,0-10.6,0.3-11.8,0.2c0,0-3.2-0.5-5.8-1c-1.9-0.4-3.7-1.3-5.2-2.6l-1.2-0.9l-0.1-0.2l6.3,0.4c0.9,0,1.7,0,2.5-0.1
				c0,0,4.9-0.8,6.1-0.8c0.9-0.2,3.2,0.5,4.2,0.4c0.8,0,2.9-0.3,3.6-0.4c1.6-0.1,3.3,0.1,3.9,0.1c3.5-0.4,4.7-0.6,4.7-0.6
				c1.9-0.2,4.8-0.1,6.7,0.5c2.2,0.7,4.5,0.8,6.8,0.5l0.5-0.1c0.7-0.1,1.5-0.3,2.1-0.4L142.9,192.3z"/>
			<path id="Shape_11_" class="st9" d="M139.7,242.5c2.2,0,4,1.3,4,2.8c0,1.6-1.8,2.8-4,2.8c-2.2,0-4-1.3-4-2.8
				C135.8,243.8,137.5,242.5,139.7,242.5z"/>
			<path id="Shape_12_" class="st8" d="M126.8,173.3c0,0,0.2,0.9-0.2,1.3c-0.2,0.2-0.6,0.6-1.2,0.8c-0.7,0.3-1.4,0.2-1.7,0.2
				c-0.3,0-0.7-0.1-1-0.1c-0.4-0.1-0.7-0.1-0.7-0.1c-0.6-0.1-1.2-0.4-1.8-0.8l-0.6-0.4l0.7-0.8c0.4-0.3,1.1-0.9,2.1-1.2
				c0.7-0.2,1.3-0.3,1.8-0.3c0.5,0,1.5,0.3,1.5,0.3C126.2,172.4,126.6,172.8,126.8,173.3z"/>
			<path id="Shape_13_" class="st0" d="M124.2,297.7v13.2l-0.8,5.9H8.4l1.3-11.3l3.5-15.9l5.9-16.5l0.2-0.4c1.4-2.9,3.2-5.5,5.5-7.8
				l0.2-0.3c1.1-1.1,2.2-2.1,3.5-2.9l7.8-5.4c0.8-0.6,1.7-1.1,2.6-1.5l13.1-6.4l12.9-5.1l14-5.8l-1.3,4.4c-0.1,0.4-0.3,0.8-0.5,1.1
				l-5,9l4.7-3.2c0.4-0.3,0.8-0.6,1.1-0.9l2.4-2.3c0.2-0.2,0.4-0.4,0.5-0.7l1.5-3.8c0.2-0.5,0.5-0.9,1-1.2l2.6-1.7l1.6,0.8
				c3.2,3.2,6.3,6.5,8.8,10.3c1.7,2.7,3.1,5.7,5,8.3c2.8,3.9,6.7,6.8,10.6,9.6l0.4,0.5l5.6,5.4l1.7,2.2c1.8,2.3,3.1,5,3.7,7.8l1,4
				V297.7z M119.7,283c0-2.3-1.2-4.2-2.7-4.2s-2.7,1.9-2.7,4.2s1.2,4.2,2.7,4.2C118.5,287.2,119.7,285.3,119.7,283z"/>
			<ellipse id="Oval" class="st9" cx="117" cy="283" rx="2.7" ry="4.2"/>
			<path id="Shape_14_" class="st2" d="M109.6,264.6l2.2,2.7c-3.9-2.8-7.8-5.8-10.6-9.6c-1.9-2.6-3.3-5.6-5-8.3
				c-2.4-3.8-5.5-7.1-8.8-10.3l17.2,9.1l1.4,7.7l0.6,2.7C107.1,260.8,108.1,262.9,109.6,264.6z"/>
			<path id="Shape_15_" class="st8" d="M108.8,175.2v0.5c0,0.1-0.1,0.3-0.1,0.3c-0.1,0.1-0.2,0.1-0.2,0.1c-0.6,0.1-1.7,0.2-1.8,0.1
				c-0.4-0.1-0.7-0.1-1-0.2c-0.2,0-0.3,0-0.5-0.1c-0.3-0.1-0.5-0.1-0.6-0.2c-0.6-0.2-1-0.7-1-1.1c-0.1-0.8,0.7-1.3,0.9-1.4
				c0,0,0.3-0.2,1.9-0.5c0.4,0,1.4,0.6,1.4,0.6C107.9,173.4,108.8,174.9,108.8,175.2z"/>
			<path id="Shape_16_" class="st2" d="M87.4,239.1l-1.6-0.8v-7.6c0-4.1,0.7-8.1,2-11.9l2.3-6.7c0.1-0.2,0.4-0.7,0.5-0.6l0,0l0,0.1
				l0,0l1,12.8c0,0,1,9.3,1,10c0,0.7,1.6,5.6,1.6,5.6l2.1,3l8.1,5.1L87.4,239.1z"/>
			<path id="Shape_17_" class="st6" d="M99.5,128.7c0.5,0.3,0.8,0.9,0.6,1.5c-0.2,0.6-0.7,0.9-1.3,0.9h-1c-0.2,0-0.3,0-0.5-0.1
				l-6.4-2.6c0,0-0.1,0-0.1,0l-9.3-2.8c-0.7-0.2-1.5-0.3-2.2-0.4l-7.4-0.7c-0.1,0-0.1,0-0.2,0c-0.2,0-0.3,0-0.5,0.1
				c-0.8,0.3-1.5,0.6-2.2,1s-1.4,0.9-2,1.4c0,0-0.1,0.1-0.1,0.1c-0.6,0.4-1.5,0.2-1.8-0.5l-0.1-0.1c-0.1-0.2-0.2-0.4-0.2-0.6
				c0-1,0.3-2,0.8-2.8l0-0.1c0.4-0.3,0.7-0.7,1-1.1l1.1-0.7c2.2-1.4,4.7-2.2,7.3-2.2c0.2,0,0.3,0,0.4,0c1.4,0.1,2.6,0.3,3.6,0.5
				c0.1,0,10.3,2.8,10.3,2.8c2.3,1,2.9,2,5,3.5c0.4,0.3,2,1.4,4.3,2.4C99,128.5,99.3,128.6,99.5,128.7z"/>
			<path id="Shape_18_" class="st3" d="M93.7,193.6l0.2,0.5c-0.4-0.3-0.6-0.6-0.8-0.8L93.7,193.6z"/>
			<polygon id="Shape_19_" class="st7" points="93.7,193.3 93.7,193.7 93.2,193.3 			"/>
			<path id="Shape_20_" class="st2" d="M90.2,212l-2.3,6.7c-1.3,3.8-2,7.9-2,11.9v7.6l-2.6,1.7c-0.4,0.3-0.8,0.7-1,1.2l-1.5,3.8
				c-0.1,0.3-0.2,0.5-0.5,0.7l-2.4,2.3c-0.3,0.3-0.7,0.7-1.1,0.9l-4.7,3.2l5-9c0.2-0.3,0.4-0.7,0.5-1.1l1.3-4.4l2-6.5l1.4-4.2
				c1.6-4.8,3.9-9.3,6.9-13.3L90.2,212z"/>
		</g>
		<g id="Group_1_">
			<path id="Shape_21_" class="st10" d="M180.5,36.4c-4.8,2.1-0.9,0.3-5.8,2.2c-1.7,0.4-2.9,0.1-4.4-0.7
				c-12.4-6.8-23.8-12.8-21.4-18.8c2.6-6.4,7.2-12.2,6.5-19.1c-3.6,0.7-6.5,3.7-8.5,6.8c-2,3.2-3.6,6.7-6.2,9.4s-6.5,4.6-10,3.3
				c-3.5-1.3,1.5-9.8-2.1-9c-10.6,2.5-19.7,0.6-26.5-8c-0.5-0.6,1.7,5.8,0.5,6.5c-0.3,0.2-0.6-5.4-1-5.4c-4.2-0.2-9-2.9-12.2,0.3
				c-1,1-1.6,2.4-1.8,3.8c-0.6,4.4,0.2,8.9,2,12.8c0.9,1.1,1,2.8,0.2,4.1c-2.7,1.8-6.8,1-8.6-1.7c-1.2-1.7-1.6-4-3.4-5.1
				c-1-0.6-2.2-0.7-3.3-0.9c-5-1.2-7.9-6.5-10.1-11.3c-2.6,2.6-1,7,0.7,10.3c1.6,3.3,2.9,7.9-0.1,10.1c-1.5,1.1-3.5,1-5.3,1.4
				c-5.9,1.2-9.8,8.3-7.7,14C38.1,40,23.4,48.6,17.5,61.7c5.5-6.9,16.8-8.1,23.5-2.4c-3.5,0.6-7.2,1.4-9.8,3.9s-3,7.5,0,9.4
				c-8.1,1.9-17.1-5.2-17.2-13.7c-1.8,10.6,1.7,21.9,9.1,29.6c-1.6,4.9-3.3,10-7,13.4c-3.8,3.4-10.2,4.4-13.7,0.7l-2.6,5.3
				c4.9-2.1,10.8-1.3,15,2c-6.4,1.9-11.9,6.7-14.6,12.9c-0.3,0.8-0.2,1.7,0.3,2.3c0.9,1.1,2.4,0.5,3.5-0.2
				c6.8-3.9,13.5-7.8,20.3-11.8c2.1,3.7-0.7,8.4-4.2,10.9c-3.5,2.5-7.7,4-10.4,7.3c-2.9,3.6-3.2,8.8-1.9,13.3
				c1.3,4.5,4,8.4,6.9,12.1c-3.6-11.2,0.8-17.5,9-25.9c2.9,2.8,18,4.5,14.4,6.4c-20.3,10.4-11.8,21,4.9,32.1
				c1.8,1.2,2.7,3.5,4.8,4.1c1.4,0.4,3,0.1,4.4,0.4c1.7,0.3,3.1,1.4,4.5,2.4c8.2,6.3,15.4,13.8,21.3,22.3c2.3,3.3,5.7,7.2,9.4,5.6"
				/>
			<path id="Shape_23_" class="st10" d="M87.3,204.1c-0.2-0.3-24-32.5-25.5-52.5c-0.6-7.9,0.6-15.9,0-23.8c-0.4-5.6-1.7-11.1-1-16.7
				c1.4-11,10.6-19.5,20.4-24.5c3.3-1.7,7.5-2.9,10.4-0.7c-1.8,1.8,0.5,5,3,5.3c2.5,0.4,5-0.7,7.5-0.3c2.7,0.3,4.9,2.3,7.3,3.5
				c2.4,1.2,5.8,1.6,7.5-0.5c8.8,5.2,19.7,6.5,29.5,3.6c2.2-0.6,4.4-1.5,6.5-0.9c1.7,0.4,3,1.6,4.4,2.6c3.1,2.3,6.9,3.7,10.7,4.1
				c2.7,4.5,4.8,9.5,6,14.7c0.6,1.3,1.1,2.7,1.6,4.1c2.7,7.8,2.7,16.2,2.7,24.5c0,0.2,0,0.3,0,0.5c0,15.6-0.1,31.1-0.2,46.7
				c0,0.7,0,1.3,0,2c0,1.1,0.3,2.2,0.9,3.2c1,1.6,2.3,3.1,3.6,4.4c2.1,2,5.4,2.2,7.7,0.3c4.3-3.5,8.1-7.6,11.1-12.2
				c4.8,1.8,10.5,0.9,14.4-2.4c3.9-3.3,5.9-8.8,4.9-13.9c-0.4-2.3-1.1-5.4,0.9-6.6c2.5-1.4,5,2.4,4.4,5.2c-0.6,2.8-2.5,5.5-2.1,8.3
				c5.2-9.9,8.8-20.6,10.8-31.6l-5.7,10.9c-2.1-5.5-2.3-11.8-0.6-17.4c4.8-2.5,7.4-8.6,5.9-13.8c-1.3,1.9-2,4.2-2,6.5
				c-0.2-4.2,1-8.5,3.3-12c0.2-1.7-1-3.4-2.6-3.9c1.6-0.7,2.7-2.4,2.6-4.2l-6.4,2.1c1.4-4,3.7-7.8,6.5-10.9l-13.3,4.4
				c2.4-1.3,2.4-4.8,1.4-7.3c-1-2.6-2.6-5-2.3-7.8c0.1-0.8,0.3-1.7,0.2-2.5c-0.3-2.5-3.5-3.4-5.9-3.1c-2.4,0.3-5,1.3-7.3,0.4
				c-2.3-0.9-3.1-5-0.7-5.6l-4.3-3.2c2.6-1,5.7-0.7,8,1c2.4-1.7-0.4-5.5-3.3-6.1c-2.9-0.5-6.4-0.1-8.1-2.5c-0.8-1.1-0.9-2.5-1.7-3.6
				c-1.4-2-4.2-2.1-6.5-3c-0.8-0.3-1.5-0.8-2.1-1.3c-2-1.7,17.8-4.2,26.4-7.7c1.2-0.5,8.1-2.6,8.1-3c0-0.3-6.2,0.2-8,0
				c-9.8-1.1-27.6,6.3-26.1,4.8c1.5-1.3-4.5-4-3-6.7c1.7-2.8,10.8-5.8,12.8-6.3c3.9-1.1,8.1-3.4,8.7-7.4c-7.8-2.3-14,7.2-21.9,9.2
				c-0.8,0.2-1.7,0.3-2.4,0c-0.9-0.3-2.1-1.7-2.7-2.4c-1.9-3.9-0.2-4.3-0.5-8.6c-0.2-0.3,0-1.3-0.3-1.6c0,0-0.3-1.2-0.7-1.5"/>
			<path id="Shape_24_" class="st10" d="M65.8,123L65.8,123c-0.6,0.9-0.9,1.9-0.9,2.9c0,0.2,0.1,0.4,0.2,0.6l0.1,0.1
				c0.3,0.7,1.2,0.9,1.8,0.5c0.1,0,0.1-0.1,0.1-0.1c0.6-0.5,1.3-1,2-1.4c0.7-0.4,1.5-0.8,2.2-1c0.2-0.1,0.3-0.1,0.5-0.1
				c0,0,0.1,0,0.2,0l7.4,0.7c0.7,0.1,1.5,0.2,2.2,0.4l9.3,2.8c0,0,0.1,0,0.1,0l6.4,2.6c0.2,0.1,0.3,0.1,0.5,0.1h1
				c0.6,0,1.1-0.4,1.3-0.9c0.2-0.6-0.1-1.3-0.6-1.5c-0.2-0.1-0.4-0.2-0.7-0.3c-2.3-1-3.9-2.2-4.3-2.4c-2.1-1.5-2.7-2.5-5-3.5
				c0,0-10.2-2.8-10.3-2.8c-1-0.3-2.3-0.4-3.6-0.5c-0.1,0-0.3,0-0.4,0c-2.6,0-5.1,0.8-7.3,2.2l-1.1,0.7
				C66.5,122.4,66.1,122.7,65.8,123z"/>
			<path id="Shape_25_" class="st10" d="M125.4,126.5l-0.9,1.2c-0.2,0.3-0.2,0.7-0.2,1c0.2,0.8,1,1.3,1.7,1.3c0.1,0,0.2,0,0.3,0
				c0.5-0.1,1-0.3,1.4-0.5c1.3-0.8,4-2.4,4.2-2.4c0.3-0.1,8-3.3,8-3.3l6.6-2.8l4-1.4c0.5-0.2,1.1-0.3,1.7-0.3h3.2l0.5,0.1
				c0.8,0.3,1.3-0.1,1.8-0.9c0-0.1,0-0.1,0-0.2s0-0.1,0-0.2l-0.5-0.9c-0.2-0.4-0.6-0.8-1-0.9l-2.7-1.1l-2.7-0.7
				c-0.8-0.2-1.6-0.2-2.3,0l-3.8,1.1c-0.2,0.1-0.4,0.1-0.6,0.2l-4.9,2.4l-6.7,3.4l-3.7,2.2c-0.1,0.1-0.3,0.2-0.4,0.3l-2.6,2.1
				C125.6,126.2,125.5,126.4,125.4,126.5z"/>
			<path id="Shape_26_" class="st10" d="M87.3,145.1h-1.6h-1.2c-0.6,0-1.2-0.1-1.8-0.3l-1.5-0.5c-0.3-0.1-0.6-0.2-0.9-0.4l-1-0.6
				c-0.4-0.3-0.8-0.6-1.1-1l-0.6-0.6c-0.2-0.3-0.3-0.7-0.2-1l0.1-0.3c0.1-0.5,0.4-0.9,0.7-1.3l0.1-0.1c0.4-0.3,0.7-0.6,1.2-0.8
				l0.4-0.2c0.3-0.2,0.7-0.3,1.1-0.4l1.2-0.3c0.6-0.2,1.4-0.3,2-0.4c0.6,0,2.3-0.1,2.3-0.1c0,0,0.1,0,0.2,0c0.2,0,0.4,0,0.6,0
				c0.2,0,0.3,0,0.5,0c0.6,0,1.1,0.1,1.6,0.1c0.9,0,1.9,0.2,2.7,0.6c0.3,0.1,0.5,0.3,0.8,0.4l1.1,0.8c0.4,0.3,0.7,0.6,1.1,0.9l1,1
				l1.5,1.4l-2.3,0.8l-2.8,1.1c-0.1,0-0.1,0.1-0.2,0.1l-2.6,0.8c-0.6,0.2-1.4,0.3-2,0.3H87.3z"/>
			<path id="Shape_27_" class="st10" d="M144.1,142c-0.2,0-0.5,0-0.7,0c-0.1,0-0.1,0-0.2,0h-1.3h-3.1c-0.3,0-0.5,0-0.8-0.1l-2.7-0.5
				c-0.4-0.1-0.8-0.2-1.2-0.3c-0.7-0.2-1.9-0.6-2-0.6c-0.2-0.1-1.2-0.6-1.1-0.7"/>
			<path id="Shape_28_" class="st10" d="M131,139.8c0.2-0.2,1.3-1.3,1.3-1.3l1.4-1.3c0,0,0.1-0.1,0.1-0.1c0.2-0.2,0.5-0.4,0.7-0.5
				l1.9-1.1l2.2-1.5c0.4-0.3,0.8-0.5,1.2-0.6l1.5-0.6c0.3-0.1,0.6-0.2,1-0.3c0.2-0.1,0.4-0.1,0.6-0.1l1.3-0.3c1-0.2,2.1-0.2,3.1-0.1
				l1.2,0.2c1,0.1,2,0.4,2.9,0.9l1.4,0.8c0.5,0.3,0.9,0.6,1.3,1l0.2,0.2c-0.3,1.2-0.9,2.2-1.7,3.1c-0.4,0.5-1,0.9-1.5,1.3l-0.8,0.5
				c-0.4,0.2-0.9,0.4-1.3,0.6l-2,0.7l-0.2,0.1c-0.9,0.3-1.8,0.5-2.7,0.6"/>
			<path id="Shape_29_" class="st10" d="M103.3,177.4H103c-1,0-1.9-0.4-2.6-1.2l-0.2-0.2c-0.4-0.5-0.6-1.1-0.6-1.7v-2.8
				c0-0.7,0.6-3.3,0.6-3.3c0.4-1.6,3.2-6.2,3.2-6.3c0,0,1.4-3.1,1.5-3.8c0,0,0.7-3.5,0.7-4.1v-4.5c0,0-0.1-4.7-0.2-5.3
				c0,0-0.9-4.3-1.3-5.1l-1.5-3.1"/>
			<path id="Shape_30_" class="st10" d="M106.4,172.8c0.4,0,1.4,0.6,1.4,0.6c0.2,0.1,1,1.6,1,1.8v0.5c0,0.1-0.1,0.3-0.1,0.3
				c-0.1,0.1-0.2,0.1-0.2,0.1c-0.6,0.1-1.7,0.2-1.8,0.1c-0.4-0.1-0.7-0.1-1-0.2c-0.2,0-0.3,0-0.5-0.1c-0.3-0.1-0.5-0.1-0.6-0.2
				c-0.6-0.2-1-0.7-1-1.1c-0.1-0.8,0.7-1.3,0.9-1.4C104.4,173.3,104.8,173.1,106.4,172.8z"/>
			<path id="Shape_31_" class="st10" d="M119.7,174.1l0.7-0.8c0.4-0.3,1.1-0.9,2.1-1.2c0.7-0.2,1.3-0.3,1.8-0.3
				c0.5,0,1.5,0.3,1.5,0.3c0.5,0.2,0.9,0.6,1,1.1c0,0,0.2,0.9-0.2,1.3c-0.2,0.2-0.6,0.6-1.2,0.8c-0.7,0.3-1.4,0.2-1.7,0.2
				c-0.3,0-0.7-0.1-1-0.1c-0.4-0.1-0.7-0.1-0.7-0.1c-0.6-0.1-1.2-0.4-1.8-0.8L119.7,174.1z"/>
			<path id="Shape_32_" class="st10" d="M126.7,177h0.5c0.7,0,1.4-0.2,1.9-0.6l0.7-0.6c0.2-0.2,0.4-0.4,0.6-0.6l0.6-1
				c0.4-0.6,0.6-1.3,0.6-2v-1.6c0-0.2,0-0.4,0-0.5l-0.2-1.4c-0.1-0.6-2-3.8-2-3.8c-0.4-0.4-0.9-0.8-1.3-1.3
				c-0.6-0.6-1.2-1.2-1.7-1.8c-0.5-0.7-1-1.3-1.5-2c-0.3-0.5-0.6-1-0.8-1.6c-0.6-1.9-1.3-4.1-1.8-6.5c-0.5-2.3-0.9-4.4-1.1-6.3
				c-0.1-0.3-0.1-0.5-0.2-0.8c0-0.3-0.1-0.6-0.1-0.8l-0.2-2c-0.1-1.2-0.1-2.3,0-3.5c0.1-0.8,0.2-1.6,0.3-2.3"/>
			<path id="Shape_33_" class="st10" d="M93.2,193.3h0.2l6.3,0.4c0.9,0,1.7,0,2.5-0.1c0,0,4.9-0.8,6.1-0.8c0.9-0.2,3.2,0.5,4.2,0.4
				c0.8,0,2.9-0.3,3.6-0.4c1.6-0.1,3.3,0.1,3.9,0.1c3.5-0.4,4.7-0.6,4.7-0.6c1.9-0.2,4.8-0.1,6.7,0.5c2.2,0.7,4.5,0.8,6.8,0.5
				l0.5-0.1c0.7-0.1,1.5-0.3,2.1-0.4l2.1-0.5l-6.4,2.9c-1.3,0.6-7.3,1.8-7.3,1.8c-0.8,0.1-11.8,0.9-11.8,0.9
				c-0.5,0-10.6,0.3-11.8,0.2c0,0-3.2-0.5-5.8-1c-1.9-0.4-3.7-1.3-5.2-2.6l-1.2-0.9L93.2,193.3"/>
			<path id="Shape_34_" class="st10" d="M93.3,193.3L93.3,193.3l0.1,0.3l0.1,0.3l0.5,1.8c0.5,2,2.3,3.4,3.6,5.1l4.3,3.4
				c0.3,0.4,1.5,1.1,3,1.8c1.2,0.6,2.1,0.8,3.4,1.1c1.1,0.2,3.1,0.5,5,0.7c0.1,0,3.3,0.3,6.7-0.3c3.7-0.7,8.2-1.9,8.2-1.9
				c4.1-1.6,14.8-12.6,15-13.1c0,0-0.1,0-0.1,0.1c-0.2,0.1-0.5,0.3-0.6,0.3l-1.5,1.3l-3.8,2.5c-0.6,0.4-2.4,1.4-3.1,1.7
				c0,0-6.4,1.6-8.9,2.2c-3.2,0.7-1.2,0.4-5.7,1c-0.8,0.1-4.5,0.7-6.7,0.4l-6.7-0.4c-5.5-1.1-11.2-5.8-12.6-7.6
				c-0.2-0.2-0.2-0.3-0.3-0.5"/>
			<path id="Shape_35_" class="st10" d="M108.7,176l0.1,0.1c0.2,0.2,0.6,0.3,0.9,0.3c0.5,0.1,0.9,0.3,1.2,0.6c0.4,0.4,0.8,0.7,1.2,1
				l0.6,0.4c0.3,0.2,0.8,0.3,1.2,0.3h0.1c0.6,0,1.1-0.2,1.6-0.5l0.5-0.3c0.2-0.1,0.4-0.3,0.5-0.4l0.8-1c0.2-0.3,0.4-0.6,0.6-1
				l0.3-0.5l0,0c0.2-0.4,0.5-0.6,0.9-0.8l0.5-0.2"/>
			<polyline id="Shape_36_" class="st10" points="90.7,211.5 90.3,210.7 87.3,204.1 			"/>
			<path id="Shape_37_" class="st10" d="M91.3,212.4l-0.7-1"/>
			<path id="Shape_38_" class="st10" d="M90.7,211.6l1,12.8c0,0,1,9.3,1,10c0,0.7,1.6,5.6,1.6,5.6l2.1,3l8.1,5.1l1.4,7.7l0.6,2.7
				c0.5,2.3,1.5,4.3,3,6.1l2.2,2.7l0.4,0.5l5.6,5.4l3.4-10.8l4.4-12.1l1.7-5.4c0.1-0.3,0.2-0.6,0.4-0.8c1.1-1.5,2.4-2.8,3.8-3.8
				c1.5-1.1,3.1-1.9,4.8-2.5c0.7-0.2,1.4-0.5,2-0.9l1.5-0.9l4.7-2.9l2.7-1.7c2.9-1.8,5.6-4,7.8-6.6l11.9-13.8l7.2-7.6
				c1.8-1.8,2.4-2.8,3-5.3l0.2-1l0.8-3.5l0,0c0-0.1-0.7,1.3-0.8,1.4l-9.3,10.3c-0.5,0.7-1.1,1.3-1.7,1.8l-8.8,8.7
				c-0.6,0.6-1.2,1.3-1.8,1.9l-6.2,7.9c-1.4,1.7-3.5,3.3-5.3,4.4l-7.6,4.3c-2,1.1-4.7,1.5-6.9,1.8l-4.3,0.7
				c-1.8,0.3-3.5,0.4-5.3,0.4h-2.6c-3.5,0-6.9-0.9-9.9-2.6l-0.6-0.3c-2.5-1.4-4.8-3.3-6.6-5.5l-2.3-2.7c-2.1-2.5-3.8-5.4-4.8-8.6
				l-1.3-3.9L90.7,211.6"/>
			<path id="Shape_39_" class="st10" d="M90.7,211.5c0.1,0.1,0.1,0.1,0.1,0.2"/>
			<path id="Shape_40_" class="st10" d="M104.6,248.2l-17.2-9.1l-1.6-0.8v-7.6c0-4.1,0.7-8.1,2-11.9l2.3-6.7
				c0.1-0.2,0.4-0.7,0.5-0.6"/>
			<path id="Shape_41_" class="st10" d="M85.8,238.3l-2.6,1.7c-0.4,0.3-0.8,0.7-1,1.2l-1.5,3.8c-0.1,0.3-0.2,0.5-0.5,0.7l-2.4,2.3
				c-0.3,0.3-0.7,0.7-1.1,0.9l-4.7,3.2l5-9c0.2-0.3,0.4-0.7,0.5-1.1l1.3-4.4l2-6.5l1.4-4.2c1.6-4.8,3.9-9.3,6.9-13.3l1.1-1.6"/>
			<path id="Shape_42_" class="st10" d="M78.8,237.6l-14,5.8l-12.9,5.1l-13.1,6.4c-0.9,0.4-1.8,0.9-2.6,1.5l-7.8,5.4
				c-1.2,0.9-2.4,1.8-3.5,2.9l-0.2,0.3c-2.2,2.3-4.1,4.9-5.5,7.8l-0.2,0.4l-5.9,16.5l-3.5,15.9l-1.3,11.3h115l0.8-5.9v-13.2v-10.5
				l-1-4c-0.7-2.8-1.9-5.5-3.7-7.8l-1.7-2.2"/>
			<path id="Shape_43_" class="st10" d="M186.2,213.6l5.6,0.3c2.2,0.1,4.4,0.3,6.7,0.6l1.7,0.3c1.2,0.2,2.5,0.4,3.7,0.7l6.1,1.3
				l5,1.4l19.7,6c2,0.6,4,1.5,5.7,2.5c3,1.8,5.6,3.9,7.8,6.5s4.1,5.5,5.4,8.7l1.5,3.5l6.5,19.5l5.7,26.4l3.1,16.7l0,8.9l-147,0"/>
			<path id="Shape_44_" class="st10" d="M143.7,245.4c0-1.6-1.8-2.8-4-2.8c-2.2,0-4,1.3-4,2.8c0,1.6,1.8,2.8,4,2.8
				C141.9,248.2,143.7,246.9,143.7,245.4z"/>
			<ellipse id="Oval_1_" class="st10" cx="117" cy="283" rx="2.7" ry="4.2"/>
			<path id="Shape_45_" class="st10" d="M151.6,197.4c-1.1,4.1-2.6,8.1-4.4,11.8"/>
			<path id="Shape_46_" class="st10" d="M139.8,144.3c3.1,0,6.5,0.6,9.3-1"/>
			<path id="Shape_47_" class="st10" d="M132.1,140.5c-0.7-0.1-2,0.3-1.9-0.4c0.2-0.8,0.6-1.3,1.1-1.9c2.7-3.1,5.6-6.2,9.2-8.3
				c3.6-2.1,8-3,11.9-1.6"/>
			<path id="Shape_48_" class="st10" d="M72.7,140.9c4.1-3.6,9.7-5.5,15.1-5.1c4.1,0.3,8.3,1.8,9.9,5.7c-0.3-1.8-1.4-3.3-2.6-4.6
				c-4.1-4.2-10.3-6.1-16-5c-0.8,0.2-1.6,0.4-2.2,0.9"/>
			<path id="Shape_49_" class="st10" d="M131,139.9C131,139.9,131,139.9,131,139.9c1.1-0.9,1.9-1.8,2.8-2.7c0.4-0.4,0.9-0.8,1.4-1.2
				c1.2-1,2.4-1.9,3.7-2.8c6.3-3.8,15-2.8,20.4,2.2"/>
			<path id="Shape_50_" class="st10" d="M84.4,147.6c2.9-0.4,5.7-1.2,8.4-2.3"/>
			<path id="Shape_63_" class="st10" d="M178.1,147.7c-2.4,10.1-9.3,22.1-24.8,34.1c-0.6,0.4-0.6,1.3,0,1.8
				c3.2,2.4,11.1,10.4,2.6,26c-0.7,1.2-6.7,9.2-9.3,12c-2.6,2.8-5.1,4.5-6,5.1c-3.1,2-13.4,4.7-16.5,4.9c-2.9,0.2-5.8-0.3-8.6-0.9
				c-4.4-1-8.7-2.3-12.3-5c-3-2.2-5.3-5.3-7.6-8.2"/>
			<path id="Shape_52_" class="st10" d="M87.4,239.1c3.2,3.2,6.3,6.5,8.8,10.3c1.7,2.7,3.1,5.7,5,8.3c2.8,3.9,6.7,6.8,10.6,9.6
				c0.4,0.3,0.9,0.6,1.3,0.9"/>
			<path id="Shape_53_" class="st10" d="M130.2,276.4c6.9-6.4,14.2-12.3,21.9-17.5"/>
			<path id="Shape_54_" class="st10" d="M143.7,262.2c4.7-4.6,10.6-7.9,16.9-9.6"/>
			<path id="Shape_55_" class="st10" d="M199.4,220.3c3.3,1.2,4.6,5.2,5.3,8.7c1,4.9,1.6,10.2-0.5,14.7"/>
			<path id="Shape_56_" class="st10" d="M206.2,251.3"/>
			<path id="Shape_57_" class="st10" d="M202.2,263.5c0,0.3,0,0.5,0,0.8"/>
			<path id="Shape_58_" class="st10" d="M203.4,256.1c-1.9,9.9,0.2,20.1,2.3,30"/>
			<path id="Shape_59_" class="st10" d="M207.1,267.7c0.4,3,0.9,6,1.4,9.1"/>
			<path id="Shape_60_" class="st10" d="M214.1,241.4c6.8,4.8,12.9,10.3,18.4,16.5"/>
			<path id="Shape_61_" class="st10" d="M217.4,223.3c3.6,2.9,7,6.1,10.2,9.6"/>
			<path id="Shape_62_" class="st10" d="M18.1,295.6c0,0.4,0,0.7,0,1.1"/>
		</g>
		<g id="eyeright" transform="translate(131.000000, 132.000000)">
			<path id="Combined-Shape" class="st11" d="M12.4,10c-0.1,0-0.1,0-0.2,0h-1.3H7.8C7.5,10,7.2,10,7,9.9L4.3,9.5
				C3.9,9.4,3.5,9.3,3.1,9.2C2.4,9,1.2,8.6,1.1,8.6C1,8.5-0.1,8,0,7.9l0,0c1-0.8,1.9-1.8,2.8-2.7C3.1,5,3.3,4.8,3.6,4.7l1.9-1.1
				l2.2-1.5C8,1.9,8.4,1.7,8.9,1.5L10.3,1c0.3-0.1,0.6-0.2,0.9-0.3l0-0.1c0.2-0.1,0.4-0.1,0.6-0.1l1.3-0.3c1-0.2,2.1-0.2,3.1-0.1
				l1.2,0.2c1,0.1,2,0.4,2.9,0.9L21.7,2c0.5,0.3,1,0.6,1.3,1l0.2,0.2c-0.3,1.2-0.9,2.2-1.7,3.1c-0.4,0.5-1,0.9-1.5,1.3L19.2,8
				c-0.4,0.2-0.9,0.4-1.3,0.6l-2,0.7l-0.2,0.1c-0.8,0.3-1.6,0.4-2.5,0.5c-0.1,0-0.1,0-0.2,0c0,0,0,0,0,0C12.9,10,12.6,10,12.4,10z
				 M11.3,0.7c0.4-0.1,0.8-0.1,1.2-0.1c0,0,0,0,0,0C12.1,0.6,11.7,0.6,11.3,0.7L11.3,0.7z"/>
		</g>
		<path id="eye-right" class="st12" d="M143.5,132.6c2.7,0,4.9,2.1,4.9,4.7c0,2.4-1.9,4.4-4.3,4.7c0,0,0,0,0,0c-0.2,0-0.5,0-0.7,0
			c-2.7-0.1-4.8-2.2-4.8-4.7c0-2.2,1.6-4,3.7-4.6C142.7,132.6,143.1,132.6,143.5,132.6z M144,137.6c0.2-0.3,0.2-0.4,0.2-0.8
			s-0.2-0.6-0.5-0.7c-0.2-0.1-0.4-0.1-0.6,0c-0.4,0.2-0.6,0.6-0.6,0.7c0,0.1-0.1,0.4,0.1,0.8c0.2,0.3,0.6,0.3,0.8,0.3
			c0.2,0,0.3,0,0.3-0.1C143.9,137.8,144,137.7,144,137.6z"/>
		<g id="eyeleft" transform="translate(77.000000, 136.000000)">
			<path id="Combined-Shape_1_" class="st11" d="M11.8,9c-0.4,0.1-0.9,0.2-1.4,0.2c-0.2,0-0.3,0-0.5,0H8.7H7.5
				C6.9,9.1,6.3,9,5.8,8.8L4.2,8.3C3.9,8.2,3.6,8.1,3.3,7.9l-1-0.6C2,7,1.6,6.7,1.2,6.3L0.7,5.7c-0.2-0.3-0.3-0.7-0.2-1l0.1-0.3
				c0.1-0.5,0.4-0.9,0.7-1.3L1.3,3c0.4-0.3,0.7-0.6,1.2-0.8L2.9,2C3.3,1.8,3.7,1.7,4,1.6l1.2-0.3c0.6-0.2,1.4-0.3,2-0.4
				c0.6,0,2.3-0.1,2.3-0.1c0,0,0.1,0,0.2,0c0.2,0,0.4,0,0.6,0v0.2c0,0,0,0,0.1,0c0,0,0,0,0,0V0.7c0.2,0,0.3,0,0.5,0
				c0.6,0,1.1,0.1,1.6,0.1c0.9,0,1.9,0.2,2.7,0.6c0.3,0.1,0.5,0.3,0.8,0.4l1.1,0.8c0.4,0.3,0.7,0.6,1.1,0.9l1,1L20.6,6l-2.3,0.8
				l-2.8,1.1c-0.1,0-0.1,0.1-0.2,0.1l-2.6,0.8C12.4,8.8,12.1,8.9,11.8,9z"/>
		</g>
		<path id="eye-left" class="st12" d="M87.3,136.9c2.4,0,4.4,1.8,4.4,4c0,2.2-2,4-4.4,4s-4.4-1.8-4.4-4
			C82.9,138.7,84.9,136.9,87.3,136.9z M88,141.1c0.2-0.2,0.2-0.6,0.1-0.8c-0.2-0.3-0.6-0.4-0.7-0.5c-0.5-0.1-0.9,0.2-1,0.3
			c0,0.1-0.1,0.1-0.1,0.3c0,0.1,0,0.2,0.1,0.4c0.1,0.3,0.1,0.4,0.4,0.5C87.3,141.4,87.7,141.4,88,141.1z"/>
	</g>
</g>
</svg>
