<?xml version="1.0" encoding="UTF-8"?>
<svg width="878px" height="1015px" viewBox="0 0 878 1015" version="1.1" xmlns="http://www.w3.org/2000/svg" xmlns:xlink="http://www.w3.org/1999/xlink">
    <!-- Generator: Sketch 50.2 (55047) - http://www.bohemiancoding.com/sketch -->
    <title>julien</title>
    <desc>Created with Sketch.</desc>
    <defs></defs>
    <g id="Page-1" stroke="none" stroke-width="1" fill="none" fill-rule="evenodd">
        <g id="julien">
            <path d="M465.26,615.5 C465.26,615.5 439.61,659.76 381.61,653.82 C381.61,653.82 342.77,662.55 303.21,618.4 L308.58,620.65 C313.338039,624.55892 318.900421,627.369136 324.87,628.88 C324.87,628.88 348.28,635.07 361.47,635.35 L383,635.35 L402,634.26 C410.785645,633.316853 419.512334,631.888 428.14,629.98 C440.36,626.48 459.89,617.98 465.07,615.12 L465.26,615.5 Z" id="Shape" fill="#51222B" fill-rule="nonzero"></path>
            <path d="M407.57,614.18 C418.16,614.33 435.9,618.18 435.9,618.18 C449.56,619.58 454,617.6 454,617.6 C456.35,617.28 466.27,614.17 466.27,614.17 C466.54,614.17 466.07,614.54 465.04,615.1 C459.86,617.93 440.33,626.46 428.11,629.96 C419.482334,631.868 410.755645,633.296853 401.97,634.24 L382.97,635.33 L361.44,635.33 C348.25,635.05 324.84,628.86 324.84,628.86 C318.870421,627.349136 313.308039,624.53892 308.55,620.63 L303.18,618.38 C312.082673,620.031884 321.179524,620.368805 330.18,619.38 C337.822943,617.63851 345.631446,616.726568 353.47,616.66 C361.83,616.66 368.47,621.2 380.28,619.84 C386.71,618.31 398.56,614.06 407.57,614.18 Z" id="Shape" fill="#D85B6D" fill-rule="nonzero"></path>
            <path d="M577.71,468.64 C569.71,501.73 548.14,543.77 494.95,582.97 C494.95,582.97 543.09,608.33 507.44,668.86 C485.33,706.44 460.77,721.54 457.69,723.44 C447.58,729.72 406.34,740.98 376.44,736.06 C362.2,733.72 348.16,728.68 336.44,720.2 C326.7,713.12 319.22,703.43 311.89,693.88 C303.89,683.49 295.75,673.02 293.18,670.08 L292.35,670.46 L284.27,652.93 C283.71,652.18 206.54,549.1 201.8,484.93 C199.93,459.58 203.74,434.05 201.8,408.71 C200.42,390.89 196.2,373.06 198.51,355.34 C203.12,320.05 232.76,292.85 264.67,277.08 C275.35,271.8 288.97,267.68 298.45,274.89 C292.57,280.53 300.01,290.8 308.06,291.97 C316.11,293.14 324.3,289.76 332.37,290.83 C341.08,291.98 348.21,298.05 356.06,301.99 C363.91,305.93 374.85,307.15 380.32,300.27 C409.309075,316.79313 443.727672,320.955798 475.82,311.82 C482.82,309.82 490.06,307.14 497.06,308.98 C502.41,310.38 506.72,314.2 511.22,317.41 C521.46809,324.698885 533.444426,329.180531 545.96,330.41 C554.871286,344.960688 561.412911,360.835437 565.34,377.44 C567.15,381.76 568.95,386.08 570.5,390.5 C579.19,415.36 579.34,442.27 579.32,468.6 L577.71,468.64 Z M434,439.71 L430.12,443.29 L425.77,447.44 C425.64,447.57 427.22,448.36 429.48,449.29 C432.750627,450.685465 436.154852,451.74426 439.64,452.45 C439.64,452.45 446.29,453.71 449.87,454.09 C450.483333,454.15 451.093333,454.18 451.7,454.18 L466.32,454.18 C466.988541,454.182596 467.656566,454.142515 468.32,454.06 L468.39,454.06 C471.374999,453.820432 474.319875,453.219368 477.16,452.27 L484.04,449.78 C485.483617,449.255771 486.884471,448.620539 488.23,447.88 C488.23,447.88 489.7,446.88 491.4,445.7 C493.1,444.52 495,443.15 495.86,442.4 C498.382437,439.513602 500.221397,436.095461 501.24,432.4 L500.55,431.7 C499.29,430.44 491.86,426.17 491.86,426.17 C488.98,424.63 478.65,422.7 478.65,422.7 C475.244303,422.252787 471.789816,422.337125 468.41,422.95 C466.091775,423.28024 463.794602,423.744349 461.53,424.34 C460.709368,424.558455 459.901464,424.822193 459.11,425.13 L454.35,426.94 C450.477243,428.786784 446.729263,430.884584 443.13,433.22 C443.13,433.22 438.76,436.22 435.41,438.63 C434.914446,438.955351 434.443204,439.316303 434,439.71 Z M313.06,449.26 C313.06,449.26 307.53,444.1 304.57,442.54 C304.57,442.54 297.33,437.4 284.34,437.32 C283.73,437.32 283.1,437.32 282.46,437.32 L281.89,437.32 C281.8,437.32 263.74,437.97 255.15,444.66 C253.060945,446.424926 251.982268,449.110382 252.27,451.83 C252.452836,453.556973 253.357291,455.126148 254.76,456.15 C257.934365,458.493684 261.46193,460.316541 265.21,461.55 C268.118692,462.333218 271.079535,462.908009 274.07,463.27 C277.471165,463.712584 280.901011,463.896445 284.33,463.82 L285.09,463.82 C298.68,463.26 306.83,459.4 310.6,457.43 L315.91,454.48 C316.220193,454.372707 316.451958,454.111385 316.521428,453.790596 C316.590899,453.469807 316.488012,453.136013 316.25,452.91 L313.06,449.26 Z M353.51,562.96 C353.782358,562.698317 353.937427,562.33769 353.94,561.96 L353.94,560.44 C353.94,559.55 351.05,554.83 350.57,554.5 L345.94,552.73 C339.2,552.73 338.83,554.31 338.83,554.31 C336.83,557.31 336.89,556.42 336.83,558.85 C336.83,562.9 343.23,563.26 343.83,563.32 C344.56,563.41 350.77,563.52 352.68,563.32 C352.989071,563.295914 353.281219,563.169199 353.51,562.96 Z M407.57,614.18 C398.57,614.06 386.71,618.31 380.32,619.82 C368.5,621.18 361.87,616.64 353.51,616.64 C345.671446,616.706568 337.862943,617.61851 330.22,619.36 C321.219524,620.348805 312.122673,620.011884 303.22,618.36 C303.65,620.15 318.65,679.99 384.78,674.71 C451.45,669.38 465.27,615.46 465.27,615.46 L465.05,615.07 C466.05,614.51 466.55,614.17 466.28,614.14 C466.28,614.14 456.36,617.25 454.01,617.57 C454.01,617.57 449.57,619.57 435.91,618.15 C435.9,618.19 418.16,614.33 407.57,614.18 Z M389.06,556.76 L390.82,558.12 C392.492469,559.402757 394.429183,560.297676 396.49,560.74 C396.49,560.74 405.2,561.91 407.57,561.03 C409.044973,560.477828 410.380013,559.60715 411.48,558.48 C412.59,557.37 410.34,551.48 408.75,550.82 C407.145823,550.32982 405.498249,549.994947 403.83,549.82 C399.236557,549.682185 394.764353,551.306489 391.33,554.36 L389.06,556.76 Z M512.65,378.22 C512.650528,378.05886 512.609177,377.900348 512.53,377.76 L510.87,374.85 C510.109659,373.518574 508.922266,372.482688 507.5,371.91 L498.77,368.44 L490.1,366.27 C487.627991,365.65099 485.03828,365.678541 482.58,366.35 L470.15,369.74 C469.530842,369.908033 468.928337,370.132299 468.35,370.41 L452.35,378.03 L430.58,388.91 L418.58,395.79 C418.133038,396.04524 417.705242,396.332666 417.3,396.65 L408.85,403.32 C408.328702,403.737898 407.867673,404.225849 407.48,404.77 L404.73,408.65 C404.055936,409.604513 403.881105,410.824606 404.26,411.93 C405.054677,414.291286 407.268579,415.881269 409.76,415.88 C410.095327,415.87937 410.429949,415.849254 410.76,415.79 C412.3979,415.501778 413.969984,414.919023 415.4,414.07 C419.53,411.62 428.27,406.48 429.06,406.28 C430.06,406.02 454.98,395.65 454.98,395.65 L476.49,386.84 L489.42,382.31 C491.153529,381.708916 492.975219,381.401358 494.81,381.4 L505.26,381.4 L506.74,381.56 C509.47,382.47 510.99,381.21 512.49,378.76 C512.593967,378.599046 512.649503,378.411612 512.65,378.22 Z M325.77,416.44 C326.313678,414.51648 325.415951,412.477717 323.63,411.58 C323.07,411.35 322.25,411.01 321.28,410.58 C316.414367,408.433222 311.774777,405.806913 307.43,402.74 C300.74,397.95 298.74,394.74 291.35,391.57 C291.35,391.57 258.35,382.67 258.09,382.65 C254.23196,381.771333 250.30917,381.206156 246.36,380.96 C245.91,380.96 245.42,380.96 244.91,380.91 C236.544096,380.87259 228.357629,383.334449 221.4,387.98 L217.9,390.28 L214.5,393.67 L214.36,393.89 C212.579713,396.553329 211.632812,399.686457 211.64,402.89 C211.637922,403.587853 211.809765,404.275225 212.14,404.89 L212.31,405.22 C212.840637,406.252209 213.776546,407.017326 214.893644,407.332162 C216.010742,407.646998 217.208449,407.483205 218.2,406.88 C218.353131,406.778894 218.500062,406.668696 218.64,406.55 C222.661453,403.099221 227.32848,400.481879 232.37,398.85 C232.910129,398.678585 233.473324,398.590902 234.04,398.59 L234.5,398.59 L258.59,400.76 C260.961486,400.977054 263.306012,401.425863 265.59,402.1 L295.64,410.88 L296.02,411.01 L316.59,419.19 C317.089374,419.389341 317.622311,419.491176 318.16,419.49 L321.54,419.49 C323.475953,419.541896 325.207716,418.293225 325.77,416.44 Z" id="Shape" fill="#EFC36A" fill-rule="nonzero"></path>
            <path d="M877.32,985.38 L877.32,1009.65 L400.98,1013.65 L403.69,994.65 L403.69,918.65 L400.6,905.73 C398.413198,896.617151 394.274606,888.08749 388.47,880.73 L383.02,873.8 L393.92,839.45 L408.11,800.62 L413.62,783.39 C413.930593,782.435405 414.393207,781.537191 414.99,780.73 C418.462656,776.055875 422.631027,771.941463 427.35,768.53 C432.07095,765.117796 437.293179,762.459452 442.83,760.65 C445.069359,759.92 447.219533,758.940513 449.24,757.73 L454,754.89 L456.38,754.78 C462.813727,754.475576 469.181392,756.192503 474.59,759.69 L493.48,771.88 C500.763498,776.582493 507.428793,782.17946 513.32,788.54 L532.82,809.54 L555.23,832.69 L573.04,807.05 C576.718355,801.753301 579.850995,796.097796 582.39,790.17 L591.87,768.08 C594.323617,762.369221 597.177379,756.838804 600.41,751.53 L608.41,738.41 C612.209728,732.181323 614.219948,725.026187 614.22,717.73 C614.217679,705.966663 611.061436,694.419093 605.08,684.29 L604.51,683.29 L622.51,684.04 C629.73,684.34 636.94,685.04 644.1,686.04 L649.73,686.84 C653.73,687.4 657.706667,688.096667 661.66,688.93 L681.5,693.11 L697.77,697.57 L761.44,716.92 C767.94858,718.899662 774.204148,721.631438 780.08,725.06 C799.228579,736.228995 814.297646,753.236013 823.08,773.59 L827.96,784.9 L848.88,847.32 L867.29,931.84 L877.32,985.38 Z M466.77,784.89 C466.77,779.89 461.05,775.77 453.99,775.77 C446.93,775.77 441.22,779.85 441.22,784.89 C441.22,789.93 446.94,794 453.99,794 C461.04,794 466.77,789.92 466.77,784.89 Z" id="Shape" fill="#777475" fill-rule="nonzero"></path>
            <path d="M722.32,358.62 L765.5,344.62 C756.137698,354.680325 748.921196,366.54111 744.29,379.48 L764.87,372.9 C765.002737,378.603032 761.721534,383.835647 756.53,386.2 C761.868887,387.857802 765.342791,392.998017 764.89,398.57 C757.528662,410.001713 753.840318,423.41165 754.32,437 C754.534551,429.61919 756.833083,422.449712 760.95,416.32 C765.74,433.02 757.25,452.52 741.77,460.4 C736.172776,478.623576 736.816789,498.193837 743.6,516.01 L762.23,481.25 C755.906049,516.562252 744.121521,550.674295 727.3,582.36 C726.05,573.21 732.3,564.81 734.04,555.74 C735.78,546.67 727.77,534.49 719.77,539.11 C713.19,542.91 715.51,552.66 716.93,560.11 C720.118747,576.772824 714.018113,593.854118 700.994973,604.726819 C687.971833,615.59952 670.075788,618.552468 654.25,612.44 C644.270437,627.192551 632.135575,640.365618 618.25,651.52 C610.83065,657.459581 600.171238,657.033205 593.25,650.52 C588.746723,646.327147 584.773823,641.598624 581.42,636.44 C579.468668,633.413697 578.449783,629.880638 578.49,626.28 L578.55,619.82 C579.023333,569.493333 579.28,519.16 579.32,468.82 L579.32,468.6 C579.32,442.27 579.19,415.36 570.5,390.5 C568.95,386.08 567.15,381.76 565.34,377.44 C561.409901,360.845832 554.868366,344.981427 545.96,330.44 C533.444426,329.210531 521.46809,324.728885 511.22,317.44 C506.72,314.23 502.41,310.44 497.06,309.01 C490.06,307.17 482.78,309.83 475.82,311.85 C443.727672,320.985798 409.309075,316.82313 380.32,300.3 C374.85,307.18 363.91,305.96 356.06,302.02 C348.21,298.08 341.06,292.02 332.37,290.86 C324.3,289.79 316.12,293.17 308.06,292 C300,290.83 292.57,280.56 298.45,274.92 C288.97,267.71 275.35,271.83 264.67,277.11 C232.76,292.88 203.12,320.11 198.51,355.37 C196.2,373.09 200.42,390.92 201.8,408.74 C203.8,434.08 199.96,459.61 201.8,484.96 C206.54,549.1 283.71,652.18 284.27,652.96 C272.58,658.06 261.27,645.62 253.98,635.17 C234.882435,607.937379 211.621724,583.876902 185.05,563.87 C180.6,560.52 175.87,557.21 170.4,556.15 C165.69,555.25 160.73,556.09 156.11,554.82 C149.45,553 146.27,545.58 140.5,541.82 C86.35,506.27 58.82,472.57 124.61,439.2 C136.2,433.32 87.11,427.96 77.85,418.84 C51.29,445.52 36.98,465.7 48.63,501.5 C39.45,489.73 30.63,477.27 26.42,462.94 C22.21,448.61 23.35,431.94 32.7,420.35 C41.3,409.66 55.09,404.87 66.29,396.94 C77.49,389.01 86.6,373.94 79.76,362.01 L14.1,399.68 C10.47,401.77 5.64,403.82 2.6,400.19 C0.929262723,398.108186 0.587942585,395.257387 1.72,392.84 C10.7426615,372.898943 27.98611,357.863386 48.97,351.64 C35.0510813,341.153383 16.6478496,338.746193 0.5,345.3 L9.02,328.4 C20.19,340.4 41.19,337.33 53.36,326.31 C65.53,315.29 71.09,298.94 76.19,283.31 C52.34,258.61 41.07,222.31 46.72,188.47 C47.1,215.54 76.15,238.28 102.52,232.15 C92.74,226.07 94.18,210.22 102.39,202.15 C110.6,194.08 122.68,191.7 134.02,189.7 C112.21,171.5 75.64,175.21 57.94,197.42 C77.09,155.32 124.56,127.98 170.58,132.53 C163.83,114.38 176.42,91.68 195.39,87.78 C201.21,86.59 207.66,86.78 212.46,83.31 C221.98,76.38 218,61.5 212.7,50.98 C207.4,40.46 202.13,26.45 210.49,18.16 C217.6,33.38 226.73,50.33 243.07,54.25 C246.66,55.12 250.53,55.25 253.69,57.25 C259.39,60.66 260.82,68.15 264.63,73.58 C270.63,82.18 283.77,84.77 292.63,79.13 C295.151609,75.0624833 294.818416,69.8438075 291.8,66.13 C285.763963,53.3386962 283.485541,39.0959559 285.23,25.06 C285.713087,20.4811562 287.728699,16.199742 290.95,12.91 C301.23,2.91 316.87,11.53 330.56,12.05 C331.86,12.05 332.67,30.05 333.76,29.36 C337.76,26.77 330.63,6.36 332.26,8.36 C354.4,35.65 383.82,41.82 418.09,33.85 C429.82,31.13 413.6,58.44 424.88,62.62 C436.16,66.8 449.03,60.91 457.35,52.2 C465.67,43.49 470.78,32.31 477.35,22.2 C483.92,12.09 493.01,2.58 504.83,0.32 C507.28,22.44 492.13,40.78 483.83,61.43 C476.21,80.43 512.95,99.63 553.24,121.54 C557.543392,123.946931 562.563809,124.741121 567.4,123.78 L592.82,156.01 C594.74,158.45 596.82,161.01 599.75,162.01 C602.28,162.9 605.07,162.52 607.67,161.86 C633.18,155.46 653.21,125.12 678.48,132.4 C676.48,145.28 662.85,152.81 650.27,156.21 C643.8,157.96 614.07,167.21 608.72,176.36 C603.66,185 622.95,193.42 618.3,197.73 C613.48,202.2 671.21,178.82 702.81,182.24 C708.43,182.85 728.69,181.02 728.67,182.17 C728.65,183.32 706.23,190.07 702.27,191.65 C674.57,202.65 610.41,210.81 616.79,216.1 C618.867753,217.831046 621.211202,219.215504 623.73,220.2 C631.02,223.04 640.09,223.5 644.63,229.88 C647.13,233.39 647.63,238.03 650.12,241.53 C655.63,249.26 667.12,247.95 676.48,249.53 C685.84,251.11 695.02,263.53 687.19,268.89 C679.610702,263.659884 669.941021,262.50027 661.34,265.79 L675.2,276 C667.41,277.78 670.01,291 677.5,293.75 C684.99,296.5 693.2,293.38 701.12,292.33 C709.04,291.28 719.23,294.33 720.19,302.24 C720.51,304.91 719.66,307.57 719.39,310.24 C718.5,318.94 723.72,326.91 726.83,335.07 C729.94,343.23 730.03,354.49 722.32,358.62 Z" id="Shape" fill="#77582F" fill-rule="nonzero"></path>
            <path d="M614.22,717.72 C614.219948,725.016187 612.209728,732.171323 608.41,738.4 L600.41,751.52 C597.177379,756.828804 594.323617,762.359221 591.87,768.07 L582.39,790.16 C579.850995,796.087796 576.718355,801.743301 573.04,807.04 L555.23,832.68 L532.82,809.53 L513.32,788.53 C507.428793,782.16946 500.763498,776.572493 493.48,771.87 L474.59,759.68 C469.181392,756.182503 462.813727,754.465576 456.38,754.77 L454,754.88 L469.35,745.72 L478.19,740.44 C487.669256,734.79004 496.186316,727.663796 503.42,719.33 L541.77,675.13 L564.93,650.96 C570.64,645.38 572.65,641.87 574.54,634.11 L575.31,630.96 L580.31,645.96 C588.58,657.45 594.2,671.01 604.51,683.28 L605.08,684.28 C611.061436,694.409093 614.217679,705.956663 614.22,717.72 Z" id="Shape" fill="#4F484B" fill-rule="nonzero"></path>
            <path d="M611.93,95.35 C618.56,91.24 625.41,88.29 632.56,88.06 C625.58,90.1666667 618.703333,92.5966667 611.93,95.35 Z" id="Shape" fill="#77582F" fill-rule="nonzero"></path>
            <path d="M579.32,468.64 L579.32,468.86 C579.266667,519.193333 579.01,569.526667 578.55,619.86 L578.03,619.86 C578.03,619.58 575.7,623.93 575.34,624.36 L545.14,657.22 C543.4,659.29 541.56,661.22 539.63,663.15 L511.18,690.89 C509.18,692.83 507.26,694.89 505.42,696.96 L485.33,722.17 C480.3619,727.749229 474.514715,732.478321 468.02,736.17 L443.44,750.04 C436.97,753.6 428.28,754.84 420.98,755.97 L406.98,758.15 C401.269568,759.037726 395.499021,759.482386 389.72,759.48 L381.2,759.48 C369.960343,759.480091 358.910822,756.579936 349.12,751.06 L347.19,749.98 C339.080744,745.399587 331.832205,739.440353 325.77,732.37 L318.51,723.9 C311.602394,715.84516 306.303386,706.540495 302.9,696.49 L298.71,684.11 L295.3,676.73 C295.281524,676.630016 295.236639,676.536794 295.17,676.46 C295.17,676.46 295.17,676.46 295.17,676.46 L292.43,670.52 L293.26,670.14 C295.83,673.08 303.98,683.55 311.97,693.94 C319.3,703.49 326.78,713.18 336.52,720.26 C348.19,728.74 362.23,733.78 376.52,736.12 C406.42,741.04 447.66,729.78 457.77,723.5 C460.83,721.6 485.41,706.5 507.52,668.92 C543.17,608.39 495.03,583.03 495.03,583.03 C548.22,543.83 569.78,501.79 577.79,468.7 L579.32,468.64 Z" id="Shape" fill="#23171B" fill-rule="nonzero"></path>
            <path d="M575.34,624.33 C575.7,623.9 578.03,619.55 578.03,619.83 L575.33,630.93 L574.56,634.08 C572.67,641.84 570.66,645.35 564.95,650.93 L541.77,675.13 L503.41,719.29 C496.182439,727.637207 487.668636,734.777054 478.19,740.44 L469.35,745.72 L454,754.88 L449.24,757.72 C447.219533,758.930513 445.069359,759.91 442.83,760.64 C437.293179,762.449452 432.07095,765.107796 427.35,768.52 C422.631027,771.931463 418.462656,776.045875 414.99,780.72 C414.393207,781.527191 413.930593,782.425405 413.62,783.38 L408.11,800.61 L393.92,839.44 L383.02,873.79 L367.02,858.73 L364.78,856.62 L356.34,846.56 C351.578617,840.899194 348.230032,834.188314 346.57,826.98 L344.57,818.53 L340.09,793.89 L314.02,777.44 L307.3,767.73 C307.3,767.73 302.07,752.05 302.07,749.81 C302.07,747.57 298.68,717.7 298.68,717.7 L295.29,676.7 L298.7,684.08 L302.89,696.46 C306.293386,706.510495 311.592394,715.81516 318.5,723.87 L325.76,732.34 C331.824348,739.414838 339.076383,745.377548 347.19,749.96 L349.12,751.04 C358.910822,756.559936 369.960343,759.460091 381.2,759.46 L389.77,759.46 C395.549021,759.462386 401.319568,759.017726 407.03,758.13 L421.03,755.95 C428.33,754.82 437.03,753.58 443.49,750.02 L468.07,736.15 C474.564715,732.458321 480.4119,727.729229 485.38,722.15 L505.47,696.94 C507.31,694.84 509.23,692.81 511.23,690.87 L539.68,663.13 C541.61,661.24 543.45,659.27 545.19,657.2 L575.34,624.33 Z" id="Shape" fill="#D8B461" fill-rule="nonzero"></path>
            <path d="M512.53,377.76 C512.609177,377.900348 512.650528,378.05886 512.65,378.22 C512.649474,378.391788 512.604702,378.560544 512.52,378.71 C511.02,381.16 509.52,382.42 506.77,381.51 L505.29,381.35 L494.84,381.35 C493.005219,381.351358 491.183529,381.658916 489.45,382.26 L476.52,386.79 L455.01,395.6 C455.01,395.6 430.12,405.97 429.09,406.23 C428.3,406.43 419.56,411.57 415.43,414.02 C413.999984,414.869023 412.4279,415.451778 410.79,415.74 C410.459949,415.799254 410.125327,415.82937 409.79,415.83 C407.298579,415.831269 405.084677,414.241286 404.29,411.88 C403.911105,410.774606 404.085936,409.554513 404.76,408.6 L407.51,404.72 C407.897673,404.175849 408.358702,403.687898 408.88,403.27 L417.33,396.6 C417.735242,396.282666 418.163038,395.99524 418.61,395.74 L430.61,388.86 L452.38,377.98 L468.38,370.36 C468.958337,370.082299 469.560842,369.858033 470.18,369.69 L482.61,366.3 C485.06828,365.628541 487.657991,365.60099 490.13,366.22 L498.77,368.44 L507.46,371.96 C508.882266,372.532688 510.069659,373.568574 510.83,374.9 L512.53,377.76 Z" id="Shape" fill="#4F3508" fill-rule="nonzero"></path>
            <path d="M500.45,431.71 L501.14,432.41 C500.121397,436.105461 498.282437,439.523602 495.76,442.41 C494.9,443.16 492.99,444.53 491.3,445.71 C489.61,446.89 488.13,447.89 488.13,447.89 C486.784471,448.630539 485.383617,449.265771 483.94,449.79 L477.06,452.28 C474.219875,453.229368 471.274999,453.830432 468.29,454.07 C476.16,453.13 482.29,446.79 482.29,439.07 C482.29,430.74 475.13,423.98 466.29,423.98 C464.682364,423.979317 463.082874,424.208297 461.54,424.66 L461.45,424.32 C463.714602,423.724349 466.011775,423.26024 468.33,422.93 C471.709816,422.317125 475.164303,422.232787 478.57,422.68 C478.57,422.68 488.9,424.61 491.78,426.15 C491.77,426.18 499.19,430.44 500.45,431.71 Z" id="Shape" fill="#EAE8C7" fill-rule="nonzero"></path>
            <path d="M466.27,424.01 C475.09,424.01 482.27,430.77 482.27,439.1 C482.27,446.78 476.18,453.1 468.27,454.1 L468.2,454.1 C467.41,454.17 466.61,454.2 465.81,454.21 C457.19,453.99 450.28,447.33 450.28,439.14 C450.402503,432.377136 454.973499,426.506544 461.5,424.73 C463.047329,424.262868 464.653729,424.020392 466.27,424.01 Z M467.99,437.88 C467.99,434.48 463.24,435.09 463.09,437.83 C463.21,441.96 467.99,441.86 467.99,437.88 Z" id="eye-right" fill="#35290B" fill-rule="nonzero"></path>
            <path d="M465.83,454.17 L451.65,454.17 C451.036667,454.17 450.426667,454.14 449.82,454.08 C446.24,453.7 439.59,452.44 439.59,452.44 C436.104852,451.73426 432.700627,450.675465 429.43,449.28 C427.17,448.35 425.59,447.56 425.72,447.43 L430.12,443.28 L434,439.7 C434.41145,439.313528 434.849163,438.956007 435.31,438.63 C438.66,436.22 443.03,433.22 443.03,433.22 C446.629263,430.884584 450.377243,428.786784 454.25,426.94 L459.01,425.13 C459.801464,424.822193 460.609368,424.558455 461.43,424.34 L461.52,424.68 C454.993499,426.456544 450.422503,432.327136 450.3,439.09 C450.3,447.29 457.21,453.95 465.83,454.17 Z" id="Shape" fill="#EAE8C7" fill-rule="nonzero"></path>
            <path d="M454,775.77 C461.06,775.77 466.78,779.85 466.78,784.89 C466.78,789.93 461.06,794 454,794 C446.94,794 441.23,789.92 441.23,784.89 C441.23,779.86 446.95,775.77 454,775.77 Z" id="Shape" fill="#998D93" fill-rule="nonzero"></path>
            <path d="M465.26,615.5 C465.26,615.5 451.44,669.44 384.77,674.75 C318.64,680.03 303.64,620.19 303.21,618.4 C342.77,662.55 381.61,653.82 381.61,653.82 C439.61,659.76 465.26,615.5 465.26,615.5 Z" id="Shape" fill="#D85B6D" fill-rule="nonzero"></path>
            <path d="M408.77,550.82 C410.36,551.43 412.61,557.37 411.5,558.48 C410.400013,559.60715 409.064973,560.477828 407.59,561.03 C405.22,561.91 396.51,560.74 396.51,560.74 C394.449183,560.297676 392.512469,559.402757 390.84,558.12 L389.08,556.76 L391.35,554.34 C394.784353,551.286489 399.256557,549.662185 403.85,549.8 C405.51891,549.98147 407.166496,550.323043 408.77,550.82 Z" id="Shape" fill="#51222B" fill-rule="nonzero"></path>
            <path d="M403.69,952.33 L403.69,994.65 L400.98,1013.65 L28.51,1013.65 L32.83,977.37 L44.06,926.37 L63.06,873.7 L63.72,872.35 C68.2187017,863.182716 74.1990033,854.82043 81.42,847.6 L82.27,846.75 C85.7318091,843.292094 89.5006345,840.155869 93.53,837.38 L118.77,820.08 C121.412385,818.262747 124.190571,816.651332 127.08,815.26 L169.5,794.81 L211.15,778.62 L256.69,759.95 L252.38,773.95 C251.9997,775.196268 251.483251,776.396844 250.84,777.53 L234.6,806.34 L249.84,796.12 C251.146047,795.251127 252.377018,794.274379 253.52,793.2 L261.42,785.8 C262.065129,785.200623 262.570417,784.46659 262.9,783.65 L267.82,771.43 C268.440683,769.87829 269.531744,768.559925 270.94,767.66 L279.35,762.26 L281.24,763.26 C292.49,774.09 303.47,785.37 311.96,798.46 C317.6,807.16 322.09,816.6 328.27,824.93 C338.52,838.77 352.89,848.88 367,858.75 L383,873.81 L388.45,880.74 C394.254606,888.09749 398.393198,896.627151 400.58,905.74 L403.67,918.66 L403.69,952.33 Z M389.06,905.26 C389.06,897.87 385.12,891.87 380.28,891.87 C375.44,891.87 371.5,897.87 371.5,905.26 C371.5,912.65 375.43,918.65 380.28,918.65 C385.13,918.65 389.06,912.65 389.06,905.26 Z" id="Shape" fill="#777475" fill-rule="nonzero"></path>
            <ellipse id="Oval" fill="#998D93" fill-rule="nonzero" cx="380.28" cy="905.26" rx="8.78" ry="13.39"></ellipse>
            <path d="M367.04,858.69 C352.93,848.82 338.56,838.69 328.31,824.87 C322.13,816.54 317.64,807.1 312,798.4 C303.51,785.31 292.53,774.03 281.28,763.2 L340.2,793.81 L344.68,818.45 L346.68,826.9 C348.340032,834.108314 351.688617,840.819194 356.45,846.48 L364.89,856.54 L367.04,858.69 Z" id="Shape" fill="#4F484B" fill-rule="nonzero"></path>
            <path d="M353.94,560.44 L353.94,561.95 C353.948372,562.673472 353.400353,563.282381 352.68,563.35 C350.77,563.52 344.56,563.41 343.83,563.35 C343.28,563.29 336.83,562.93 336.83,558.88 C336.83,556.45 336.76,557.37 338.83,554.34 C338.83,554.34 339.2,552.76 345.94,552.76 L350.57,554.53 C351.05,554.82 353.94,559.54 353.94,560.44 Z" id="Shape" fill="#51222B" fill-rule="nonzero"></path>
            <path d="M281.24,763.24 L279.35,762.24 L279.35,737.84 C279.352741,724.830746 281.567644,711.916677 285.9,699.65 L293.49,678.15 C293.71,677.51 294.7,675.88 295.14,676.4 C295.14,676.4 295.14,676.4 295.14,676.4 L295.27,676.67 L298.66,717.67 C298.66,717.67 302.05,747.54 302.05,749.78 C302.05,752.02 307.28,767.7 307.28,767.7 L314,777.41 L340.14,793.84 L281.24,763.24 Z" id="Shape" fill="#4F484B" fill-rule="nonzero"></path>
            <path d="M323.63,411.56 C325.425155,412.459337 326.324538,414.510265 325.77,416.44 C325.192553,418.262463 323.481231,419.484835 321.57,419.44 L318.19,419.44 C317.652311,419.441176 317.119374,419.339341 316.62,419.14 L296.05,410.96 L295.67,410.83 L265.62,402.05 C263.336012,401.375863 260.991486,400.927054 258.62,400.71 L234.53,398.54 L234.07,398.54 C233.503324,398.540902 232.940129,398.628585 232.4,398.8 C227.35848,400.431879 222.691453,403.049221 218.67,406.5 C218.530062,406.618696 218.383131,406.728894 218.23,406.83 C217.238449,407.433205 216.040742,407.596998 214.923644,407.282162 C213.806546,406.967326 212.870637,406.202209 212.34,405.17 L212.17,404.84 C211.839765,404.225225 211.667922,403.537853 211.67,402.84 C211.662812,399.636457 212.609713,396.503329 214.39,393.84 L214.53,393.62 L217.93,390.23 L221.43,387.93 C228.387629,383.284449 236.574096,380.82259 244.94,380.86 C245.45,380.86 245.94,380.86 246.39,380.91 C250.33917,381.156156 254.26196,381.721333 258.12,382.6 C258.43,382.6 291.38,391.52 291.38,391.52 C298.77,394.65 300.77,397.9 307.46,402.69 C311.804777,405.756913 316.444367,408.383222 321.31,410.53 C322.25,410.99 323.07,411.33 323.63,411.56 Z" id="Shape" fill="#4F3508" fill-rule="nonzero"></path>
            <path d="M316.25,452.95 C316.488012,453.176013 316.590899,453.509807 316.521428,453.830596 C316.451958,454.151385 316.220193,454.412707 315.91,454.52 L310.6,457.47 C306.83,459.47 298.68,463.3 285.09,463.86 L284.33,463.86 C292.25,463.86 298.68,458.08 298.68,450.94 C298.68,443.8 292.25,438.02 284.33,438.02 L284.33,437.32 C297.33,437.4 304.56,442.54 304.56,442.54 C307.56,444.1 313.04,449.25 313.05,449.26 L316.25,452.95 Z" id="Shape" fill="#EAE8C7" fill-rule="nonzero"></path>
            <path d="M284.33,438.02 C292.25,438.02 298.68,443.8 298.68,450.94 C298.68,458.08 292.25,463.86 284.33,463.86 C276.41,463.86 269.98,458.08 269.98,450.94 C269.98,443.8 276.41,438.02 284.33,438.02 Z M286.27,451.54 C287.69,448.98 283.77,445.04 281.06,448.23 C278.01,452.66 283.99,455.67 286.27,451.54 Z" id="eye-left" fill="#35290B" fill-rule="nonzero"></path>
            <path d="M293.49,678.15 L285.9,699.65 C281.567644,711.916677 279.352741,724.830746 279.35,737.84 L279.35,762.26 L270.94,767.66 C269.531744,768.559925 268.440683,769.87829 267.82,771.43 L262.9,783.65 C262.570417,784.46659 262.065129,785.200623 261.42,785.8 L253.52,793.2 C252.377018,794.274379 251.146047,795.251127 249.84,796.12 L234.6,806.34 L250.84,777.53 C251.483251,776.396844 251.9997,775.196268 252.38,773.95 L256.69,759.95 L263.08,739.21 L267.56,725.85 C272.688536,710.550551 280.182766,696.149213 289.77,683.17 L293.49,678.15 Z" id="Shape" fill="#4F484B" fill-rule="nonzero"></path>
            <path d="M284.34,437.32 L284.34,438.02 C276.42,438.02 269.99,443.8 269.99,450.94 C269.99,458.08 276.42,463.86 284.34,463.86 C280.911011,463.936445 277.481165,463.752584 274.08,463.31 C271.089535,462.948009 268.128692,462.373218 265.22,461.59 C261.47193,460.356541 257.944365,458.533684 254.77,456.19 C253.367291,455.166148 252.462836,453.596973 252.28,451.87 C251.992268,449.150382 253.070945,446.464926 255.16,444.7 C263.75,438.01 281.81,437.37 281.9,437.36 L282.47,437.36 C283.1,437.32 283.77,437.31 284.34,437.32 Z" id="Shape" fill="#EAE8C7" fill-rule="nonzero"></path>
            <path d="M611.93,95.35 C596.38,105 581.93,121.06 567.47,123.76 C562.633809,124.721121 557.613392,123.926931 553.31,121.52 C513.02,99.61 476.31,80.37 483.9,61.41 C492.2,40.76 507.35,22.41 504.9,0.3 C493.08,2.56 484.02,12.12 477.42,22.18 C470.82,32.24 465.69,43.44 457.42,52.18 C449.15,60.92 436.24,66.79 424.95,62.6 C413.66,58.41 429.89,31.11 418.16,33.83 C383.89,41.83 354.47,35.63 332.33,8.34 C330.7,6.34 337.82,26.7 333.83,29.34 C332.74,30.05 331.93,12.08 330.63,12.03 C316.94,11.51 301.3,2.87 291.02,12.89 C287.798699,16.179742 285.783087,20.4611562 285.3,25.04 C283.555541,39.0759559 285.833963,53.3186962 291.87,66.11 C294.888416,69.8238075 295.221609,75.0424833 292.7,79.11 C283.84,84.75 270.7,82.16 264.7,73.56 C260.89,68.13 259.46,60.64 253.76,57.23 C250.6,55.33 246.76,55.15 243.14,54.23 C226.8,50.31 217.67,33.36 210.56,18.14 C202.2,26.43 207.47,40.45 212.77,50.96 C218.07,61.47 222.05,76.36 212.53,83.29 C207.73,86.79 201.28,86.57 195.46,87.76 C176.46,91.66 163.9,114.36 170.65,132.51 C124.65,127.96 77.16,155.3 58.01,197.4 C75.71,175.19 112.28,171.48 134.09,189.68 C122.75,191.68 110.66,194.06 102.46,202.13 C94.26,210.2 92.81,226.06 102.59,232.13 C76.22,238.26 47.17,215.52 46.79,188.45 C41.14,222.31 52.41,258.59 76.26,283.29 C71.16,298.89 65.6,315.24 53.43,326.29 C41.26,337.34 20.26,340.41 9.09,328.38 L0.57,345.28 C16.7178496,338.726193 35.1210813,341.133383 49.04,351.62 C28.0643123,357.820442 10.8155275,372.825096 1.77,392.74 C0.637942585,395.157387 0.979262723,398.008186 2.65,400.09 C5.65,403.72 10.52,401.67 14.15,399.58 L79.77,361.91 C86.61,373.8 77.49,388.91 66.3,396.84 C55.11,404.77 41.3,409.56 32.71,420.25 C23.36,431.88 22.23,448.52 26.43,462.84 C30.63,477.16 39.43,489.63 48.64,501.4 C36.99,465.6 51.3,445.4 77.86,418.74 C87.12,427.86 136.21,433.22 124.62,439.1 C58.83,472.47 86.36,506.17 140.51,541.72 C146.28,545.51 149.51,552.93 156.12,554.72 C160.74,555.99 165.7,555.15 170.41,556.05 C175.88,557.11 180.61,560.42 185.06,563.77 C211.631724,583.776902 234.892435,607.837379 253.99,635.07 C261.31,645.52 272.59,657.96 284.28,652.86" id="Shape" stroke="#000000" stroke-width="0.5"></path>
            <path d="M611.93,95.35 C618.69,92.6033333 625.566667,90.1733333 632.56,88.06 C625.41,88.29 618.56,91.24 611.93,95.35 Z" id="Shape" stroke="#000000" stroke-width="0.5"></path>
            <path d="M284.3,652.89 C283.74,652.14 206.57,549.06 201.83,484.89 C199.96,459.54 203.77,434.01 201.83,408.67 C200.45,390.85 196.23,373.02 198.54,355.3 C203.15,320.01 232.79,292.81 264.7,277.04 C275.38,271.76 289,267.64 298.48,274.85 C292.6,280.49 300.04,290.76 308.09,291.93 C316.14,293.1 324.33,289.72 332.4,290.79 C341.11,291.94 348.24,298.01 356.09,301.95 C363.94,305.89 374.88,307.11 380.35,300.23 C409.339075,316.75313 443.757672,320.915798 475.85,311.78 C482.85,309.78 490.09,307.1 497.09,308.94 C502.44,310.34 506.75,314.16 511.25,317.37 C521.49809,324.658885 533.474426,329.140531 545.99,330.37 C554.894697,344.934904 561.426279,360.823357 565.34,377.44 C567.15,381.76 568.95,386.08 570.5,390.5 C579.19,415.36 579.34,442.27 579.32,468.6 L579.32,468.82 C579.266667,519.153333 579.01,569.486667 578.55,619.82 L578.49,626.28 C578.449783,629.880638 579.468668,633.413697 581.42,636.44 C584.768268,641.593984 588.734385,646.31907 593.23,650.51 C600.151238,657.023205 610.81065,657.449581 618.23,651.51 C632.115575,640.355618 644.250437,627.182551 654.23,612.43 C670.04631,618.514583 687.91778,615.551572 700.924211,604.688305 C713.930642,593.825038 720.029813,576.767225 716.86,560.12 C715.44,552.66 713.12,542.91 719.7,539.12 C727.7,534.5 735.8,546.71 734.02,555.77 C732.24,564.83 726.02,573.24 727.28,582.39 C744.101521,550.704295 755.886049,516.592252 762.21,481.28 L743.58,516.04 C736.805629,498.224601 736.168667,478.658277 741.77,460.44 C757.25,452.56 765.77,433.06 760.95,416.36 C756.833083,422.489712 754.534551,429.65919 754.32,437.04 C753.840318,423.45165 757.528662,410.041713 764.89,398.61 C765.342791,393.038017 761.868887,387.897802 756.53,386.24 C761.721534,383.875647 765.002737,378.643032 764.87,372.94 L744.29,379.52 C748.921196,366.58111 756.137698,354.720325 765.5,344.66 L722.32,358.66 C730.03,354.53 730.02,343.32 726.9,335.15 C723.78,326.98 718.57,319.02 719.46,310.32 C719.73,307.65 720.58,304.99 720.26,302.32 C719.26,294.39 709.11,291.32 701.19,292.41 C693.27,293.5 685.05,296.63 677.57,293.83 C670.09,291.03 667.48,277.83 675.27,276.08 L661.41,265.87 C670.011021,262.58027 679.680702,263.739884 687.26,268.97 C695.09,263.63 685.9,251.23 676.55,249.61 C667.2,247.99 655.7,249.31 650.19,241.61 C647.69,238.11 647.19,233.47 644.7,229.96 C640.16,223.58 631.09,223.12 623.8,220.28 C621.281202,219.295504 618.937753,217.911046 616.86,216.18 C610.48,210.89 674.64,202.78 702.34,191.73 C706.34,190.15 728.72,183.45 728.74,182.25 C728.76,181.05 708.5,182.93 702.88,182.32 C671.28,178.9 613.55,202.32 618.37,197.81 C623.02,193.5 603.73,185.08 608.79,176.44 C614.14,167.32 643.87,158.04 650.34,156.29 C662.92,152.89 676.55,145.36 678.55,132.48 C653.28,125.2 633.25,155.54 607.74,161.94 C605.14,162.6 602.35,162.94 599.82,162.09 C596.89,161.09 594.82,158.5 592.89,156.09 L567.47,123.86 L565.2,120.98 C579.758636,110.726275 595.436007,102.161257 611.93,95.45" id="Shape" stroke="#000000" stroke-width="0.5"></path>
            <path d="M214.49,393.64 L214.35,393.86 C212.569713,396.523329 211.622812,399.656457 211.63,402.86 C211.627922,403.557853 211.799765,404.245225 212.13,404.86 L212.3,405.19 C212.830637,406.222209 213.766546,406.987326 214.883644,407.302162 C216.000742,407.616998 217.198449,407.453205 218.19,406.85 C218.343131,406.748894 218.490062,406.638696 218.63,406.52 C222.651453,403.069221 227.31848,400.451879 232.36,398.82 C232.900129,398.648585 233.463324,398.560902 234.03,398.56 L234.49,398.56 L258.58,400.73 C260.951486,400.947054 263.296012,401.395863 265.58,402.07 L295.63,410.85 L296.01,410.98 L316.58,419.16 C317.079374,419.359341 317.612311,419.461176 318.15,419.46 L321.53,419.46 C323.441231,419.504835 325.152553,418.282463 325.73,416.46 C326.273678,414.53648 325.375951,412.497717 323.59,411.6 C323.03,411.37 322.21,411.03 321.24,410.6 C316.374367,408.453222 311.734777,405.826913 307.39,402.76 C300.7,397.97 298.7,394.76 291.31,391.59 C291.31,391.59 258.31,382.69 258.05,382.67 C254.19196,381.791333 250.26917,381.226156 246.32,380.98 C245.87,380.98 245.38,380.98 244.87,380.93 C236.504096,380.89259 228.317629,383.354449 221.36,388 L217.86,390.3 L214.49,393.64 Z" id="Shape" stroke="#000000" stroke-width="0.5"></path>
            <path d="M407.51,404.72 L404.76,408.6 C404.085936,409.554513 403.911105,410.774606 404.29,411.88 C405.084677,414.241286 407.298579,415.831269 409.79,415.83 C410.125327,415.82937 410.459949,415.799254 410.79,415.74 C412.4279,415.451778 413.999984,414.869023 415.43,414.02 C419.56,411.57 428.3,406.43 429.09,406.23 C430.09,405.97 455.01,395.6 455.01,395.6 L476.52,386.79 L489.45,382.26 C491.183529,381.658916 493.005219,381.351358 494.84,381.35 L505.29,381.35 L506.77,381.51 C509.5,382.42 511.02,381.16 512.52,378.71 C512.604702,378.560544 512.649474,378.391788 512.65,378.22 C512.650528,378.05886 512.609177,377.900348 512.53,377.76 L510.87,374.85 C510.109659,373.518574 508.922266,372.482688 507.5,371.91 L498.77,368.44 L490.1,366.27 C487.627991,365.65099 485.03828,365.678541 482.58,366.35 L470.15,369.74 C469.530842,369.908033 468.928337,370.132299 468.35,370.41 L452.35,378.03 L430.58,388.91 L418.58,395.79 C418.133038,396.04524 417.705242,396.332666 417.3,396.65 L408.85,403.32 C408.342695,403.724598 407.892003,404.19547 407.51,404.72 Z" id="Shape" stroke="#000000" stroke-width="0.5"></path>
            <path d="M284.33,463.87 C280.901011,463.946445 277.471165,463.762584 274.07,463.32 C271.079535,462.958009 268.118692,462.383218 265.21,461.6 C261.46193,460.366541 257.934365,458.543684 254.76,456.2 C253.357291,455.176148 252.452836,453.606973 252.27,451.88 C251.982268,449.160382 253.060945,446.474926 255.15,444.71 C263.74,438.02 281.8,437.38 281.89,437.37 L282.46,437.37 C283.1,437.37 283.73,437.37 284.34,437.37 C297.34,437.45 304.57,442.59 304.57,442.59 C307.57,444.15 313.05,449.3 313.06,449.31 L316.25,453 C316.488012,453.226013 316.590899,453.559807 316.521428,453.880596 C316.451958,454.201385 316.220193,454.462707 315.91,454.57 L310.6,457.52 C306.83,459.52 298.68,463.35 285.09,463.91 L284.33,463.87 Z" id="Shape" stroke="#000000" stroke-width="0.5"></path>
            <ellipse id="Oval" stroke="#000000" stroke-width="0.5" cx="284.33" cy="450.94" rx="14.35" ry="12.92"></ellipse>
            <path d="M468.22,454.06 C467.43,454.13 466.63,454.16 465.83,454.17 L451.65,454.17 C451.036667,454.17 450.426667,454.14 449.82,454.08 C446.24,453.7 439.59,452.44 439.59,452.44 C436.104852,451.73426 432.700627,450.675465 429.43,449.28 C427.17,448.35 425.59,447.56 425.72,447.43 L430.12,443.28 L434,439.7 C434.41145,439.313528 434.849163,438.956007 435.31,438.63 C438.66,436.22 443.03,433.22 443.03,433.22 C446.629263,430.884584 450.377243,428.786784 454.25,426.94 L459.01,425.13 C459.801464,424.822193 460.609368,424.558455 461.43,424.34 C463.694602,423.744349 465.991775,423.28024 468.31,422.95 C471.689816,422.337125 475.144303,422.252787 478.55,422.7 C478.55,422.7 488.88,424.63 491.76,426.17 C491.76,426.17 499.19,430.44 500.45,431.7 L501.14,432.4 C500.121397,436.095461 498.282437,439.513602 495.76,442.4 C494.9,443.15 492.99,444.52 491.3,445.7 C489.61,446.88 488.13,447.88 488.13,447.88 C486.784471,448.620539 485.383617,449.255771 483.94,449.78 L477.06,452.27 C474.219875,453.219368 471.274999,453.820432 468.29,454.06" id="Shape" stroke="#000000" stroke-width="0.5"></path>
            <path d="M461.52,424.69 C463.062874,424.238297 464.662364,424.009317 466.27,424.01 C475.09,424.01 482.27,430.77 482.27,439.1 C482.27,446.78 476.18,453.1 468.27,454.1 L468.2,454.1 C467.536566,454.182515 466.868541,454.222596 466.2,454.22 L465.76,454.22 C457.14,454 450.23,447.34 450.23,439.15 C450.339222,432.348653 454.948219,426.445545 461.52,424.69 Z" id="Shape" stroke="#000000" stroke-width="0.5"></path>
            <path d="M575.32,630.96 L580.32,645.96 C588.59,657.45 594.21,671.01 604.52,683.28 L605.09,684.28 C611.071436,694.409093 614.227679,705.956663 614.23,717.72 C614.229948,725.016187 612.219728,732.171323 608.42,738.4 L600.42,751.52 C597.187379,756.828804 594.333617,762.359221 591.88,768.07 L582.4,790.16 C579.860995,796.087796 576.728355,801.743301 573.05,807.04 L555.24,832.68 L532.83,809.53 L513.33,788.53 C507.438793,782.16946 500.773498,776.572493 493.49,771.87 L474.6,759.68 C469.191392,756.182503 462.823727,754.465576 456.39,754.77 L454.01,754.88" id="Shape" stroke="#000000" stroke-width="0.5"></path>
            <path d="M336.04,567.57 L329.11,564.57 C327.297155,563.777909 325.786397,562.424887 324.8,560.71 L324.8,560.65 C322.906149,557.364454 321.925596,553.632137 321.96,549.84 C321.890234,549.319625 321.856819,548.795021 321.86,548.27 C321.86,543.04 324.72,535.96 324.72,535.96 C328.4,525.47 343.48,512.73 343.48,482.66 C343.48,482.66 343.36,462.83 342.96,460.66 C342.96,460.66 339.96,446.97 338.7,444.34 L333.82,434.34" id="Shape" stroke="#000000" stroke-width="0.5"></path>
            <path d="M350.57,554.49 C351.05,554.82 353.94,559.54 353.94,560.43 L353.94,561.94 C353.948372,562.663472 353.400353,563.272381 352.68,563.34 C350.77,563.51 344.56,563.4 343.83,563.34 C343.28,563.28 336.83,562.92 336.83,558.87 C336.83,556.44 336.76,557.36 338.83,554.33 C338.83,554.33 339.2,552.75 345.94,552.75 L350.57,554.49 Z" id="Shape" stroke="#000000" stroke-width="0.5"></path>
            <path d="M389.06,556.76 L391.33,554.34 C394.764353,551.286489 399.236557,549.662185 403.83,549.8 C405.498249,549.974947 407.145823,550.30982 408.75,550.8 C410.34,551.41 412.59,557.35 411.48,558.46 C410.380013,559.58715 409.044973,560.457828 407.57,561.01 C405.2,561.89 396.49,560.72 396.49,560.72 C394.429183,560.277676 392.492469,559.382757 390.82,558.1 L389.06,556.76 Z" id="Shape" stroke="#000000" stroke-width="0.5"></path>
            <path d="M411.77,566.2 L413.34,566.2 C415.54299,566.215168 417.691107,565.513169 419.46,564.2 L421.77,562.44 C421.954972,562.296507 422.131907,562.142941 422.3,561.98 C423.276491,561.042689 424.072976,559.93439 424.65,558.71 L426.09,555.71 C426.543897,554.851881 426.845053,553.921342 426.98,552.96 C427.178685,551.326018 427.178685,549.673982 426.98,548.04 C425.947665,540.627097 423.152866,533.569801 418.83,527.46 C417.42,525.46 416.26,523.94 415.83,523.46 C413.83,521.46 407.22,513.31 405.66,511.15 C399.11,500.31 398.29,492.8 396.55,485.15 C395.17,479.06 394.55,475.15 393.91,471.08 C393.75,470.08 392.33,462.08 392.12,461.08 C389.02,447.23 392.87,436.8 393.12,434.38" id="Shape" stroke="#000000" stroke-width="0.5"></path>
            <path d="M303.23,618.44 C312.132673,620.091884 321.229524,620.428805 330.23,619.44 C337.872943,617.69851 345.681446,616.786568 353.52,616.72 C361.88,616.72 368.52,621.26 380.33,619.9 C386.72,618.39 398.57,614.14 407.58,614.26 C418.17,614.41 435.91,618.26 435.91,618.26 C449.57,619.66 454.01,617.68 454.01,617.68 C456.36,617.36 466.28,614.25 466.28,614.25 C466.55,614.25 466.08,614.62 465.05,615.18 C459.87,618.01 440.34,626.54 428.12,630.04 C419.492334,631.948 410.765645,633.376853 401.98,634.32 L382.98,635.41 L361.45,635.41 C348.26,635.13 324.85,628.94 324.85,628.94 C318.880421,627.429136 313.318039,624.61892 308.56,620.71 L303.19,618.46" id="Shape" stroke="#000000" stroke-width="0.5"></path>
            <path d="M303.21,618.44 C342.77,662.59 381.61,653.86 381.61,653.86 C439.61,659.8 465.26,615.54 465.26,615.54 C465.26,615.54 451.44,669.44 384.77,674.75 C318.64,680.03 303.64,620.19 303.21,618.4" id="Shape" stroke="#000000" stroke-width="0.5"></path>
            <path d="M303.21,618.4 L303.21,618.39" id="Shape" stroke="#000000" stroke-width="0.5"></path>
            <path d="M303.2,618.38 L303.21,618.39" id="Shape" stroke="#000000" stroke-width="0.5"></path>
            <path d="M353.51,562.96 C356.147147,563.506323 358.628092,564.637443 360.77,566.27 C362.415744,567.638064 364.131385,568.919788 365.91,570.11 C368.401911,571.431586 371.319865,571.698164 374.01,570.85 C374.632142,570.665772 375.232352,570.414287 375.8,570.1 C376.926641,569.380469 378.00556,568.588817 379.03,567.73 L381.72,564.59 C382.761764,563.024302 383.703638,561.394393 384.54,559.71 C385.89,557.41 389.02,556.78 389.02,556.78" id="Shape" stroke="#000000" stroke-width="0.5"></path>
            <polyline id="Shape" stroke="#000000" stroke-width="0.5" points="295.14 676.4 292.4 670.46 284.32 652.93"></polyline>
            <path d="M295.28,676.69 L295.15,676.42" id="Shape" stroke="#000000" stroke-width="0.5"></path>
            <path d="M295.29,676.73 L298.68,717.73 C298.68,717.73 302.07,747.6 302.07,749.84 C302.07,752.08 307.3,767.76 307.3,767.76 L314.02,777.47 L340.16,793.9 L344.64,818.54 L346.64,826.99 C348.300032,834.198314 351.648617,840.909194 356.41,846.57 L364.85,856.63 L367.09,858.74 L383.09,873.8 L393.99,839.45 L408.18,800.62 L413.69,783.39 C414.000593,782.435405 414.463207,781.537191 415.06,780.73 C418.532656,776.055875 422.701027,771.941463 427.42,768.53 C432.14095,765.117796 437.363179,762.459452 442.9,760.65 C445.139359,759.92 447.289533,758.940513 449.31,757.73 L454.07,754.89 L469.42,745.73 L478.26,740.45 C487.739256,734.80004 496.256316,727.673796 503.49,719.34 L541.77,675.13 L564.93,650.96 C570.64,645.38 572.65,641.87 574.54,634.11 L575.31,630.96 L578.01,619.86 C578.01,619.58 575.68,623.93 575.32,624.36 L545.12,657.22 C543.38,659.29 541.54,661.22 539.61,663.15 L511.16,690.89 C509.16,692.83 507.24,694.89 505.4,696.96 L485.31,722.17 C480.3419,727.749229 474.494715,732.478321 468,736.17 L443.42,750.04 C436.95,753.6 428.26,754.84 420.96,755.97 L406.96,758.15 C401.249568,759.037726 395.479021,759.482386 389.7,759.48 L381.18,759.48 C369.940343,759.480091 358.890822,756.579936 349.1,751.06 L347.17,749.98 C339.067878,745.39767 331.826229,739.438537 325.77,732.37 L318.51,723.9 C311.602394,715.84516 306.303386,706.540495 302.9,696.49 L298.71,684.11 L295.3,676.73" id="Shape" stroke="#000000" stroke-width="0.5"></path>
            <path d="M295.15,676.44 C295.216639,676.516794 295.261524,676.610016 295.28,676.71" id="Shape" stroke="#000000" stroke-width="0.5"></path>
            <path d="M340.16,793.85 L281.24,763.24 L279.35,762.24 L279.35,737.84 C279.352741,724.830746 281.567644,711.916677 285.9,699.65 L293.49,678.15 C293.71,677.51 294.7,675.88 295.14,676.4" id="Shape" stroke="#000000" stroke-width="0.5"></path>
            <path d="M279.35,762.26 L270.94,767.66 C269.531744,768.559925 268.440683,769.87829 267.82,771.43 L262.9,783.65 C262.570417,784.46659 262.065129,785.200623 261.42,785.8 L253.52,793.2 C252.377018,794.274379 251.146047,795.251127 249.84,796.12 L234.6,806.34 L250.84,777.53 C251.483251,776.396844 251.9997,775.196268 252.38,773.95 L256.69,759.95 L263.08,739.21 L267.56,725.85 C272.688536,710.550551 280.182766,696.149213 289.77,683.17 L293.48,678.17" id="Shape" stroke="#000000" stroke-width="0.75"></path>
            <path d="M256.69,759.95 L211.15,778.62 L169.5,794.81 L127.08,815.26 C124.190571,816.651332 121.412385,818.262747 118.77,820.08 L93.51,837.44 C89.4806345,840.215869 85.7118091,843.352094 82.25,846.81 L81.4,847.66 C74.1790033,854.88043 68.1987017,863.242716 63.7,872.41 L63.04,873.76 L44.04,926.43 L32.81,977.43 L28.49,1013.71 L400.96,1013.71 L403.67,994.71 L403.67,918.71 L400.58,905.79 C398.393198,896.677151 394.254606,888.14749 388.45,880.79 L383,873.86" id="Shape" stroke="#000000" stroke-width="0.75"></path>
            <path d="M604.51,683.32 L622.51,684.07 C629.73,684.37 636.94,685.07 644.1,686.07 L649.73,686.87 C653.73,687.43 657.706667,688.126667 661.66,688.96 L681.5,693.14 L697.77,697.6 L761.44,716.95 C767.94858,718.929662 774.204148,721.661438 780.08,725.09 C799.228579,736.258995 814.297646,753.266013 823.08,773.62 L827.96,784.93 L848.88,847.35 L867.29,931.87 L877.29,985.42 L877.29,1009.69 L400.95,1013.69" id="Shape" stroke="#000000" stroke-width="0.75"></path>
            <path d="M466.77,784.89 C466.77,779.89 461.05,775.77 453.99,775.77 C446.93,775.77 441.22,779.85 441.22,784.89 C441.22,789.93 446.94,794 453.99,794 C461.04,794 466.77,789.92 466.77,784.89 Z" id="Shape" stroke="#000000" stroke-width="0.75"></path>
            <ellipse id="Oval" stroke="#000000" stroke-width="0.75" cx="380.28" cy="905.26" rx="8.78" ry="13.39"></ellipse>
            <path d="M492.54,631.53 C489.021788,644.619879 484.190609,657.320988 478.12,669.44" id="Shape" stroke="#000000" stroke-width="0.5"></path>
            <path d="M454.19,461.44 C464.4,461.56 475.38,463.39 484.19,458.27" id="Shape" stroke="#000000" stroke-width="0.5"></path>
            <path d="M429.43,449.29 C427.03,448.92 422.77,450.5 423.21,448.12 C423.65,445.74 425.31,443.79 426.92,441.97 C435.79,431.97 445.17,422.07 456.81,415.46 C468.45,408.85 482.81,405.87 495.38,410.39" id="Shape" stroke="#000000" stroke-width="0.5"></path>
            <path d="M236.86,450.74 C250.399383,439.163302 267.936939,433.354548 285.71,434.56 C299.11,435.56 312.71,440.35 317.79,452.78 C316.79,447.11 313.34,442.17 309.3,438.06 C295.7244,424.53791 276.367804,418.555574 257.53,422.06 C255.02,422.55 252.42,423.28 250.53,425.06" id="Shape" stroke="#000000" stroke-width="0.5"></path>
            <path d="M425.64,445.99 C430.64,441.99 434.27,437.49 439.27,433.51 C443.11038,430.312714 447.162995,427.379329 451.4,424.73 C471.82,412.58 500.09,415.58 517.51,431.73" id="Shape" stroke="#000000" stroke-width="0.5"></path>
            <path d="M274.77,471.98 C284.132677,470.801754 293.280637,468.300122 301.94,464.55" id="Shape" stroke="#000000" stroke-width="0.5"></path>
            <path d="M577.71,468.64 C569.71,501.73 548.14,543.77 494.95,582.97 C494.95,582.97 543.09,608.33 507.44,668.86 C485.33,706.44 460.77,721.54 457.69,723.44 C447.58,729.72 406.34,740.98 376.44,736.06 C362.2,733.72 348.16,728.68 336.44,720.2 C326.7,713.12 319.22,703.43 311.89,693.88 C303.89,683.49 295.75,673.02 293.18,670.08" id="Shape" stroke="#000000" stroke-width="0.5"></path>
            <path d="M281.06,448.23 C283.77,445.04 287.69,448.98 286.27,451.54 C283.99,455.67 278.01,452.66 281.06,448.23 Z" id="Shape" stroke="#000000" stroke-width="0.5"></path>
            <path d="M463.09,437.83 C463.24,435.09 467.99,434.48 467.99,437.88 C467.99,441.86 463.21,441.96 463.09,437.83 Z" id="Shape" stroke="#000000" stroke-width="0.5"></path>
            <path d="M279.96,762.01 L281.24,763.24 C292.49,774.07 303.47,785.35 311.96,798.44 C317.6,807.14 322.09,816.58 328.27,824.91 C338.52,838.75 352.89,848.86 367,858.73" id="Shape" stroke="#000000" stroke-width="0.75"></path>
            <path d="M423.1,883.97 C445.28262,863.551854 468.943711,844.800799 493.89,827.87" id="Shape" stroke="#000000" stroke-width="0.75"></path>
            <path d="M466.96,838.67 C482.303114,824.014888 501.096821,813.469224 521.6,808.01" id="Shape" stroke="#000000" stroke-width="0.75"></path>
            <path d="M647.45,704.57 C658.17,708.48 662.45,721.14 664.72,732.31 C667.94,747.99 669.86,764.95 663.1,779.46" id="Shape" stroke="#000000" stroke-width="0.75"></path>
            <path d="M690.36,715.89 C688.38926,746.163599 681.238859,775.87463 669.22,803.73" id="Shape" stroke="#000000" stroke-width="0.75"></path>
            <path d="M656.29,842 L656.29,842.75" id="Shape" stroke="#000000" stroke-width="0.75"></path>
            <path d="M660.27,819.32 C654.17,851.09 660.88,883.76 667.58,915.41" id="Shape" stroke="#000000" stroke-width="0.75"></path>
            <path d="M672.17,856.28 C673.596667,865.946667 675.03,875.613333 676.47,885.28" id="Shape" stroke="#000000" stroke-width="0.75"></path>
            <path d="M694.96,772.1 C716.853184,787.289577 736.845908,805.049696 754.51,825" id="Shape" stroke="#000000" stroke-width="0.75"></path>
            <path d="M705.77,714.22 C717.618056,723.481014 728.615097,733.781955 738.63,745" id="Shape" stroke="#000000" stroke-width="0.75"></path>
            <path d="M59.86,945 L59.86,945.75" id="Shape" stroke="#000000" stroke-width="0.75"></path>
        </g>
    </g>
</svg>