<svg id="Calque_2" data-name="Calque 2" xmlns="http://www.w3.org/2000/svg" viewBox="0 0 877.96 1014.17"><defs><style>.cls-1{fill:#777475;}.cls-2{fill:#77582f;}.cls-3{fill:#4f484b;}.cls-4{fill:#efc36a;}.cls-5{fill:#23171b;}.cls-6{fill:#d8b461;}.cls-7{fill:#4f3508;}.cls-8{fill:#eae8c7;}.cls-9{fill:#35290b;}.cls-10{fill:#51222b;}.cls-11{fill:#d85b6d;}.cls-12{fill:#998d93;}.cls-13{fill:none;stroke:#000;stroke-miterlimit:10;stroke-width:0.75px;}</style></defs><title>Visage </title><path class="cls-1" d="M1924.8,1054.33v24.27l-476.34,4,2.71-19v-76l-3.09-12.92a64.76,64.76,0,0,0-12.13-25l-5.45-6.93,10.9-34.35,14.19-38.83,5.51-17.23a9.33,9.33,0,0,1,1.37-2.66,57,57,0,0,1,12.36-12.2,56.26,56.26,0,0,1,15.48-7.88,31.42,31.42,0,0,0,6.41-2.92l4.76-2.84,2.38-.11a30.85,30.85,0,0,1,18.21,4.91L1541,840.78a103.74,103.74,0,0,1,19.84,16.66l19.5,21,22.41,23.15L1620.52,876a95.54,95.54,0,0,0,9.35-16.88l9.48-22.09a132.05,132.05,0,0,1,8.54-16.55l8-13.12a39.71,39.71,0,0,0,5.81-20.68,65.79,65.79,0,0,0-9.14-33.44l-.57-1,18,.75c7.22.3,14.43,1,21.59,2l5.63.8q6,.84,11.93,2.09l19.84,4.18,16.27,4.46,63.67,19.35a87.52,87.52,0,0,1,18.64,8.14,103.78,103.78,0,0,1,43,48.53l4.88,11.31,20.92,62.42,18.41,84.52ZM1514.26,853.84c0-5-5.72-9.12-12.78-9.12s-12.77,4.08-12.77,9.12,5.72,9.11,12.77,9.11S1514.26,858.87,1514.26,853.84Z" transform="translate(-1047.22 -68.8)"/><path class="cls-2" d="M1769.8,427.57l43.18-14a101.26,101.26,0,0,0-21.21,34.86l20.58-6.58a14.25,14.25,0,0,1-8.34,13.3,11.94,11.94,0,0,1,8.36,12.37A66.64,66.64,0,0,0,1801.8,506a39.13,39.13,0,0,1,6.63-20.68c4.79,16.7-3.7,36.2-19.18,44.08a85.63,85.63,0,0,0,1.83,55.61l18.63-34.76a345.53,345.53,0,0,1-34.93,101.11c-1.25-9.15,5-17.55,6.74-26.62s-6.32-21.27-14.32-16.65c-6.58,3.8-4.26,13.55-2.84,21a46.69,46.69,0,0,1-62.63,52.31,178.2,178.2,0,0,1-36,39.08,19.08,19.08,0,0,1-25-1,75.37,75.37,0,0,1-11.81-14.07,18.37,18.37,0,0,1-2.93-10.16l.06-6.46q.69-74,.77-148v-2.94c0-26.4-.11-53.39-8.82-78.32-1.55-4.42-3.35-8.74-5.16-13.06a161,161,0,0,0-19.38-47.07,72.1,72.1,0,0,1-34.74-13c-4.5-3.21-8.81-7-14.16-8.43-7-1.84-14.28.82-21.24,2.84a124.19,124.19,0,0,1-95.5-11.55c-5.47,6.88-16.41,5.66-24.26,1.72s-15-10-23.69-11.16c-8.07-1.07-16.25,2.31-24.31,1.14s-15.49-11.44-9.61-17.08c-9.48-7.21-23.1-3.09-33.78,2.19-31.91,15.77-61.55,43-66.16,78.26-2.31,17.72,1.91,35.55,3.29,53.37,2,25.34-1.84,50.87,0,76.22,4.74,64.14,81.91,167.22,82.47,168-11.69,5.1-23-7.34-30.29-17.79a317.3,317.3,0,0,0-68.93-71.3c-4.45-3.35-9.18-6.66-14.65-7.72-4.71-.9-9.67-.06-14.29-1.33-6.66-1.82-9.84-9.24-15.61-13-54.15-35.55-81.68-69.25-15.89-102.62,11.59-5.88-37.5-11.24-46.76-20.36-26.56,26.68-40.87,46.86-29.22,82.66-9.18-11.77-18-24.23-22.21-38.56s-3.07-31,6.28-42.59c8.6-10.69,22.39-15.48,33.59-23.41s20.31-23,13.47-34.93l-65.66,37.67c-3.63,2.09-8.46,4.14-11.5.51a7,7,0,0,1-.88-7.35,75.39,75.39,0,0,1,47.25-41.2,49.57,49.57,0,0,0-48.47-6.34l8.52-16.9c11.17,12,32.17,8.93,44.34-2.09s17.73-27.37,22.83-43c-23.85-24.7-35.12-61-29.47-94.84.38,27.07,29.43,49.81,55.8,43.68-9.78-6.08-8.34-21.93-.13-30s20.29-10.45,31.63-12.45c-21.81-18.2-58.38-14.49-76.08,7.72,19.15-42.1,66.62-69.44,112.64-64.89-6.75-18.15,5.84-40.85,24.81-44.75,5.82-1.19,12.27-1,17.07-4.47,9.52-6.93,5.54-21.81.24-32.33S1249.64,95.32,1258,87c7.11,15.22,16.24,32.17,32.58,36.09,3.59.87,7.46,1,10.62,2.95,5.7,3.41,7.13,10.9,10.94,16.33,6,8.6,19.14,11.19,28,5.55a11.23,11.23,0,0,0-.83-13,74.66,74.66,0,0,1-6.57-41.07,20.43,20.43,0,0,1,5.72-12.15c10.28-10,25.92-1.38,39.61-.86,1.3,0,2.11,18,3.2,17.31,4-2.59-3.13-23-1.5-21,22.14,27.29,51.56,33.46,85.83,25.49,11.73-2.72-4.49,24.59,6.79,28.77s24.15-1.71,32.47-10.42,13.43-19.89,20-30,15.66-19.62,27.48-21.88c2.45,22.12-12.7,40.46-21,61.11-7.62,19,29.12,38.2,69.41,60.11a20.73,20.73,0,0,0,14.16,2.24l25.42,32.23c1.92,2.44,4,5,6.93,6,2.53.89,5.32.51,7.92-.15,25.51-6.4,45.54-36.74,70.81-29.46-2,12.88-15.63,20.41-28.21,23.81-6.47,1.75-36.2,11-41.55,20.15-5.06,8.64,14.23,17.06,9.58,21.37-4.82,4.47,52.91-18.91,84.51-15.49,5.62.61,25.88-1.22,25.86-.07s-22.44,7.9-26.4,9.48c-27.7,11.05-91.86,19.16-85.48,24.45a25.14,25.14,0,0,0,6.94,4.1c7.29,2.84,16.36,3.3,20.9,9.68,2.5,3.51,3,8.15,5.49,11.65,5.51,7.73,17,6.42,26.36,8s18.54,14,10.71,19.36a27.94,27.94,0,0,0-25.85-3.1L1722.75,345c-7.79,1.78-5.19,15,2.3,17.75s15.7-.37,23.62-1.42,18.11,2,19.07,9.91c.32,2.67-.53,5.33-.8,8-.89,8.7,4.33,16.67,7.44,24.83S1777.51,423.44,1769.8,427.57Z" transform="translate(-1047.22 -68.8)"/><path class="cls-3" d="M1661.7,786.67a39.71,39.71,0,0,1-5.81,20.68l-8,13.12a132.05,132.05,0,0,0-8.54,16.55l-9.48,22.09a95.54,95.54,0,0,1-9.35,16.88l-17.81,25.64-22.41-23.15-19.5-21A103.74,103.74,0,0,0,1541,840.78l-18.89-12.19a30.85,30.85,0,0,0-18.21-4.91l-2.38.11,15.35-9.16,8.84-5.28a103.74,103.74,0,0,0,25.23-21.11l38.36-44.16,23.16-24.17c5.71-5.58,7.72-9.09,9.61-16.85l.77-3.15,5,15c8.27,11.49,13.89,25,24.2,37.32l.57,1A65.79,65.79,0,0,1,1661.7,786.67Z" transform="translate(-1047.22 -68.8)"/><path class="cls-2" d="M1659.41,164.3c6.63-4.11,13.48-7.06,20.63-7.29Q1669.57,160.18,1659.41,164.3Z" transform="translate(-1047.22 -68.8)"/><path class="cls-4" d="M1482.45,507.77c-.12.1-.24.2-.35.31l-4.5,4.16-4.3,4.06a.81.81,0,0,1-.1.09c-.31.29,3.15,1.85,3.63,2.07.32.15,4,1.29,6.37,2a32.05,32.05,0,0,0,3.87.93l8.7,1.51a14.67,14.67,0,0,0,2.56.22h15.42a15.71,15.71,0,0,0,2-.12h.07a37,37,0,0,0,8.77-1.79l.49-.16,6.39-2.33a29.75,29.75,0,0,0,4.19-1.9l2.65-1.46a18.43,18.43,0,0,0,5-4,25.49,25.49,0,0,0,5.38-10l-.69-.7a18.12,18.12,0,0,0-4.27-3.16l-4.42-2.37a27,27,0,0,0-9.26-3l-4-.51a33.18,33.18,0,0,0-10.24.25l-4.16.75c-.66.12-1.31.26-2,.43a25.48,25.48,0,0,0-3.18,1l-4.76,1.81a18.52,18.52,0,0,0-4,2.05l-7,4.7-6.09,3.5A14.05,14.05,0,0,0,1482.45,507.77Zm-45.91,117.94,1.76,1.36a14.22,14.22,0,0,0,5.67,2.62l2.38.41c1.13.18,2.23.31,3.29.41a10.62,10.62,0,0,0,9.32-3.08c1.11-1.11.62-4.15.62-4.15a5.68,5.68,0,0,0-3.35-3.51,26.18,26.18,0,0,0-4.92-1,18,18,0,0,0-12.5,4.54Zm-35.55,6.2a1.4,1.4,0,0,0,.43-1v-1.51c0-.89-2.89-5.61-3.37-5.94,0,0-3.3-1.77-4.63-1.77-5.1,1-6.19,1.66-6.19,1.66-.55.36-3.12,2-2.87,4.46a4.7,4.7,0,0,0,3.28,3.64,13.13,13.13,0,0,0,2,.6,15.9,15.9,0,0,0,1.63.23c.73.09,1.77.23,3,.47.44,0,3.89-.27,5.8-.44A1.39,1.39,0,0,0,1401,631.91Zm-49.88,57,1.37,5.14a47.43,47.43,0,0,0,9.11,17.79l14.33,15.45a65.87,65.87,0,0,0,9.3,8.18l5.16,3.54c6.54,4.19,14,6.08,21.81,7.77a13.7,13.7,0,0,0,2.29.31s14.3.14,19.73-.29l12.71-.9c7.46-.65,11-1.91,18-4.36l6.54-3.11c25-18.17,33.14-31.57,34.78-34.77.51-1,9.37-16.59,9.64-17.08l-.29.17-.11-.18,2.6-4.22-4.35.79-8.84,2.47a51.33,51.33,0,0,1-7,1.44l-2.12.3a52.36,52.36,0,0,1-21.65-1.59,52.19,52.19,0,0,0-18.35-1.94l-5.47.4c-1.18.09-2.37.2-3.54.39-4.91.77-4.39-.67-15.23,1.5-2,.39-4.88,1.68-10.06,2-2.32.11-5.26-.49-7.31-.57-1.6-.07-13.44-1.5-14.62-1.54a59.29,59.29,0,0,0-11.48.54l-8.23,1.83a52.72,52.72,0,0,1-8.24.26l-21-1.32ZM1618,459.49c8.71,24.93,8.84,51.92,8.82,78.32v2.94h-1.18c-8,33.09-29.57,75.13-82.76,114.33,0,0,46.4,24.37,12.49,85.9-2.17,3.93-21.62,29.33-30.15,38.41a99.28,99.28,0,0,1-19.6,16.17c-10.11,6.27-43.42,14.88-53.36,15.65-9.36.72-18.73-1-27.89-3-14.08-3.17-28.28-7.38-39.95-15.87-9.74-7.08-17.21-16.76-24.55-26.31-7.93-10.32-16-20.71-18.65-23.74l-9.4-20.38,0,0c-.56-.75-77.73-103.83-82.47-168-1.87-25.35,1.94-50.88,0-76.22-1.38-17.82-5.6-35.65-3.29-53.37,4.61-35.29,34.25-62.49,66.16-78.26,10.68-5.28,24.3-9.4,33.78-2.19-5.88,5.64,1.56,15.91,9.61,17.08s16.24-2.21,24.31-1.14c8.71,1.15,15.84,7.22,23.69,11.16s18.79,5.16,24.26-1.72a124.19,124.19,0,0,0,95.5,11.55c7-2,14.24-4.68,21.24-2.84,5.35,1.4,9.66,5.22,14.16,8.43a72.1,72.1,0,0,0,34.74,13,161,161,0,0,1,19.38,47.07C1614.63,450.75,1616.43,455.07,1618,459.49Zm-57.85-12.32a.93.93,0,0,0-.12-.46l-1.66-2.91a6.81,6.81,0,0,0-3.37-2.94l-8.69-3.52-8.67-2.17a14.85,14.85,0,0,0-7.52.08l-12.43,3.39a10.53,10.53,0,0,0-1.8.67l-16,7.62-21.77,10.88-12,6.88a10.61,10.61,0,0,0-1.28.86l-8.45,6.67a7.25,7.25,0,0,0-1.37,1.45l-2.75,3.88a3.64,3.64,0,0,0-.47,3.28,5.8,5.8,0,0,0,5.5,3.95,5.72,5.72,0,0,0,1-.09,13.76,13.76,0,0,0,4.64-1.72c4.13-2.45,12.87-7.59,13.66-7.79,1-.26,25.92-10.63,25.92-10.63l21.51-8.81,12.93-4.53a16.49,16.49,0,0,1,5.39-.91h10.45l1.48.16c2.73.91,4.25-.35,5.75-2.8A1,1,0,0,0,1560.13,447.17Zm-186.88,38.2a4.17,4.17,0,0,0-2.14-4.86c-.56-.23-1.38-.57-2.35-1a80.05,80.05,0,0,1-13.85-7.84c-6.69-4.79-8.69-8-16.08-11.17h0s-33-8.9-33.26-8.92a73.38,73.38,0,0,0-11.73-1.69c-.45,0-.94,0-1.45-.05a42,42,0,0,0-23.51,7.07l-3.5,2.3-3.4,3.39-.14.22a16.13,16.13,0,0,0-2.72,9,4.2,4.2,0,0,0,.5,2l.17.33a4.18,4.18,0,0,0,5.89,1.66,4.59,4.59,0,0,0,.44-.33,40,40,0,0,1,13.73-7.7,5.55,5.55,0,0,1,1.67-.26l.46,0,24.09,2.17a36.47,36.47,0,0,1,7,1.34l30.05,8.78.38.13,20.57,8.18a4.21,4.21,0,0,0,1.57.3h3.38A4.3,4.3,0,0,0,1373.25,485.37Zm-15.91,40.35,7.52-2.59-4.67-4.41-3.1-3.27a19.29,19.29,0,0,0-3.47-2.9l-3.61-2.36a21.78,21.78,0,0,0-2.54-1.43,20.29,20.29,0,0,0-8.69-2l-5.32-.33c-.55,0-1.09-.05-1.64-.05s-1.22,0-1.83,0l-.62,0-7.4.39a34.78,34.78,0,0,0-6.47,1.2l-4,1.08a18.24,18.24,0,0,0-3.52,1.34l-1.43.71a18.74,18.74,0,0,0-3.81,2.54l-.31.27a7.69,7.69,0,0,0-2.42,4l-.25,1a3.58,3.58,0,0,0,.81,3.26l1.78,2a17.89,17.89,0,0,0,3.66,3.11l3.12,2a11.21,11.21,0,0,0,2.81,1.3l5,1.53a20.18,20.18,0,0,0,5.83.87h10a22.43,22.43,0,0,0,6.61-1l8.35-2.54.67-.23Z" transform="translate(-1047.22 -68.8)"/><path class="cls-5" d="M1625.62,540.75h1.18q-.09,74-.77,148h-.52c0-.28-2.33,4.07-2.69,4.5l-30.2,32.86c-1.74,2.07-3.58,4-5.51,5.93l-28.45,27.74c-2,1.94-3.92,4-5.76,6.07l-20.09,25.21a68.51,68.51,0,0,1-17.31,14L1490.92,819c-6.47,3.56-15.16,4.8-22.46,5.93l-14,2.18a112.06,112.06,0,0,1-17.26,1.33h-8.52A65.32,65.32,0,0,1,1396.6,820l-1.93-1.08a80.12,80.12,0,0,1-21.43-17.62l-7.26-8.47a83,83,0,0,1-15.61-27.41l-4.19-12.38-3.41-7.38v0h0a.57.57,0,0,0-.13-.27s0,0,0,0h0l-1.42-3.09c2.63,3,10.72,13.42,18.65,23.74,7.34,9.55,14.81,19.23,24.55,26.31,11.67,8.49,25.87,12.7,39.95,15.87,9.16,2.06,18.53,3.75,27.89,3,9.94-.77,43.25-9.38,53.36-15.65a99.28,99.28,0,0,0,19.6-16.17c8.53-9.08,28-34.48,30.15-38.41,33.91-61.53-12.49-85.9-12.49-85.9C1596.05,615.88,1617.61,573.84,1625.62,540.75Z" transform="translate(-1047.22 -68.8)"/><path class="cls-6" d="M1411,924.06l-7.2-8.59a46.7,46.7,0,0,1-9.77-19.58l-2-8.45-4.48-24.64-26.14-16.43-6.72-9.71s-5.23-15.68-5.23-17.92-3.39-32.11-3.39-32.11l-3.39-41,3.41,7.38,4.19,12.38A83,83,0,0,0,1366,792.85l7.26,8.47a80.12,80.12,0,0,0,21.43,17.62l1.93,1.08a65.32,65.32,0,0,0,32.08,8.42h8.52a112.06,112.06,0,0,0,17.26-1.33l14-2.18c7.3-1.13,16-2.37,22.46-5.93l24.58-13.87a68.51,68.51,0,0,0,17.31-14l20.09-25.21c1.84-2.1,3.76-4.13,5.76-6.07l28.45-27.74c1.93-1.89,3.77-3.86,5.51-5.93l30.2-32.86c.36-.43,2.69-4.78,2.69-4.5a0,0,0,0,0,0,0l-2.7,11.1-.77,3.15c-1.89,7.76-3.9,11.27-9.61,16.85l-23.16,24.17-38.36,44.16a103.74,103.74,0,0,1-25.23,21.11l-8.84,5.28-15.35,9.16-4.76,2.84a31.42,31.42,0,0,1-6.41,2.92,56.26,56.26,0,0,0-15.48,7.88,57,57,0,0,0-12.36,12.2,9.33,9.33,0,0,0-1.37,2.66l-5.51,17.23-14.19,38.83-10.9,34.35-18.22-17.17Z" transform="translate(-1047.22 -68.8)"/><path class="cls-7" d="M1560,446.71a.93.93,0,0,1,.12.46,1,1,0,0,1-.13.49c-1.5,2.45-3,3.71-5.75,2.8l-1.48-.16h-10.45a16.49,16.49,0,0,0-5.39.91L1524,455.74l-21.51,8.81s-24.89,10.37-25.92,10.63c-.79.2-9.53,5.34-13.66,7.79a13.76,13.76,0,0,1-4.64,1.72,5.72,5.72,0,0,1-1,.09,5.8,5.8,0,0,1-5.5-3.95,3.64,3.64,0,0,1,.47-3.28l2.75-3.88a7.25,7.25,0,0,1,1.37-1.45l8.45-6.67a10.61,10.61,0,0,1,1.28-.86l12-6.88,21.77-10.88,16-7.62a10.53,10.53,0,0,1,1.8-.67l12.43-3.39a14.85,14.85,0,0,1,7.52-.08l8.67,2.17,8.69,3.52a6.81,6.81,0,0,1,3.37,2.94Z" transform="translate(-1047.22 -68.8)"/><path class="cls-8" d="M1547.93,500.66l.69.7a25.49,25.49,0,0,1-5.38,10,18.43,18.43,0,0,1-5,4l-2.65,1.46a29.75,29.75,0,0,1-4.19,1.9l-6.39,2.33-.49.16a37,37,0,0,1-8.77,1.79c7.87-.94,14-7.28,14-15,0-8.33-7.16-15.09-16-15.09a16.83,16.83,0,0,0-4,.48l-.09-.35c.65-.17,1.3-.31,2-.43l4.16-.75a33.18,33.18,0,0,1,10.24-.25l4,.51a27,27,0,0,1,9.26,3l4.42,2.37A18.12,18.12,0,0,1,1547.93,500.66Z" transform="translate(-1047.22 -68.8)"/><path class="cls-9" d="M1513.75,493c8.82,0,16,6.76,16,15.09,0,7.68-6.09,14-14,15h-.07c-.79.07-1.59.1-2.39.11-8.62-.22-15.53-6.88-15.53-15.07a15.27,15.27,0,0,1,12-14.61A16.83,16.83,0,0,1,1513.75,493Zm1.62,16.26a2.74,2.74,0,0,0,.46-2.41,2.21,2.21,0,0,0-1.5-2.12,2.81,2.81,0,0,0-1.79,0,3.3,3.3,0,0,0-2,2.09,2.84,2.84,0,0,0,.35,2.39,3.18,3.18,0,0,0,2.65,1,2,2,0,0,0,1-.2A2.89,2.89,0,0,0,1515.37,509.22Z" transform="translate(-1047.22 -68.8)"/><path class="cls-10" d="M1518.1,682.34l-2.6,4.22.11.18-10.91,6.7-14.45,10a32.72,32.72,0,0,1-6.32,3.43l-9.46,4.46-9.58,4.22-13,5-11.59,3.83a39.58,39.58,0,0,1-7.22,1.66l-8.15,1.07L1408.12,725c.39-.38-5.75-.7-5.4-1.12l-12.26-3.68c-2.28-1.23-6.06-3.55-10.41-6.42-11.48-7.58-24.64-19.31-28.94-24.89l-.42-1.57,5.39,2.26,7.6,2.79c5.31,2.16,0,0,7.64,3.52l19.25,4.24c3.94.34,6.65,1.76,10.42,1.76l23.12,0c1.73-.13,3.46-.19,5.2-.19l21.56.19c5.4-.26,13.91-2.57,16.56-3l10.58-1.89a51.73,51.73,0,0,0,13.16-3.88l22.58-10Z" transform="translate(-1047.22 -68.8)"/><path class="cls-11" d="M1515.61,686.74l.29-.17c-.27.49-9.13,16.09-9.64,17.08-1.64,3.2-9.73,16.6-34.78,34.77l-6.54,3.11c-7.06,2.45-10.56,3.71-18,4.36l-12.71.9c-5.43.43-19.73.29-19.73.29a13.7,13.7,0,0,1-2.29-.31c-7.77-1.69-15.27-3.58-21.81-7.77l-5.16-3.54a65.87,65.87,0,0,1-9.3-8.18l-14.33-15.45a47.43,47.43,0,0,1-9.11-17.79l-1.37-5.14c4.3,5.58,17.46,17.31,28.94,24.89,4.35,2.87,8.13,5.19,10.41,6.42l12.26,3.68c-.35.42,5.79.74,5.4,1.12l16.79,2.08,8.15-1.07a39.58,39.58,0,0,0,7.22-1.66l11.59-3.83,13-5,9.58-4.22,9.46-4.46a32.72,32.72,0,0,0,6.32-3.43l14.45-10Z" transform="translate(-1047.22 -68.8)"/><path class="cls-11" d="M1513.75,683.13l-22.58,10a51.73,51.73,0,0,1-13.16,3.88l-10.58,1.89c-2.65.41-11.16,2.72-16.56,3l-21.56-.19c-1.74,0-3.47.06-5.2.19l-23.12,0c-3.77,0-6.48-1.42-10.42-1.76l-19.25-4.24c-7.64-3.52-2.33-1.36-7.64-3.52l-7.6-2.79-5.39-2.26,21,1.32a52.72,52.72,0,0,0,8.24-.26l8.23-1.83a59.29,59.29,0,0,1,11.48-.54c1.18,0,13,1.47,14.62,1.54,2,.08,5,.68,7.31.57,5.18-.35,8.07-1.64,10.06-2,10.84-2.17,10.32-.73,15.23-1.5,1.17-.19,2.36-.3,3.54-.39l5.47-.4a52.19,52.19,0,0,1,18.35,1.94,52.36,52.36,0,0,0,21.65,1.59l2.12-.3a51.33,51.33,0,0,0,7-1.44Z" transform="translate(-1047.22 -68.8)"/><path class="cls-8" d="M1513.31,523.12h-15a14.67,14.67,0,0,1-2.56-.22l-8.7-1.51a32.05,32.05,0,0,1-3.87-.93c-2.35-.72-6-1.86-6.37-2-.48-.22-3.94-1.78-3.63-2.07a.81.81,0,0,0,.1-.09c3.39-2.71,6.15-5.67,9.15-8.53a14.05,14.05,0,0,1,2.28-1.62l6.09-3.5,7-4.7a18.52,18.52,0,0,1,4-2.05l4.76-1.81a25.48,25.48,0,0,1,3.18-1l.09.35a15.27,15.27,0,0,0-12,14.61C1497.78,516.24,1504.69,522.9,1513.31,523.12Z" transform="translate(-1047.22 -68.8)"/><path class="cls-12" d="M1501.48,844.72c7.06,0,12.78,4.08,12.78,9.12s-5.72,9.11-12.78,9.11-12.77-4.08-12.77-9.11S1494.43,844.72,1501.48,844.72Z" transform="translate(-1047.22 -68.8)"/><path class="cls-10" d="M1459.58,623.28s.49,3-.62,4.15a10.62,10.62,0,0,1-9.32,3.08c-1.06-.1-2.16-.23-3.29-.41l-2.38-.41a14.22,14.22,0,0,1-5.67-2.62l-1.76-1.36,2.27-2.42a18,18,0,0,1,12.5-4.54,26.18,26.18,0,0,1,4.92,1A5.68,5.68,0,0,1,1459.58,623.28Z" transform="translate(-1047.22 -68.8)"/><path class="cls-1" d="M1451.17,1021.28v42.32l-2.71,19H1076l4.32-36.28,11.23-50.95,19-52.67.66-1.35a92.84,92.84,0,0,1,17.7-24.75l.85-.85a80.78,80.78,0,0,1,11.26-9.37L1166.25,889a62.57,62.57,0,0,1,8.31-4.82L1217,863.76l41.65-16.19,45.54-18.67-4.31,14a17.74,17.74,0,0,1-1.54,3.58l-16.24,28.81,15.24-10.22a28.09,28.09,0,0,0,3.68-2.92l7.9-7.4a6,6,0,0,0,1.48-2.15l4.92-12.22a8,8,0,0,1,3.12-3.77l8.41-5.4,5.08,2.64c10.42,10.13,20.46,20.73,28.35,32.9,5.64,8.7,10.13,18.14,16.31,26.47,9.22,12.45,21.77,21.88,34.47,30.84l1.24,1.47,18.22,17.17,5.45,6.93a64.76,64.76,0,0,1,12.13,25l3.09,12.92Zm-14.63-47.07c0-7.39-3.94-13.39-8.78-13.39s-8.78,6-8.78,13.39,3.93,13.39,8.78,13.39S1436.54,981.6,1436.54,974.21Z" transform="translate(-1047.22 -68.8)"/><ellipse class="cls-12" cx="380.54" cy="905.4" rx="8.78" ry="13.39"/><path class="cls-3" d="M1403.84,915.47l7.2,8.59c-12.7-9-25.25-18.39-34.47-30.84-6.18-8.33-10.67-17.77-16.31-26.47-7.89-12.17-17.93-22.77-28.35-32.9l55.73,28.95,4.48,24.64,2,8.45A46.7,46.7,0,0,0,1403.84,915.47Z" transform="translate(-1047.22 -68.8)"/><path class="cls-10" d="M1401.42,629.38v1.51a1.39,1.39,0,0,1-1.26,1.4c-1.91.17-5.36.48-5.8.44-1.28-.24-2.32-.38-3-.47a15.9,15.9,0,0,1-1.63-.23,13.13,13.13,0,0,1-2-.6,4.7,4.7,0,0,1-3.28-3.64c-.25-2.42,2.32-4.1,2.87-4.46,0,0,1.09-.71,6.19-1.66,1.33,0,4.63,1.77,4.63,1.77C1398.53,623.77,1401.42,628.49,1401.42,629.38Z" transform="translate(-1047.22 -68.8)"/><path class="cls-3" d="M1331.91,833.85l-5.08-2.64V806.79a114.75,114.75,0,0,1,6.55-38.19l7.59-21.5c.22-.64,1.21-2.27,1.65-1.75h0s0,0,0,0l.13.27h0v0l3.39,41s3.39,29.87,3.39,32.11,5.23,17.92,5.23,17.92l6.72,9.71,26.14,16.43Z" transform="translate(-1047.22 -68.8)"/><path class="cls-7" d="M1371.11,480.51a4.17,4.17,0,0,1,2.14,4.86,4.3,4.3,0,0,1-4.2,3h-3.38a4.21,4.21,0,0,1-1.57-.3l-20.57-8.18-.38-.13L1313.1,471a36.47,36.47,0,0,0-7-1.34L1282,467.5l-.46,0a5.55,5.55,0,0,0-1.67.26,40,40,0,0,0-13.73,7.7,4.59,4.59,0,0,1-.44.33,4.18,4.18,0,0,1-5.89-1.66l-.17-.33a4.2,4.2,0,0,1-.5-2,16.13,16.13,0,0,1,2.72-9l.14-.22,3.4-3.39,3.5-2.3a42,42,0,0,1,23.51-7.07c.51,0,1,0,1.45.05a73.38,73.38,0,0,1,11.73,1.69c.31,0,33.26,8.92,33.26,8.92h0c7.39,3.13,9.39,6.38,16.08,11.17a80.05,80.05,0,0,0,13.85,7.84C1369.73,479.94,1370.55,480.28,1371.11,480.51Z" transform="translate(-1047.22 -68.8)"/><path class="cls-8" d="M1364.86,523.13l-7.52,2.59-9,3.5-.67.23-8.35,2.54a22.43,22.43,0,0,1-6.61,1h-.9v-.17c7.92,0,14.35-5.78,14.35-12.92S1339.73,507,1331.81,507v-.55c.55,0,1.09,0,1.64.05l5.32.33a20.29,20.29,0,0,1,8.69,2,21.78,21.78,0,0,1,2.54,1.43l3.61,2.36a19.29,19.29,0,0,1,3.47,2.9l3.1,3.27Z" transform="translate(-1047.22 -68.8)"/><path class="cls-9" d="M1331.81,507c7.92,0,14.35,5.78,14.35,12.92s-6.43,12.92-14.35,12.92-14.35-5.78-14.35-12.92S1323.89,507,1331.81,507Zm1.94,13.52a2.49,2.49,0,0,0,.24-2.69,3,3,0,0,0-2.18-1.45,4.19,4.19,0,0,0-3.27.83,2.18,2.18,0,0,0-.18.77,5.14,5.14,0,0,0,.18,1.16c.19.88.16,1.23,1.38,1.58C1331.67,521.2,1333,521.36,1333.75,520.49Z" transform="translate(-1047.22 -68.8)"/><path class="cls-3" d="M1341,747.1l-7.59,21.5a114.75,114.75,0,0,0-6.55,38.19v24.42l-8.41,5.4a8,8,0,0,0-3.12,3.77l-4.92,12.22a6,6,0,0,1-1.48,2.15l-7.9,7.4a28.09,28.09,0,0,1-3.68,2.92l-15.24,10.22,16.24-28.81a17.74,17.74,0,0,0,1.54-3.58l4.31-14,6.39-20.74L1315,794.8a154.46,154.46,0,0,1,22.22-42.68Z" transform="translate(-1047.22 -68.8)"/><path class="cls-8" d="M1331.82,506.42V507c-7.92,0-14.35,5.78-14.35,12.92s6.43,12.92,14.35,12.92V533h-9.07a20.18,20.18,0,0,1-5.83-.87l-5-1.53a11.21,11.21,0,0,1-2.81-1.3l-3.12-2a17.89,17.89,0,0,1-3.66-3.11l-1.78-2a3.58,3.58,0,0,1-.81-3.26l.25-1a7.69,7.69,0,0,1,2.42-4l.31-.27a18.74,18.74,0,0,1,3.81-2.54l1.43-.71a18.24,18.24,0,0,1,3.52-1.34l4-1.08a34.78,34.78,0,0,1,6.47-1.2l7.4-.39.62,0C1330.6,506.43,1331.21,506.41,1331.82,506.42Z" transform="translate(-1047.22 -68.8)"/><path class="cls-13" d="M1659.41,164.3c-15.55,9.65-30,25.71-44.46,28.41a20.73,20.73,0,0,1-14.16-2.24c-40.29-21.91-77-41.15-69.41-60.11,8.3-20.65,23.45-39,21-61.11-11.82,2.26-20.88,11.82-27.48,21.88s-11.73,21.26-20,30-21.18,14.61-32.47,10.42,4.94-31.49-6.79-28.77c-34.27,8-63.69,1.8-85.83-25.49-1.63-2,5.49,18.36,1.5,21-1.09.71-1.9-17.26-3.2-17.31-13.69-.52-29.33-9.16-39.61.86a20.43,20.43,0,0,0-5.72,12.15,74.66,74.66,0,0,0,6.57,41.07,11.23,11.23,0,0,1,.83,13c-8.86,5.64-22,3.05-28-5.55-3.81-5.43-5.24-12.92-10.94-16.33-3.16-1.9-7-2.08-10.62-2.95-16.34-3.92-25.47-20.87-32.58-36.09-8.36,8.29-3.09,22.31,2.21,32.82s9.28,25.4-.24,32.33c-4.8,3.5-11.25,3.28-17.07,4.47-19,3.9-31.56,26.6-24.81,44.75-46-4.55-93.49,22.79-112.64,64.89,17.7-22.21,54.27-25.92,76.08-7.72-11.34,2-23.43,4.38-31.63,12.45s-9.65,23.93.13,30c-26.37,6.13-55.42-16.61-55.8-43.68-5.65,33.86,5.62,70.14,29.47,94.84-5.1,15.6-10.66,31.95-22.83,43s-33.17,14.12-44.34,2.09l-8.52,16.9a49.57,49.57,0,0,1,48.47,6.34,75.39,75.39,0,0,0-47.25,41.2,7,7,0,0,0,.88,7.35c3,3.63,7.87,1.58,11.5-.51l65.66-37.67c6.84,11.89-2.28,27-13.47,34.93s-25,12.72-33.59,23.41c-9.35,11.63-10.48,28.27-6.28,42.59s13,26.79,22.21,38.56c-11.65-35.8,2.66-56,29.22-82.66,9.26,9.12,58.35,14.48,46.76,20.36-65.79,33.37-38.26,67.07,15.89,102.62,5.77,3.79,9,11.21,15.61,13,4.62,1.27,9.58.43,14.29,1.33,5.47,1.06,10.2,4.37,14.65,7.72a317.3,317.3,0,0,1,68.93,71.3c7.32,10.45,18.6,22.89,30.29,17.79" transform="translate(-1047.22 -68.8)"/><path class="cls-13" d="M1659.41,164.3q10.14-4.12,20.63-7.29C1672.89,157.24,1666,160.19,1659.41,164.3Z" transform="translate(-1047.22 -68.8)"/><path class="cls-13" d="M1331.78,721.84c-.56-.75-77.73-103.83-82.47-168-1.87-25.35,1.94-50.88,0-76.22-1.38-17.82-5.6-35.65-3.29-53.37,4.61-35.29,34.25-62.49,66.16-78.26,10.68-5.28,24.3-9.4,33.78-2.19-5.88,5.64,1.56,15.91,9.61,17.08s16.24-2.21,24.31-1.14c8.71,1.15,15.84,7.22,23.69,11.16s18.79,5.16,24.26-1.72a124.19,124.19,0,0,0,95.5,11.55c7-2,14.24-4.68,21.24-2.84,5.35,1.4,9.66,5.22,14.16,8.43a72.1,72.1,0,0,0,34.74,13,161,161,0,0,1,19.38,47.07c1.81,4.32,3.61,8.64,5.16,13.06,8.71,24.93,8.84,51.92,8.82,78.32v2.94q-.09,74-.77,148l-.06,6.46a18.37,18.37,0,0,0,2.93,10.16,75.37,75.37,0,0,0,11.81,14.07,19.08,19.08,0,0,0,25,1,178.2,178.2,0,0,0,36-39.08,46.69,46.69,0,0,0,62.63-52.31c-1.42-7.46-3.74-17.21,2.84-21,8-4.62,16.1,7.59,14.32,16.65s-8,17.47-6.74,26.62a345.53,345.53,0,0,0,34.93-101.11L1791.08,585a85.63,85.63,0,0,1-1.83-55.61c15.48-7.88,24-27.38,19.18-44.08A39.13,39.13,0,0,0,1801.8,506a66.64,66.64,0,0,1,10.57-38.43,11.94,11.94,0,0,0-8.36-12.37,14.25,14.25,0,0,0,8.34-13.3l-20.58,6.58A101.26,101.26,0,0,1,1813,413.59l-43.18,14c7.71-4.13,7.7-15.34,4.58-23.51s-8.33-16.13-7.44-24.83c.27-2.67,1.12-5.33.8-8-1-7.93-11.15-11-19.07-9.91s-16.14,4.22-23.62,1.42-10.09-16-2.3-17.75l-13.86-10.21a27.94,27.94,0,0,1,25.85,3.1c7.83-5.34-1.36-17.74-10.71-19.36s-20.85-.3-26.36-8c-2.5-3.5-3-8.14-5.49-11.65-4.54-6.38-13.61-6.84-20.9-9.68a25.14,25.14,0,0,1-6.94-4.1c-6.38-5.29,57.78-13.4,85.48-24.45,4-1.58,26.38-8.28,26.4-9.48s-20.24.68-25.86.07c-31.6-3.42-89.33,20-84.51,15.49,4.65-4.31-14.64-12.73-9.58-21.37,5.35-9.12,35.08-18.4,41.55-20.15,12.58-3.4,26.21-10.93,28.21-23.81-25.27-7.28-45.3,23.06-70.81,29.46-2.6.66-5.39,1-7.92.15-2.93-1-5-3.59-6.93-6L1615,192.71l-2.27-2.88a234.9,234.9,0,0,1,46.73-25.53" transform="translate(-1047.22 -68.8)"/><path class="cls-13" d="M1262,462.59l-.14.22a16.13,16.13,0,0,0-2.72,9,4.2,4.2,0,0,0,.5,2l.17.33a4.18,4.18,0,0,0,5.89,1.66,4.59,4.59,0,0,0,.44-.33,40,40,0,0,1,13.73-7.7,5.55,5.55,0,0,1,1.67-.26l.46,0,24.09,2.17a36.47,36.47,0,0,1,7,1.34l30.05,8.78.38.13,20.57,8.18a4.21,4.21,0,0,0,1.57.3h3.38a4.3,4.3,0,0,0,4.2-3,4.17,4.17,0,0,0-2.14-4.86c-.56-.23-1.38-.57-2.35-1a80.05,80.05,0,0,1-13.85-7.84c-6.69-4.79-8.69-8-16.08-11.17h0s-33-8.9-33.26-8.92a73.38,73.38,0,0,0-11.73-1.69c-.45,0-.94,0-1.45-.05a42,42,0,0,0-23.51,7.07l-3.5,2.3Z" transform="translate(-1047.22 -68.8)"/><path class="cls-13" d="M1455,473.67l-2.75,3.88a3.64,3.64,0,0,0-.47,3.28,5.8,5.8,0,0,0,5.5,3.95,5.72,5.72,0,0,0,1-.09,13.76,13.76,0,0,0,4.64-1.72c4.13-2.45,12.87-7.59,13.66-7.79,1-.26,25.92-10.63,25.92-10.63l21.51-8.81,12.93-4.53a16.49,16.49,0,0,1,5.39-.91h10.45l1.48.16c2.73.91,4.25-.35,5.75-2.8a1,1,0,0,0,.13-.49.93.93,0,0,0-.12-.46l-1.66-2.91a6.81,6.81,0,0,0-3.37-2.94l-8.69-3.52-8.67-2.17a14.85,14.85,0,0,0-7.52.08l-12.43,3.39a10.53,10.53,0,0,0-1.8.67l-16,7.62-21.77,10.88-12,6.88a10.61,10.61,0,0,0-1.28.86l-8.45,6.67A7.25,7.25,0,0,0,1455,473.67Z" transform="translate(-1047.22 -68.8)"/><path class="cls-13" d="M1331.81,533h-9.07a20.18,20.18,0,0,1-5.83-.87l-5-1.53a11.21,11.21,0,0,1-2.81-1.3l-3.12-2a17.89,17.89,0,0,1-3.66-3.11l-1.78-2a3.58,3.58,0,0,1-.81-3.26l.25-1a7.69,7.69,0,0,1,2.42-4l.31-.27a18.74,18.74,0,0,1,3.81-2.54l1.43-.71a18.24,18.24,0,0,1,3.52-1.34l4-1.08a34.78,34.78,0,0,1,6.47-1.2l7.4-.39.62,0c.61,0,1.22,0,1.83,0s1.09,0,1.64.05l5.32.33a20.29,20.29,0,0,1,8.69,2,21.78,21.78,0,0,1,2.54,1.43l3.61,2.36a19.29,19.29,0,0,1,3.47,2.9l3.1,3.27,4.67,4.41-7.52,2.59-9,3.5-.67.23-8.35,2.54a22.43,22.43,0,0,1-6.61,1Z" transform="translate(-1047.22 -68.8)"/><ellipse class="cls-13" cx="284.59" cy="451.08" rx="14.35" ry="12.92"/><path class="cls-13" d="M1515.7,523c-.79.07-1.59.1-2.39.11h-15a14.67,14.67,0,0,1-2.56-.22l-8.7-1.51a32.05,32.05,0,0,1-3.87-.93c-2.35-.72-6-1.86-6.37-2-.48-.22-3.94-1.78-3.63-2.07" transform="translate(-1047.22 -68.8)"/><path class="cls-13" d="M1473.3,516.3l4.3-4.06,4.5-4.16c.11-.11.23-.21.35-.31a14.05,14.05,0,0,1,2.28-1.62l6.09-3.5,7-4.7a18.52,18.52,0,0,1,4-2.05l4.76-1.81a25.48,25.48,0,0,1,3.18-1c.65-.17,1.3-.31,2-.43l4.16-.75a33.18,33.18,0,0,1,10.24-.25l4,.51a27,27,0,0,1,9.26,3l4.42,2.37a18.12,18.12,0,0,1,4.27,3.16l.69.7a25.49,25.49,0,0,1-5.38,10,18.43,18.43,0,0,1-5,4l-2.65,1.46a29.75,29.75,0,0,1-4.19,1.9l-6.39,2.33-.49.16a37,37,0,0,1-8.77,1.79" transform="translate(-1047.22 -68.8)"/><path class="cls-13" d="M1509.76,493.44a16.83,16.83,0,0,1,4-.48c8.82,0,16,6.76,16,15.09,0,7.68-6.09,14-14,15h-.07a15.71,15.71,0,0,1-2,.12h-.44c-8.62-.22-15.53-6.88-15.53-15.07A15.27,15.27,0,0,1,1509.76,493.44Z" transform="translate(-1047.22 -68.8)"/><path class="cls-13" d="M1622.8,699.91l5,15c8.27,11.49,13.89,25,24.2,37.32l.57,1a65.79,65.79,0,0,1,9.14,33.44,39.71,39.71,0,0,1-5.81,20.68l-8,13.12a132.05,132.05,0,0,0-8.54,16.55l-9.48,22.09a95.54,95.54,0,0,1-9.35,16.88l-17.81,25.64-22.41-23.15-19.5-21A103.74,103.74,0,0,0,1541,840.78l-18.89-12.19a30.85,30.85,0,0,0-18.21-4.91l-2.38.11" transform="translate(-1047.22 -68.8)"/><path class="cls-13" d="M1383.52,636.52h-1a11.13,11.13,0,0,1-8.29-3.71l-.57-.64a8.3,8.3,0,0,1-2.11-5.54v-9.14c0-2.24,1.85-10.69,1.85-10.69,1.27-5,10.26-19.82,10.5-20.33,0,0,4.45-9.94,4.93-12.2,0,0,2.2-11.33,2.2-13.21V546.59s-.2-14.86-.6-17c0,0-3-13.69-4.26-16.32l-4.88-10" transform="translate(-1047.22 -68.8)"/><path class="cls-13" d="M1393.42,621.67c1.33,0,4.63,1.77,4.63,1.77.48.33,3.37,5,3.37,5.94v1.51a1.39,1.39,0,0,1-1.26,1.4c-1.91.17-5.36.48-5.8.44-1.28-.24-2.32-.38-3-.47a15.9,15.9,0,0,1-1.63-.23,13.13,13.13,0,0,1-2-.6,4.7,4.7,0,0,1-3.28-3.64c-.25-2.42,2.32-4.1,2.87-4.46C1387.23,623.33,1388.32,622.62,1393.42,621.67Z" transform="translate(-1047.22 -68.8)"/><path class="cls-13" d="M1436.54,625.71l2.27-2.42a18,18,0,0,1,12.5-4.54,26.18,26.18,0,0,1,4.92,1,5.68,5.68,0,0,1,3.35,3.51s.49,3-.62,4.15a10.62,10.62,0,0,1-9.32,3.08c-1.06-.1-2.16-.23-3.29-.41l-2.38-.41a14.22,14.22,0,0,1-5.67-2.62Z" transform="translate(-1047.22 -68.8)"/><path class="cls-13" d="M1459.21,635.15h1.57a10.15,10.15,0,0,0,6.12-2l2.32-1.76a7.35,7.35,0,0,0,1.81-2l2-3.17a12.25,12.25,0,0,0,1.8-6.4v-5a11,11,0,0,0-.13-1.72l-.73-4.55c-.31-1.9-6.38-12.06-6.38-12.06q-2.08-2-4.22-4.1c-2-2-3.78-3.93-5.49-5.84l-4.68-6.47a23.13,23.13,0,0,1-2.48-5.1,212.83,212.83,0,0,1-5.87-20.87c-1.65-7.26-2.8-14.08-3.61-20.34-.17-.83-.33-1.7-.48-2.62s-.25-1.76-.34-2.64l-.66-6.38a52.61,52.61,0,0,1,.07-11.29c.29-2.51.57-5,.86-7.52" transform="translate(-1047.22 -68.8)"/><path class="cls-13" d="M1350.69,687.33l21,1.32a52.72,52.72,0,0,0,8.24-.26l8.23-1.83a59.29,59.29,0,0,1,11.48-.54c1.18,0,13,1.47,14.62,1.54,2,.08,5,.68,7.31.57,5.18-.35,8.07-1.64,10.06-2,10.84-2.17,10.32-.73,15.23-1.5,1.17-.19,2.36-.3,3.54-.39l5.47-.4a52.19,52.19,0,0,1,18.35,1.94,52.36,52.36,0,0,0,21.65,1.59l2.12-.3a51.33,51.33,0,0,0,7-1.44l8.84-2.47-22.58,10a51.73,51.73,0,0,1-13.16,3.88l-10.58,1.89c-2.65.41-11.16,2.72-16.56,3l-21.56-.19c-1.74,0-3.47.06-5.2.19l-23.12,0c-3.77,0-6.48-1.42-10.42-1.76l-19.25-4.24c-7.64-3.52-2.33-1.36-7.64-3.52l-7.6-2.79-5.39-2.26" transform="translate(-1047.22 -68.8)"/><path class="cls-13" d="M1515.91,686.56h0c-.27.49-9.13,16.09-9.64,17.08-1.64,3.2-9.73,16.6-34.78,34.77l-6.54,3.11c-7.06,2.45-10.56,3.71-18,4.36l-12.71.9c-5.43.43-19.73.29-19.73.29a13.7,13.7,0,0,1-2.29-.31c-7.77-1.69-15.27-3.58-21.81-7.77l-5.16-3.54a65.87,65.87,0,0,1-9.3-8.18l-14.33-15.45a47.43,47.43,0,0,1-9.11-17.79l-1.37-5.14-.42-1.57h0v0" transform="translate(-1047.22 -68.8)"/><path class="cls-13" d="M1349.86,687a10.24,10.24,0,0,0,1.25,1.92c4.3,5.58,17.46,17.31,28.94,24.89,4.35,2.87,8.13,5.19,10.41,6.42l12.26,3.68c-.35.42,5.79.74,5.4,1.12l16.79,2.08,8.15-1.07a39.58,39.58,0,0,0,7.22-1.66l11.59-3.83,13-5,9.58-4.22,9.46-4.46a32.72,32.72,0,0,0,6.32-3.43l14.45-10,10.91-6.7.29-.17" transform="translate(-1047.22 -68.8)"/><path class="cls-13" d="M1401,631.91l.43.26a7.37,7.37,0,0,0,2.81,1,6.82,6.82,0,0,1,4,2,22,22,0,0,0,4,3.24l1.91,1.23a6.39,6.39,0,0,0,3.82,1h.19a11.33,11.33,0,0,0,5.18-1.62l1.54-.93a7.26,7.26,0,0,0,1.69-1.44l2.69-3.14a10.87,10.87,0,0,0,1.9-3.17l.92-1.71a0,0,0,0,0,0,0,5.31,5.31,0,0,1,3-2.4l1.52-.53" transform="translate(-1047.22 -68.8)"/><polyline class="cls-13" points="295.4 676.54 293.98 673.46 284.58 653.08"/><line class="cls-13" x1="295.54" y1="676.83" x2="295.41" y2="676.56"/><path class="cls-13" d="M1342.77,745.68l3.39,41s3.39,29.87,3.39,32.11,5.23,17.92,5.23,17.92l6.72,9.71,26.14,16.43,4.48,24.64,2,8.45a46.7,46.7,0,0,0,9.77,19.58l7.2,8.59,1.24,1.47,18.22,17.17,10.9-34.35,14.19-38.83,5.51-17.23a9.33,9.33,0,0,1,1.37-2.66,57,57,0,0,1,12.36-12.2,56.26,56.26,0,0,1,15.48-7.88,31.42,31.42,0,0,0,6.41-2.92l4.76-2.84,15.35-9.16,8.84-5.28a103.74,103.74,0,0,0,25.23-21.11l38.36-44.16,23.16-24.17c5.71-5.58,7.72-9.09,9.61-16.85l.77-3.15,2.7-11.1a0,0,0,0,1,0,0c0-.28-2.33,4.07-2.69,4.5l-30.2,32.86c-1.74,2.07-3.58,4-5.51,5.93l-28.45,27.74c-2,1.94-3.92,4-5.76,6.07l-20.09,25.21a68.51,68.51,0,0,1-17.31,14L1490.92,819c-6.47,3.56-15.16,4.8-22.46,5.93l-14,2.18a112.06,112.06,0,0,1-17.26,1.33h-8.52A65.32,65.32,0,0,1,1396.6,820l-1.93-1.08a80.12,80.12,0,0,1-21.43-17.62l-7.26-8.47a83,83,0,0,1-15.61-27.41l-4.19-12.38-3.41-7.38" transform="translate(-1047.22 -68.8)"/><path class="cls-13" d="M1342.77,745.68v0h0" transform="translate(-1047.22 -68.8)"/><path class="cls-13" d="M1342.63,745.37a.57.57,0,0,1,.13.27" transform="translate(-1047.22 -68.8)"/><path class="cls-13" d="M1342.63,745.37s0,0,0,0h0" transform="translate(-1047.22 -68.8)"/><path class="cls-13" d="M1387.64,862.8l-55.73-28.95-5.08-2.64V806.79a114.75,114.75,0,0,1,6.55-38.19l7.59-21.5c.22-.64,1.21-2.27,1.65-1.75" transform="translate(-1047.22 -68.8)"/><path class="cls-13" d="M1326.83,831.21l-8.41,5.4a8,8,0,0,0-3.12,3.77l-4.92,12.22a6,6,0,0,1-1.48,2.15l-7.9,7.4a28.09,28.09,0,0,1-3.68,2.92l-15.24,10.22,16.24-28.81a17.74,17.74,0,0,0,1.54-3.58l4.31-14,6.39-20.74L1315,794.8a154.46,154.46,0,0,1,22.22-42.68l3.71-5" transform="translate(-1047.22 -68.8)"/><path class="cls-13" d="M1304.17,828.9l-45.54,18.67L1217,863.76l-42.42,20.45a62.57,62.57,0,0,0-8.31,4.82L1141,906.38a80.78,80.78,0,0,0-11.26,9.37l-.85.85a92.84,92.84,0,0,0-17.7,24.75l-.66,1.35-19,52.67-11.23,50.95L1076,1082.6h372.47l2.71-19v-76l-3.09-12.92a64.76,64.76,0,0,0-12.13-25l-5.45-6.93" transform="translate(-1047.22 -68.8)"/><path class="cls-13" d="M1652,752.27l18,.75c7.22.3,14.43,1,21.59,2l5.63.8q6,.84,11.93,2.09l19.84,4.18,16.27,4.46,63.67,19.35a87.52,87.52,0,0,1,18.64,8.14,103.78,103.78,0,0,1,43,48.53l4.88,11.31,20.92,62.42,18.41,84.52,10,53.55v24.27l-476.34,4" transform="translate(-1047.22 -68.8)"/><path class="cls-13" d="M1514.26,853.84c0-5-5.72-9.12-12.78-9.12s-12.77,4.08-12.77,9.12,5.72,9.11,12.77,9.11S1514.26,858.87,1514.26,853.84Z" transform="translate(-1047.22 -68.8)"/><ellipse class="cls-13" cx="380.54" cy="905.4" rx="8.78" ry="13.39"/><line class="cls-13" x1="466.53" y1="614.32" x2="470.88" y2="613.53"/><line class="cls-13" x1="468.28" y1="617.75" x2="470.88" y2="613.53"/><path class="cls-13" d="M1540,700.48a201.32,201.32,0,0,1-14.42,37.89" transform="translate(-1047.22 -68.8)"/><path class="cls-13" d="M1501.67,530.36c10.21.12,21.19,1.95,30-3.17" transform="translate(-1047.22 -68.8)"/><path class="cls-13" d="M1476.83,518.46c-2.4-.37-6.58,1-6.14-1.39s2.1-4.33,3.71-6.15c8.87-10,18.25-19.9,29.89-26.51s26-9.59,38.57-5.07" transform="translate(-1047.22 -68.8)"/><path class="cls-13" d="M1284.34,519.69a68.08,68.08,0,0,1,48.85-16.18c13.4,1,27,5.79,32.08,18.22-1-5.67-4.45-10.61-8.49-14.72A58.26,58.26,0,0,0,1305,491c-2.51.49-5.11,1.22-7,3" transform="translate(-1047.22 -68.8)"/><path class="cls-13" d="M1473.2,516.39a.81.81,0,0,0,.1-.09c3.39-2.71,6.15-5.67,9.15-8.53,1.38-1.32,2.81-2.62,4.37-3.86a110.62,110.62,0,0,1,12.13-8.78c20.42-12.15,48.69-9.15,66.11,7" transform="translate(-1047.22 -68.8)"/><path class="cls-13" d="M1322.21,540.93a99.69,99.69,0,0,0,27.17-7.43" transform="translate(-1047.22 -68.8)"/><path class="cls-13" d="M1625.62,540.75c-8,33.09-29.57,75.13-82.76,114.33,0,0,46.4,24.37,12.49,85.9-2.17,3.93-21.62,29.33-30.15,38.41a99.28,99.28,0,0,1-19.6,16.17c-10.11,6.27-43.42,14.88-53.36,15.65-9.36.72-18.73-1-27.89-3-14.08-3.17-28.28-7.38-39.95-15.87-9.74-7.08-17.21-16.76-24.55-26.31-7.93-10.32-16-20.71-18.65-23.74l-.06-.07" transform="translate(-1047.22 -68.8)"/><path class="cls-13" d="M1328.54,517.18a4.19,4.19,0,0,1,3.27-.83,3,3,0,0,1,2.18,1.45,2.49,2.49,0,0,1-.24,2.69c-.77.87-2.08.71-3.83.2-1.22-.35-1.19-.7-1.38-1.58a5.14,5.14,0,0,1-.18-1.16A2.18,2.18,0,0,1,1328.54,517.18Z" transform="translate(-1047.22 -68.8)"/><path class="cls-13" d="M1510.57,506.78a3.3,3.3,0,0,1,2-2.09,2.81,2.81,0,0,1,1.79,0,2.21,2.21,0,0,1,1.5,2.12,2.74,2.74,0,0,1-.46,2.41,2.89,2.89,0,0,1-.78.73,2,2,0,0,1-1,.2,3.18,3.18,0,0,1-2.65-1A2.84,2.84,0,0,1,1510.57,506.78Z" transform="translate(-1047.22 -68.8)"/><path class="cls-13" d="M1328.26,830.32l3.65,3.53c10.42,10.13,20.46,20.73,28.35,32.9,5.64,8.7,10.13,18.14,16.31,26.47,9.22,12.45,21.77,21.88,34.47,30.84l4.26,3" transform="translate(-1047.22 -68.8)"/><path class="cls-13" d="M1470.58,952.92a612,612,0,0,1,70.79-56.1" transform="translate(-1047.22 -68.8)"/><path class="cls-13" d="M1514.44,907.62A126.07,126.07,0,0,1,1569.08,877" transform="translate(-1047.22 -68.8)"/><path class="cls-13" d="M1694.93,773.52c10.72,3.91,15,16.57,17.27,27.74,3.22,15.68,5.14,32.64-1.62,47.15" transform="translate(-1047.22 -68.8)"/><path class="cls-13" d="M1737.84,784.84a265.21,265.21,0,0,1-21.14,87.84" transform="translate(-1047.22 -68.8)"/><path class="cls-13" d="M1703.77,911.89V913" transform="translate(-1047.22 -68.8)"/><path class="cls-13" d="M1707.75,888.27c-6.1,31.77.61,64.44,7.31,96.09" transform="translate(-1047.22 -68.8)"/><path class="cls-13" d="M1719.65,925.23q2.14,14.5,4.3,29" transform="translate(-1047.22 -68.8)"/><path class="cls-13" d="M1742.44,841.05A333.31,333.31,0,0,1,1802,894" transform="translate(-1047.22 -68.8)"/><path class="cls-13" d="M1753.23,783.17A252.5,252.5,0,0,1,1786.09,814" transform="translate(-1047.22 -68.8)"/><path class="cls-13" d="M1107.34,1014.45v3.35" transform="translate(-1047.22 -68.8)"/></svg>