<?xml version="1.0" encoding="UTF-8"?>
<svg width="32px" height="32px" viewBox="0 0 32 32" version="1.1" xmlns="http://www.w3.org/2000/svg" xmlns:xlink="http://www.w3.org/1999/xlink">
    <!-- Generator: Sketch 50.2 (55047) - http://www.bohemiancoding.com/sketch -->
    <title>github</title>
    <desc>Created with Sketch.</desc>
    <defs></defs>
    <g id="Desktop" stroke="none" stroke-width="1" fill="none" fill-rule="evenodd">
        <g id="Desktop-HD/-Home" transform="translate(-114.000000, -482.000000)">
            <g id="github" transform="translate(114.000000, 482.000000)">
                <rect id="Share-github" fill="#26A69A" x="0" y="0" width="32" height="32" rx="7"></rect>
                <path d="M12.3618952,23.6270161 C12.3618952,23.7278226 12.2459677,23.8084677 12.0997984,23.8084677 C11.9334677,23.8235887 11.8175403,23.7429435 11.8175403,23.6270161 C11.8175403,23.5262097 11.9334677,23.4455645 12.0796371,23.4455645 C12.2308468,23.4304435 12.3618952,23.5110887 12.3618952,23.6270161 Z M10.7943548,23.4002016 C10.7590726,23.5010081 10.859879,23.6169355 11.0110887,23.6471774 C11.1421371,23.6975806 11.2933468,23.6471774 11.3235887,23.546371 C11.3538306,23.4455645 11.2580645,23.3296371 11.1068548,23.2842742 C10.9758065,23.2489919 10.8296371,23.2993952 10.7943548,23.4002016 Z M13.0221774,23.3145161 C12.8760081,23.3497984 12.7752016,23.4455645 12.7903226,23.5614919 C12.8054435,23.6622984 12.9364919,23.7278226 13.0877016,23.6925403 C13.233871,23.6572581 13.3346774,23.5614919 13.3195565,23.4606855 C13.3044355,23.3649194 13.1683468,23.2993952 13.0221774,23.3145161 Z M16.3387097,4 C9.34778226,4 4,9.30745968 4,16.2983871 C4,21.8881048 7.51814516,26.671371 12.5433468,28.3548387 C13.1885081,28.4707661 13.4153226,28.0725806 13.4153226,27.7449597 C13.4153226,27.4324597 13.4002016,25.7086694 13.4002016,24.6502016 C13.4002016,24.6502016 9.87197581,25.40625 9.13104839,23.1481855 C9.13104839,23.1481855 8.55645161,21.6814516 7.72983871,21.3034274 C7.72983871,21.3034274 6.57560484,20.5120968 7.81048387,20.5272177 C7.81048387,20.5272177 9.06552419,20.6280242 9.75604839,21.827621 C10.859879,23.7731855 12.7096774,23.2137097 13.4304435,22.8810484 C13.546371,22.0745968 13.8739919,21.515121 14.2368952,21.1824597 C11.4193548,20.8699597 8.5766129,20.4616935 8.5766129,15.6129032 C8.5766129,14.2268145 8.95967742,13.53125 9.76612903,12.6441532 C9.63508065,12.3165323 9.20665323,10.9657258 9.89717742,9.22177419 C10.9506048,8.89415323 13.375,10.5826613 13.375,10.5826613 C14.3830645,10.3004032 15.4667339,10.1542339 16.5403226,10.1542339 C17.6139113,10.1542339 18.6975806,10.3004032 19.7056452,10.5826613 C19.7056452,10.5826613 22.1300403,8.8891129 23.1834677,9.22177419 C23.8739919,10.9707661 23.4455645,12.3165323 23.3145161,12.6441532 C24.1209677,13.5362903 24.6149194,14.2318548 24.6149194,15.6129032 C24.6149194,20.4768145 21.6461694,20.8649194 18.828629,21.1824597 C19.2923387,21.5806452 19.6854839,22.3366935 19.6854839,23.5211694 C19.6854839,25.2197581 19.6703629,27.3215726 19.6703629,27.734879 C19.6703629,28.0625 19.9022177,28.4606855 20.5423387,28.3447581 C25.5826613,26.671371 29,21.8881048 29,16.2983871 C29,9.30745968 23.3296371,4 16.3387097,4 Z M8.89919355,21.3840726 C8.83366935,21.4344758 8.84879032,21.5504032 8.93447581,21.6461694 C9.01512097,21.7268145 9.13104839,21.7620968 9.19657258,21.6965726 C9.26209677,21.6461694 9.24697581,21.5302419 9.16129032,21.4344758 C9.08064516,21.3538306 8.96471774,21.3185484 8.89919355,21.3840726 Z M8.35483871,20.9758065 C8.31955645,21.0413306 8.36995968,21.1219758 8.47076613,21.172379 C8.55141129,21.2227823 8.65221774,21.2076613 8.6875,21.1370968 C8.72278226,21.0715726 8.67237903,20.9909274 8.57157258,20.9405242 C8.47076613,20.9102823 8.39012097,20.9254032 8.35483871,20.9758065 Z M9.98790323,22.7701613 C9.90725806,22.8356855 9.9375,22.9868952 10.0534274,23.0826613 C10.1693548,23.1985887 10.3155242,23.2137097 10.3810484,23.1330645 C10.4465726,23.0675403 10.4163306,22.9163306 10.3155242,22.8205645 C10.2046371,22.7046371 10.0534274,22.6895161 9.98790323,22.7701613 Z M9.41330645,22.0292339 C9.33266129,22.0796371 9.33266129,22.2106855 9.41330645,22.3266129 C9.49395161,22.4425403 9.63004032,22.4929435 9.69556452,22.4425403 C9.77620968,22.3770161 9.77620968,22.2459677 9.69556452,22.1300403 C9.625,22.0141129 9.49395161,21.9637097 9.41330645,22.0292339 Z" id="Shape" fill="#3E3E3E" fill-rule="nonzero"></path>
            </g>
        </g>
    </g>
</svg>