<?xml version="1.0" encoding="UTF-8"?>
<svg width="32px" height="32px" viewBox="0 0 32 32" version="1.1" xmlns="http://www.w3.org/2000/svg" xmlns:xlink="http://www.w3.org/1999/xlink">
    <!-- Generator: Sketch 50.2 (55047) - http://www.bohemiancoding.com/sketch -->
    <title>linkedin-in</title>
    <desc>Created with Sketch.</desc>
    <defs></defs>
    <g id="Desktop" stroke="none" stroke-width="1" fill="none" fill-rule="evenodd">
        <g id="Desktop-HD/-Home" transform="translate(-71.000000, -482.000000)">
            <g id="linkedin-in" transform="translate(71.000000, 482.000000)">
                <rect id="Share-IN" fill="#26A69A" x="0" y="0" width="32" height="32" rx="7"></rect>
                <path d="M10.1378619,26.9487751 L5.37906459,26.9487751 L5.37906459,11.6273942 L10.1378619,11.6273942 L10.1378619,26.9487751 Z M7.755902,9.53741648 C6.23452116,9.53741648 5,8.27728285 5,6.755902 C5,5.23452116 6.23452116,4 7.755902,4 C9.27728285,4 10.511804,5.23452116 10.511804,6.755902 C10.511804,8.27728285 9.27728285,9.53741648 7.755902,9.53741648 Z M27.9487751,26.9487751 L23.2002227,26.9487751 L23.2002227,19.4904232 C23.2002227,17.7129176 23.1643653,15.4334076 20.7260579,15.4334076 C18.2518931,15.4334076 17.8728285,17.364588 17.8728285,19.3623608 L17.8728285,26.9487751 L13.1191537,26.9487751 L13.1191537,11.6273942 L17.6832962,11.6273942 L17.6832962,13.7173719 L17.7498886,13.7173719 C18.385078,12.5135857 19.9371938,11.2432071 22.2525612,11.2432071 C27.067706,11.2432071 27.9538976,14.4140312 27.9538976,18.5325167 L27.9538976,26.9487751 L27.9487751,26.9487751 Z" id="Shape" fill="#3E3E3E" fill-rule="nonzero"></path>
            </g>
        </g>
    </g>
</svg>