<?xml version="1.0" encoding="UTF-8"?>
<svg width="32px" height="32px" viewBox="0 0 32 32" version="1.1" xmlns="http://www.w3.org/2000/svg" xmlns:xlink="http://www.w3.org/1999/xlink">
    <!-- Generator: Sketch 50.2 (55047) - http://www.bohemiancoding.com/sketch -->
    <title>twitter</title>
    <desc>Created with Sketch.</desc>
    <defs></defs>
    <g id="Desktop" stroke="none" stroke-width="1" fill="none" fill-rule="evenodd">
        <g id="Desktop-HD/-Home" transform="translate(-28.000000, -482.000000)">
            <g id="twitter" transform="translate(28.000000, 482.000000)">
                <rect id="share-twitte" fill="#26A69A" x="0" y="0" width="32" height="32" rx="7"></rect>
                <path d="M26.4302634,11.0602737 C26.4461326,11.2823449 26.4461326,11.5044649 26.4461326,11.726536 C26.4461326,18.5 21.2906925,26.3046203 11.8680483,26.3046203 C8.96510729,26.3046203 6.26841706,25.4638456 4,24.0045137 C4.41245278,24.0520725 4.80898754,24.0679417 5.23730952,24.0679417 C7.63258255,24.0679417 9.83757163,23.2589541 11.5983695,21.8788706 C9.34582166,21.831263 7.45811898,20.3560131 6.80772581,18.3255364 C7.12501221,18.3730952 7.44224977,18.4048336 7.77540537,18.4048336 C8.23541694,18.4048336 8.69547733,18.3413568 9.12375048,18.23037 C6.77603623,17.7544404 5.01518951,15.6922742 5.01518951,13.2017859 L5.01518951,13.138358 C5.69727225,13.5190723 6.49048824,13.7570127 7.33116536,13.7887023 C5.95108184,12.8686303 5.04692792,11.2982141 5.04692792,9.52154696 C5.04692792,8.56978543 5.30068867,7.69732108 5.74487986,6.93589233 C8.26710651,10.0450353 12.0583811,12.0754632 16.3096184,12.2975832 C16.2303212,11.9168688 16.1827136,11.5203341 16.1827136,11.1237505 C16.1827136,8.30010664 18.4669999,6 21.3064641,6 C22.781714,6 24.1141899,6.61865476 25.0501311,7.6180239 C26.2080946,7.39595272 27.3184993,6.96763073 28.3020481,6.38071438 C27.9212848,7.57046512 27.1122973,8.56983426 26.0495002,9.20430939 C27.0806077,9.09332263 28.0799769,8.80772581 29,8.41119106 C28.3021457,9.42638057 27.4296325,10.3305345 26.4302634,11.0602737 Z" id="Shape" fill="#3E3E3E" fill-rule="nonzero"></path>
            </g>
        </g>
    </g>
</svg>